if (_typeface_js && _typeface_js.loadFace) _typeface_js.loadFace({"glyphs":{"0":{"ha":722,"x_min":40,"x_max":632,"o":"m 324 883 q 628 551 574 788 q 629 546 628 550 l 629 540 q 631 532 629 539 q 632 517 631 521 l 632 474 q 596 276 632 374 q 482 107 560 179 l 361 -6 l 336 -6 q 276 14 310 -6 q 222 50 251 28 q 213 58 218 53 q 208 63 211 60 q 203 67 206 65 q 197 72 200 68 q 186 81 193 76 q 80 221 119 138 q 40 392 40 304 l 40 404 q 43 451 40 399 q 46 476 43 464 q 50 500 47 485 q 74 581 57 535 q 106 657 83 607 q 324 881 183 789 l 324 883 m 232 754 q 140 444 140 622 l 194 299 q 205 278 199 289 q 218 260 211 267 q 317 158 257 204 q 444 113 376 113 q 447 117 444 115 q 450 122 449 119 q 458 133 457 129 q 536 344 536 253 l 536 358 q 535 364 535 360 l 535 376 q 447 617 535 489 q 232 751 371 729 l 232 754 z "},"1":{"ha":481,"x_min":19,"x_max":422,"o":"m 178 889 l 269 810 l 288 757 l 288 156 q 299 132 290 147 q 315 115 307 122 l 317 115 q 317 113 317 114 q 321 113 318 113 q 326 111 324 113 q 330 108 328 110 q 338 104 332 106 q 350 103 344 103 q 378 126 363 110 q 401 153 394 142 l 422 132 l 258 -11 l 113 106 q 153 178 139 122 l 153 694 q 149 701 150 696 q 146 707 149 706 q 118 753 140 731 q 94 769 107 768 l 35 732 q 26 733 33 731 l 19 740 l 178 889 z "},"2":{"ha":722,"x_min":26,"x_max":619,"o":"m 296 889 l 606 694 l 606 681 q 607 668 606 672 l 607 650 q 608 643 607 647 l 608 638 q 444 353 608 479 l 250 235 q 118 107 167 185 q 222 143 161 126 q 332 164 276 158 q 346 165 340 164 l 360 165 q 374 167 368 165 l 406 167 q 424 165 406 167 q 460 163 460 163 q 481 160 468 163 q 501 156 494 157 q 540 144 501 156 q 619 115 579 133 l 511 -11 l 376 35 l 215 40 q 168 28 207 38 q 144 24 151 24 q 121 18 144 24 q 74 6 111 15 q 42 -1 63 1 q 34 -4 39 -3 q 26 -6 29 -6 q 107 167 43 94 q 240 303 171 239 q 244 307 240 303 l 249 311 q 349 408 283 343 q 431 519 397 460 q 436 533 433 524 q 442 547 436 531 q 449 578 447 563 q 451 600 449 586 q 453 611 451 607 l 453 629 q 451 636 451 631 l 451 653 q 428 724 446 688 q 379 778 410 760 l 138 589 l 129 589 l 49 668 l 46 689 l 296 889 z "},"3":{"ha":722,"x_min":17,"x_max":608,"o":"m 269 883 l 568 743 q 569 731 568 738 q 572 717 571 725 q 575 707 574 708 l 575 697 q 576 689 575 696 l 576 681 q 522 549 576 607 q 401 465 468 492 q 547 388 486 454 q 608 244 608 322 l 608 235 q 607 224 607 231 q 604 203 604 210 l 600 190 q 597 183 599 188 q 596 176 596 178 q 585 153 594 169 q 299 -3 501 11 q 285 -4 294 -3 l 271 -4 q 258 -6 263 -4 l 244 -6 l 17 186 l 113 281 l 390 51 q 453 182 432 93 q 456 206 453 192 q 457 218 456 213 l 457 229 q 417 362 457 299 q 299 442 376 425 q 283 443 288 442 q 251 446 260 443 q 243 447 249 446 q 235 447 238 447 l 213 447 l 181 450 l 186 488 q 350 542 272 482 q 428 694 428 603 l 428 699 q 426 703 426 700 l 426 718 q 425 722 425 719 l 425 732 q 406 770 424 754 q 367 786 389 786 l 356 789 l 153 649 l 72 735 l 269 883 z "},"4":{"ha":751,"x_min":35,"x_max":654,"o":"m 393 889 q 503 758 478 832 l 503 388 l 628 388 l 654 285 l 506 285 l 506 135 l 563 103 l 608 138 q 611 131 610 133 q 616 124 613 128 q 619 113 619 121 l 476 -11 l 321 89 q 358 141 349 108 q 367 204 367 174 l 367 281 l 72 281 l 35 393 l 393 889 m 339 743 l 81 388 l 364 388 l 364 714 l 339 743 z "},"5":{"ha":722,"x_min":35,"x_max":603,"o":"m 169 867 l 557 867 l 514 743 l 186 743 l 143 457 l 382 622 l 401 622 q 549 494 496 572 q 603 315 603 417 l 603 293 q 490 85 585 165 q 269 -11 403 8 l 60 118 l 35 143 l 115 238 q 404 64 281 153 q 468 140 449 97 q 493 238 493 196 l 493 254 q 492 261 492 256 l 492 276 q 432 422 483 353 q 299 503 381 490 l 281 506 l 94 382 l 169 867 z "},"6":{"ha":722,"x_min":43,"x_max":625,"o":"m 342 883 q 579 767 421 846 l 490 657 l 281 764 q 276 760 279 760 l 268 760 q 265 758 267 758 l 261 758 q 201 636 219 690 q 169 504 183 582 q 167 476 167 489 l 167 438 q 169 424 167 432 l 169 418 q 171 417 169 418 l 171 404 q 172 400 171 403 l 172 396 l 444 594 l 460 594 q 579 490 533 557 q 625 344 625 424 l 625 329 q 624 313 624 324 q 619 284 624 303 q 614 264 614 265 q 612 257 614 263 q 608 249 610 251 q 508 114 586 188 q 404 26 453 61 q 375 6 394 19 q 347 -11 367 1 q 174 80 247 15 q 67 242 101 144 q 63 260 63 258 q 60 267 63 261 q 57 276 58 274 q 44 350 51 301 q 44 358 44 353 q 43 368 43 364 l 43 385 q 82 575 43 483 q 192 743 128 683 l 342 883 m 339 476 l 186 367 q 180 358 185 363 q 175 344 175 353 q 179 335 176 342 q 182 324 182 328 q 190 303 189 314 q 292 168 225 224 q 444 107 365 107 q 488 163 472 131 q 514 236 504 194 q 515 244 514 243 l 515 254 q 517 264 515 260 l 517 279 q 515 286 515 281 l 515 301 q 506 343 514 321 q 485 382 497 365 q 419 439 454 413 q 339 474 383 465 l 339 476 z "},"7":{"ha":660,"x_min":54,"x_max":635,"o":"m 161 867 l 635 867 l 628 829 q 449 545 518 693 q 347 226 379 397 l 331 54 l 161 -14 l 149 -8 q 269 393 172 208 q 511 740 365 578 l 215 743 q 143 701 172 728 q 83 642 103 667 l 79 638 q 76 634 78 636 q 75 632 75 632 l 54 643 l 161 867 z "},"8":{"ha":722,"x_min":43,"x_max":617,"o":"m 275 883 l 301 883 q 344 878 311 881 q 524 808 440 869 q 585 694 585 764 l 585 671 q 583 663 583 669 l 583 658 q 582 653 582 657 q 579 643 579 644 q 577 639 579 642 q 575 633 575 636 q 564 614 568 626 q 560 606 563 613 l 463 519 q 617 344 607 450 l 617 311 q 615 306 615 310 q 585 201 614 257 q 522 115 560 153 l 361 -11 l 331 -11 q 157 27 233 -11 q 49 161 81 65 l 49 164 q 47 168 47 165 l 47 172 q 45 177 46 174 q 43 185 44 181 l 43 192 q 79 306 43 251 q 167 406 104 343 l 172 411 l 181 422 q 99 471 126 432 q 72 557 72 510 q 79 603 72 568 q 83 622 79 601 q 85 631 83 624 q 89 640 88 639 q 106 679 96 663 q 126 717 106 679 q 128 721 126 718 l 131 724 q 135 732 132 729 l 275 883 m 218 401 q 179 353 204 385 q 163 328 174 344 q 158 315 161 324 q 153 303 154 307 q 149 290 151 299 q 144 276 146 282 q 143 256 143 271 q 157 206 143 235 q 192 161 171 178 q 265 125 229 139 q 353 104 301 111 l 361 104 q 368 103 363 103 l 385 103 q 464 117 426 103 q 528 158 501 132 q 542 180 533 164 q 551 208 550 196 q 553 215 551 210 l 553 221 q 554 226 553 224 l 554 261 q 492 325 535 306 q 488 328 492 326 q 485 331 485 331 q 474 335 486 331 q 467 340 469 339 q 457 344 464 342 q 399 363 438 351 q 339 378 389 365 q 218 399 282 392 l 218 401 m 204 751 q 201 746 203 747 l 201 744 l 200 743 q 192 729 197 739 q 188 721 190 726 q 182 711 185 715 q 168 676 179 707 q 161 635 161 642 q 177 586 161 607 q 224 557 193 565 q 249 552 232 556 q 274 546 265 549 q 324 538 276 546 q 372 529 340 536 q 397 526 381 529 q 422 522 414 524 q 468 560 454 540 q 497 613 488 581 q 499 618 497 615 l 499 624 q 500 629 499 626 l 500 640 q 497 648 499 642 q 496 658 496 654 q 485 678 496 661 l 468 694 q 401 728 447 715 q 285 747 332 747 q 264 749 271 747 l 244 749 l 204 751 z "},"9":{"ha":722,"x_min":40,"x_max":632,"o":"m 339 889 q 550 729 472 836 q 632 479 632 618 l 632 471 q 629 449 629 451 q 626 432 626 438 q 589 288 617 376 l 522 189 q 422 81 499 154 q 313 -11 361 22 l 86 115 l 89 126 l 175 226 l 388 115 l 401 115 l 482 278 q 485 294 485 286 q 489 310 486 301 q 497 347 496 331 l 501 383 q 503 401 501 396 l 503 426 q 501 432 501 428 l 501 454 q 500 461 500 456 l 500 474 l 215 288 q 90 380 140 314 q 40 525 40 446 l 40 535 q 43 546 40 538 q 44 550 43 547 l 44 556 q 46 561 44 558 l 46 565 q 160 753 75 669 q 339 886 214 806 l 339 889 m 232 764 q 181 692 193 714 q 154 610 157 650 q 153 601 153 608 l 153 594 q 156 569 153 589 q 157 564 156 568 q 160 556 158 560 q 164 543 161 553 q 165 540 164 542 q 170 527 165 538 q 182 501 175 517 q 315 393 247 393 l 322 393 q 333 396 325 393 l 335 397 l 336 397 q 340 398 338 397 q 344 399 342 399 q 347 401 346 400 l 350 401 l 500 511 q 400 672 478 604 q 232 761 329 735 l 232 764 z "}," ":{"ha":524,"x_min":0,"x_max":0,"o":""},"!":{"ha":390,"x_min":75,"x_max":317,"o":"m 75 800 l 196 926 l 317 800 q 210 254 231 629 l 182 254 q 75 800 153 640 m 196 0 l 92 103 l 196 207 l 299 103 l 196 0 z "},"\"":{"ha":767,"x_min":108,"x_max":599,"o":"m 210 488 l 176 488 q 108 839 108 671 l 108 939 l 274 939 l 274 839 q 210 488 274 688 m 535 488 l 501 488 q 433 839 433 671 l 433 939 l 599 939 l 599 839 q 535 488 599 688 z "},"#":{"ha":929,"x_min":3,"x_max":724,"o":"m 328 982 l 393 982 l 328 700 l 490 700 l 554 982 l 619 982 l 551 700 l 724 700 l 697 585 l 525 585 l 476 390 l 657 390 l 632 275 l 450 275 l 385 3 l 318 3 l 388 275 l 224 275 l 158 3 l 92 3 l 158 275 l 3 275 l 29 390 l 186 390 l 232 585 l 67 585 l 86 700 l 261 700 l 328 982 m 299 582 l 250 388 l 414 388 l 460 582 l 299 582 z "},"$":{"ha":722,"x_min":11,"x_max":614,"o":"m 285 961 l 361 961 l 364 881 l 554 843 l 493 714 l 364 740 l 361 503 l 503 585 l 514 585 q 611 390 593 501 q 613 381 611 382 l 613 369 q 614 360 613 361 l 614 350 q 610 294 614 310 q 594 239 608 271 q 497 97 563 164 q 361 -14 432 29 l 361 -146 l 281 -146 l 281 0 l 14 60 q 72 186 33 125 l 278 140 l 278 425 l 138 342 q 51 442 86 376 q 13 571 21 500 q 11 583 11 575 l 11 613 q 13 621 11 619 l 13 629 q 49 739 18 683 q 132 826 76 789 q 204 863 169 851 q 285 881 254 879 l 285 961 m 404 460 q 388 453 399 456 q 382 450 385 450 q 377 449 379 450 q 372 445 375 447 q 367 443 369 443 l 364 443 q 361 442 363 442 l 364 110 l 447 94 q 501 228 482 144 q 504 251 501 238 q 506 264 504 258 l 506 283 q 504 292 504 288 l 504 300 q 503 308 503 304 q 442 433 499 371 q 428 444 438 439 q 425 447 428 446 q 421 449 422 449 q 417 451 419 450 q 414 453 415 453 q 411 454 413 453 l 408 454 q 404 457 407 454 l 404 460 m 138 783 q 128 751 135 772 q 122 723 126 736 q 114 689 117 710 q 113 660 113 679 l 113 647 q 136 553 113 613 q 199 474 163 503 q 218 465 208 471 q 230 463 222 465 q 240 460 238 461 q 254 457 251 457 l 269 457 q 272 458 271 457 l 281 458 q 283 460 282 458 l 285 460 l 285 751 l 138 783 z "},"%":{"ha":1078,"x_min":35,"x_max":953,"o":"m 754 517 q 897 415 840 486 q 953 256 953 344 l 953 246 q 951 235 951 242 l 951 225 q 949 213 950 221 q 947 201 947 206 q 940 174 940 174 q 939 170 940 174 q 936 164 938 167 q 860 58 906 104 q 761 -24 814 13 q 633 42 678 6 q 557 161 579 86 l 557 167 q 555 172 556 168 q 554 182 554 175 q 553 188 553 183 l 553 190 q 551 193 551 190 q 549 208 549 201 l 549 224 q 608 399 549 318 q 754 514 668 479 l 754 517 m 678 425 q 646 374 663 404 q 628 321 639 356 q 623 297 624 306 q 622 275 622 289 q 746 86 622 143 q 763 80 754 85 q 772 74 771 75 q 782 71 774 74 q 792 67 790 68 q 801 64 794 65 q 810 61 808 63 q 818 60 813 60 q 876 182 861 103 l 876 196 q 878 203 876 197 l 878 219 q 876 228 876 221 q 854 301 876 260 q 821 350 842 333 q 678 422 747 408 l 678 425 m 714 878 l 783 878 l 692 718 l 278 -14 l 207 -14 l 299 143 l 714 878 m 232 883 q 243 879 236 879 l 250 879 q 257 878 251 878 q 331 840 286 875 q 393 781 363 817 q 400 772 394 778 q 403 768 401 771 q 407 763 406 765 q 412 754 408 760 q 417 746 415 749 q 431 707 424 731 q 442 665 435 693 q 446 639 443 657 q 447 626 446 631 l 447 614 q 439 558 447 586 q 419 506 435 540 q 347 422 381 457 q 269 347 314 386 l 268 347 q 265 345 267 346 q 261 343 264 344 q 257 342 258 342 l 253 342 q 247 339 250 339 l 239 339 q 238 340 239 339 l 233 340 l 233 342 l 232 342 q 96 443 149 381 q 35 597 35 515 q 36 617 35 610 q 40 639 36 619 q 42 642 40 640 l 42 646 q 43 653 42 651 q 46 658 44 656 l 46 663 q 47 667 46 665 q 49 672 49 669 q 74 726 57 697 q 232 881 142 847 l 232 883 m 169 786 q 147 746 161 772 q 119 671 140 733 q 115 635 115 633 q 125 574 115 642 q 127 567 126 568 q 131 558 128 567 q 133 556 132 558 q 135 552 135 553 q 138 543 135 551 q 212 463 168 492 q 315 425 256 433 q 350 474 333 439 q 369 538 363 497 l 369 551 q 371 558 369 553 l 371 583 q 369 589 369 585 q 315 711 358 676 q 301 722 310 715 q 299 726 301 724 q 294 728 296 728 q 291 732 293 729 q 286 735 289 735 q 246 760 265 751 q 204 779 236 768 q 188 782 199 779 q 181 783 185 782 l 172 783 l 169 786 z "},"&":{"ha":1078,"x_min":43,"x_max":942,"o":"m 536 958 q 612 881 581 926 q 643 783 643 835 l 643 781 q 642 776 642 779 l 642 765 q 640 760 640 764 l 640 751 q 633 735 638 740 q 626 717 631 722 l 610 679 q 608 676 610 678 q 603 665 603 671 l 471 549 l 606 321 l 772 457 q 776 454 774 454 l 779 454 q 782 453 779 453 l 785 453 q 788 451 785 451 l 792 447 q 829 418 810 429 q 869 403 838 414 l 874 403 q 878 401 875 401 l 889 401 q 928 408 893 401 l 931 408 q 933 410 932 408 l 936 410 q 939 411 938 410 l 942 411 q 901 342 933 367 q 832 308 865 314 l 826 308 q 821 307 825 307 l 810 307 q 718 344 751 307 l 713 344 q 711 346 713 344 l 704 346 q 703 347 704 346 l 700 347 l 625 288 q 697 178 649 221 q 818 129 751 129 q 835 131 828 129 q 854 135 842 132 q 867 138 858 135 q 878 140 869 138 q 936 183 897 154 l 936 175 q 882 60 936 106 q 760 10 833 19 l 751 10 q 743 8 750 8 l 729 8 q 686 13 732 8 q 649 24 672 15 q 526 142 589 56 q 511 164 515 157 q 508 170 511 167 q 504 176 506 174 q 501 181 503 178 q 496 186 499 185 l 235 -17 l 43 269 l 318 488 l 181 738 l 194 783 q 363 875 250 815 q 536 956 450 919 l 536 958 m 339 444 l 192 328 l 339 106 l 350 106 l 476 213 l 339 444 m 417 850 q 364 822 386 843 q 342 771 342 800 l 342 761 l 343 761 l 343 757 q 344 756 343 757 l 344 754 l 444 585 q 508 638 482 599 q 533 714 533 678 l 533 726 q 532 732 532 728 l 532 739 q 531 746 531 740 q 524 771 528 761 q 510 797 519 781 q 465 838 493 819 q 461 839 464 838 l 457 839 q 454 840 456 839 q 453 842 453 840 q 450 842 451 842 l 449 842 q 447 843 447 842 q 435 846 443 843 q 429 847 433 846 l 425 847 l 417 850 z "},"'":{"ha":386,"x_min":108,"x_max":274,"o":"m 210 488 l 176 488 q 108 839 108 671 l 108 939 l 274 939 l 274 839 q 210 488 274 688 z "},"(":{"ha":510,"x_min":38,"x_max":471,"o":"m 371 1163 q 376 1156 372 1161 q 382 1151 381 1151 l 388 1146 q 391 1144 389 1146 q 393 1142 393 1143 q 253 907 288 1044 q 239 724 247 846 q 234 631 236 693 q 232 539 232 569 l 232 465 q 233 429 232 449 q 236 392 235 417 q 240 317 238 367 q 247 244 243 293 q 244 221 244 231 q 240 197 243 211 q 219 89 233 161 q 213 60 217 79 q 209 47 211 56 q 204 32 207 38 q 244 18 219 31 q 282 -1 263 8 l 283 -1 l 286 -4 q 308 -18 294 -8 q 379 -43 350 -43 l 386 -43 q 392 -42 388 -42 q 407 -39 397 -42 q 421 -33 411 -39 q 426 -31 424 -31 q 431 -29 429 -31 q 433 -26 433 -28 q 436 -21 433 -24 l 442 -15 l 442 -14 l 443 -14 l 449 -8 q 451 -6 450 -8 q 453 -3 453 -4 l 471 -17 q 467 -22 468 -19 q 465 -26 465 -24 q 464 -33 465 -29 q 461 -37 463 -36 q 285 -169 386 -169 l 264 -169 q 261 -168 263 -169 l 253 -168 q 250 -167 251 -167 q 233 -158 242 -165 q 215 -150 224 -157 l 178 -133 q 172 -129 175 -131 q 168 -128 169 -128 q 106 -100 154 -121 l 51 -100 q 49 -99 50 -99 q 47 -97 49 -99 q 43 -94 44 -96 l 42 -94 l 40 -93 l 39 -93 l 38 -92 l 72 -6 q 79 113 75 33 q 90 353 88 242 q 92 414 92 414 l 92 506 q 90 538 90 515 l 90 601 q 89 633 90 611 q 88 665 88 654 l 88 697 q 86 729 86 708 l 126 881 q 230 1035 168 967 q 371 1160 292 1103 l 371 1163 z "},")":{"ha":510,"x_min":-86,"x_max":417,"o":"m 396 1176 l 417 1163 q 372 1063 388 1108 q 353 958 353 1004 l 356 331 q 286 110 356 226 q 135 -62 229 14 l -11 -149 l -40 -161 l -51 -137 q 122 3 54 -86 q 199 207 189 93 q 192 306 196 240 q 179 471 188 360 q 175 640 175 554 l 175 671 q 176 701 175 676 q 185 851 181 807 q 207 999 192 933 q 203 997 206 999 q 197 996 201 996 l 193 996 q 189 994 192 994 q 161 989 179 993 q 138 988 153 988 q 117 988 124 988 q 74 999 111 989 q 51 1007 64 1004 l 43 1007 q 39 1008 42 1007 l 24 1008 q 19 1010 22 1008 l 13 1010 q 7 1008 11 1008 l 0 1008 q -36 997 -18 1006 q -53 989 -42 994 q -61 985 -56 988 q -69 979 -67 982 l -86 999 q -74 1008 -82 1000 q -65 1022 -72 1014 q 149 1157 40 1157 q 163 1153 157 1154 q 172 1151 169 1151 q 197 1146 182 1150 q 208 1143 206 1143 q 219 1140 217 1140 q 256 1133 232 1138 q 274 1131 269 1131 l 290 1131 q 315 1133 306 1131 q 339 1139 324 1135 q 368 1151 349 1143 q 396 1174 381 1158 l 396 1176 z "},"*":{"ha":660,"x_min":63,"x_max":551,"o":"m 161 1179 l 275 1165 q 269 1121 269 1126 q 267 1099 267 1107 l 267 1079 q 281 1047 271 1068 l 297 1018 q 300 1014 299 1014 q 307 1004 300 1004 q 310 999 307 1001 q 336 1047 329 1029 q 351 1103 351 1088 l 351 1117 q 353 1124 351 1118 l 353 1157 l 460 1174 l 468 1065 q 394 1033 424 1054 q 336 982 361 1015 q 358 960 344 968 q 386 953 372 953 l 393 953 q 410 954 403 953 q 429 958 417 956 q 438 960 433 958 q 444 963 443 961 l 461 967 q 471 970 464 968 q 480 974 478 972 q 496 979 482 976 l 551 889 l 450 843 q 328 944 414 908 l 328 942 q 326 939 326 942 l 326 933 q 324 926 324 931 l 324 921 q 379 794 324 860 l 307 708 l 232 797 q 290 918 290 850 l 290 947 q 219 909 244 931 q 167 850 194 888 l 63 889 l 113 985 q 207 964 158 964 l 225 964 q 244 967 231 964 q 247 968 246 967 l 250 968 q 258 969 253 968 q 267 970 264 969 q 275 972 269 971 l 281 972 q 249 1015 272 997 q 196 1047 232 1028 l 183 1051 q 169 1056 178 1053 l 157 1060 q 146 1063 154 1060 l 161 1179 z "},"+":{"ha":929,"x_min":135,"x_max":706,"o":"m 447 832 l 471 832 l 471 517 l 654 517 l 678 551 l 706 551 l 643 425 l 471 422 l 471 132 l 374 60 l 374 425 l 183 425 l 161 376 l 135 376 l 189 517 l 374 517 l 374 764 l 447 832 z "},",":{"ha":390,"x_min":93,"x_max":293,"o":"m 93 107 l 194 207 l 293 114 q 110 -122 257 -51 l 93 -99 q 147 -46 139 -61 q 164 6 164 -21 q 93 107 164 50 z "},"-":{"ha":550,"x_min":229,"x_max":464,"o":"m 229 401 l 464 401 l 464 314 l 229 314 l 229 401 z "},".":{"ha":390,"x_min":92,"x_max":299,"o":"m 194 0 l 92 103 l 194 207 l 299 103 l 194 0 z "},"/":{"ha":778,"x_min":35,"x_max":742,"o":"m 124 -46 l 35 -46 l 653 943 l 742 943 l 124 -46 z "},":":{"ha":390,"x_min":92,"x_max":299,"o":"m 194 0 l 92 103 l 194 207 l 299 103 l 194 0 m 194 517 l 92 619 l 194 724 l 299 619 l 194 517 z "},";":{"ha":390,"x_min":92,"x_max":299,"o":"m 93 107 l 194 207 l 293 114 q 110 -122 257 -51 l 93 -99 q 147 -46 139 -61 q 164 6 164 -21 q 93 107 164 50 m 194 517 l 92 619 l 194 724 l 299 619 l 194 517 z "},"<":{"ha":1011,"x_min":35,"x_max":914,"o":"m 244 692 l 390 589 l 328 496 q 204 565 263 517 l 204 169 q 260 133 225 149 q 315 103 278 122 l 385 156 q 388 151 386 154 q 392 146 389 149 l 396 142 q 397 138 396 140 q 400 132 399 135 q 404 126 401 129 l 229 -6 q 35 89 121 72 q 72 181 72 132 l 72 576 q 142 613 103 585 q 172 636 151 621 l 206 669 q 208 672 206 669 q 215 678 211 675 q 221 683 218 681 q 226 686 224 685 q 231 688 229 688 q 238 689 232 688 l 244 689 l 244 692 m 669 931 l 701 931 q 647 863 661 894 q 626 779 633 831 l 626 535 l 815 693 q 879 628 857 660 q 914 547 903 592 l 914 119 q 783 -73 888 -6 q 560 -165 679 -140 l 556 -165 q 552 -163 554 -164 q 543 -160 550 -162 l 542 -160 q 539 -158 540 -158 l 538 -158 q 535 -157 536 -157 l 543 -136 q 782 68 736 -72 l 782 529 l 729 578 l 624 492 l 624 142 l 667 90 l 557 -4 l 449 90 l 492 142 l 492 590 l 419 593 l 419 667 l 497 667 l 497 779 q 431 900 481 860 l 440 903 q 451 899 444 899 l 457 899 q 463 897 458 897 q 498 881 475 893 q 531 854 521 868 q 533 851 532 854 q 535 847 535 849 l 540 842 q 669 928 597 914 l 669 931 z "},"=":{"ha":926,"x_min":89,"x_max":838,"o":"m 89 681 l 838 681 l 838 554 l 89 554 l 89 681 m 89 358 l 838 358 l 838 233 l 89 233 l 89 358 z "},">":{"ha":1036,"x_min":35,"x_max":989,"o":"m 244 692 l 390 589 l 328 496 q 204 565 263 517 l 204 169 q 260 133 225 149 q 315 103 278 122 l 385 156 q 388 151 386 154 q 392 146 389 149 l 396 142 q 397 138 396 140 q 400 132 399 135 q 404 126 401 129 l 229 -6 q 35 89 121 72 q 72 181 72 132 l 72 576 q 142 613 103 585 q 172 636 151 621 l 206 669 q 208 672 206 669 q 215 678 211 675 q 221 683 218 681 q 226 686 224 685 q 231 688 229 688 q 238 689 232 688 l 244 689 l 244 692 m 665 929 l 697 929 q 631 801 631 879 l 631 514 l 800 692 l 811 692 l 932 546 l 800 422 q 889 296 858 367 q 926 150 917 232 q 928 142 926 149 l 928 133 q 929 126 928 131 l 929 118 l 946 106 l 972 118 l 989 100 l 867 -6 q 853 -3 861 -6 q 840 0 844 0 q 786 129 796 74 l 622 -6 q 546 39 579 22 q 506 58 532 46 q 464 75 493 64 q 474 88 471 82 q 481 103 478 93 q 485 110 483 106 q 488 117 486 115 q 493 129 490 119 l 493 589 l 421 589 l 421 668 l 493 668 l 493 767 q 433 901 479 843 q 488 891 465 901 q 539 858 510 881 l 544 853 q 597 901 574 888 q 665 926 628 924 l 665 929 m 703 318 l 628 244 l 628 135 l 706 97 l 783 167 q 703 315 771 247 l 703 318 m 733 568 l 663 506 l 631 447 l 631 296 l 814 476 l 733 568 z "},"?":{"ha":463,"x_min":24,"x_max":407,"o":"m 24 743 l 125 926 l 149 926 q 324 878 251 926 q 407 724 407 821 q 307 521 407 639 q 226 399 246 450 q 206 256 206 347 l 176 256 q 175 297 175 285 q 232 553 175 393 q 260 675 260 626 q 204 771 260 739 q 149 786 178 786 q 43 732 93 786 l 24 743 m 190 0 l 88 103 l 190 207 l 293 103 l 190 0 z "},"@":{"ha":929,"x_min":8,"x_max":804,"o":"m 376 988 q 392 986 381 986 q 408 989 397 986 l 424 989 q 432 990 428 989 l 449 990 q 458 989 450 989 l 478 989 q 651 925 571 978 q 769 786 738 869 q 788 718 776 769 q 803 613 803 649 q 804 597 803 601 l 804 571 q 803 560 803 567 l 803 540 q 638 226 782 313 l 628 217 q 599 196 613 201 q 565 182 593 192 q 553 178 554 178 l 536 178 q 533 179 535 178 l 531 179 q 528 181 529 179 l 525 181 q 519 183 521 181 q 460 310 478 232 l 310 181 q 245 230 272 199 q 204 304 218 261 l 204 310 q 203 315 203 311 l 203 335 q 201 340 201 336 l 201 378 q 206 404 201 375 q 213 454 206 419 q 225 474 217 461 q 286 551 256 521 q 301 571 293 563 l 232 757 q 257 757 246 756 q 307 767 282 761 q 350 779 321 771 q 371 789 357 782 q 374 792 372 790 q 376 797 375 794 q 381 803 376 799 l 386 808 q 388 812 386 810 q 390 815 390 814 l 554 732 q 556 732 554 731 l 556 735 q 558 742 556 738 q 565 756 561 746 q 576 769 569 761 q 580 768 578 769 q 584 765 582 767 q 590 763 586 764 q 597 756 590 756 q 600 753 597 753 l 601 753 q 603 751 601 751 q 594 742 599 749 q 582 727 590 736 q 567 703 574 718 q 561 696 563 699 q 557 686 560 693 l 554 308 q 556 306 554 307 q 558 297 557 300 l 558 293 q 560 290 558 292 l 560 288 q 571 269 563 282 q 589 258 572 269 l 622 275 q 707 397 675 317 q 739 554 738 474 q 740 561 739 556 l 740 604 q 739 611 739 606 q 703 786 735 708 q 590 899 663 857 q 444 942 518 942 l 432 942 q 418 940 426 940 q 363 928 400 938 q 349 924 346 924 q 343 922 347 924 q 336 918 339 919 q 154 732 213 849 q 92 481 92 607 l 92 438 q 94 410 92 433 q 114 300 103 343 q 251 74 160 132 q 407 24 331 24 l 419 24 q 444 24 436 24 q 456 26 451 25 q 464 28 460 26 q 469 28 468 28 l 490 32 q 511 38 497 35 q 778 253 685 89 l 778 246 q 779 242 778 244 l 779 231 q 781 226 779 229 l 781 224 q 747 139 781 179 q 633 36 714 99 q 600 14 622 28 q 542 -6 572 3 q 513 -14 532 -8 q 482 -21 503 -17 q 438 -26 474 -22 q 396 -29 410 -29 q 126 86 233 -29 q 46 243 71 167 q 10 421 10 351 l 10 432 q 8 443 8 436 l 8 485 q 63 721 8 597 q 288 956 135 888 q 376 985 325 972 l 376 988 m 315 536 q 283 461 297 504 q 279 439 282 453 q 278 419 278 432 l 278 408 q 347 256 278 325 l 453 350 l 453 463 l 315 536 m 267 732 l 324 589 l 450 519 l 450 665 l 267 732 z "},"A":{"ha":929,"x_min":3,"x_max":853,"o":"m 818 961 l 840 961 q 778 890 818 939 q 740 810 751 856 l 740 183 q 781 113 750 143 l 826 149 l 853 121 l 693 -17 q 690 -15 692 -15 l 686 -15 q 666 -8 672 -12 q 649 0 660 -4 q 576 143 592 65 l 361 -17 l 118 115 l 106 115 l 103 113 q 99 111 101 111 l 93 111 q 76 106 82 108 q 67 92 69 103 l 67 90 q 65 88 65 89 l 65 83 q 63 78 63 81 l 63 67 q 64 64 63 65 l 64 60 q 67 51 64 60 q 68 49 67 50 q 72 28 69 40 q 75 11 75 17 l 75 8 q 73 5 74 7 q 69 0 72 3 l 69 -3 q 68 -4 68 -3 l 68 -7 q 65 -8 67 -7 q 62 -10 64 -8 q 58 -12 60 -11 q 50 -15 53 -14 l 46 -15 q 43 -17 44 -15 l 40 -17 q 14 -1 25 -17 q 3 32 3 10 q 22 81 8 50 q 43 129 31 97 l 181 333 q 69 461 111 386 q 24 622 24 540 q 28 657 24 636 q 33 690 32 683 q 36 703 33 692 q 43 726 36 699 q 46 738 43 731 q 175 890 86 839 q 364 946 264 940 q 371 947 365 946 l 407 947 q 421 946 411 946 l 436 946 q 451 943 440 944 q 469 941 463 942 q 490 938 476 940 q 528 929 511 936 l 665 861 q 669 863 667 860 l 675 868 q 739 924 711 904 q 818 958 776 950 l 818 961 m 207 290 l 164 221 l 450 86 l 463 86 l 576 181 l 574 290 l 207 290 m 331 832 q 149 752 226 821 q 72 579 72 683 l 72 569 q 75 561 72 569 q 76 557 75 560 l 76 551 q 78 547 76 550 l 78 543 q 201 361 93 438 l 396 643 q 386 647 390 643 q 377 651 388 647 q 365 655 367 654 q 353 658 363 656 q 340 661 343 661 q 329 663 336 661 l 321 663 q 218 600 251 663 q 215 608 217 604 q 214 619 214 613 q 213 624 213 621 l 213 629 q 321 743 213 703 q 349 751 331 747 q 376 754 368 754 q 429 747 381 754 l 433 747 q 436 746 433 746 l 440 746 q 443 744 440 744 q 454 742 451 742 l 460 742 q 465 740 461 740 l 503 789 q 426 818 469 807 q 344 829 382 829 l 331 832 m 533 761 l 288 404 l 574 404 l 563 711 l 542 761 l 533 761 z "},"B":{"ha":1078,"x_min":-6,"x_max":964,"o":"m 215 969 l 361 932 q 365 928 363 928 l 372 928 q 375 926 372 926 l 379 926 q 405 927 397 926 q 417 928 413 928 q 431 932 422 929 q 456 936 435 932 q 469 939 461 936 l 482 943 q 507 949 492 946 q 532 953 514 949 q 582 958 556 958 q 577 955 581 958 q 572 950 574 951 q 566 946 569 949 q 559 941 563 943 q 549 932 556 939 q 538 926 543 931 q 530 920 533 921 q 523 917 526 919 q 513 908 519 915 q 444 857 463 872 q 393 789 408 824 q 390 782 390 786 q 386 771 389 778 q 378 744 378 742 q 376 740 378 743 q 373 735 375 738 q 370 728 371 732 q 367 718 369 725 l 367 686 q 369 656 367 675 l 369 622 q 371 607 369 611 l 371 551 q 369 510 371 550 q 360 368 367 463 q 356 307 356 306 l 356 297 q 354 286 354 293 l 354 276 q 353 267 353 272 q 321 197 340 225 q 276 135 318 192 q 274 131 274 132 l 269 126 q 264 118 265 122 q 368 206 324 156 q 422 328 413 257 l 422 678 q 663 931 422 825 q 685 940 671 933 q 697 945 689 942 q 708 950 704 949 q 719 953 711 951 q 730 957 726 956 q 741 961 733 958 q 751 964 749 964 l 758 964 q 763 965 760 964 l 771 965 q 775 967 772 965 l 790 967 q 794 965 792 965 q 921 878 865 953 q 923 871 922 872 q 925 867 924 869 q 925 863 925 865 q 928 846 925 857 l 928 828 q 929 819 928 826 l 929 813 q 882 676 929 739 q 781 567 856 642 l 775 561 q 773 560 775 561 q 769 557 771 558 l 779 557 q 789 556 781 556 q 810 553 803 553 q 964 419 949 526 l 964 140 l 835 110 q 711 51 793 92 q 594 -17 654 21 l 419 40 q 383 42 407 39 q 346 44 354 44 q 336 46 338 44 l 281 46 q 271 44 278 44 q 129 0 197 40 q 125 -7 128 -3 q 120 -13 122 -11 q 111 -31 118 -15 q 106 -51 106 -40 q 114 -89 106 -47 q 115 -93 114 -90 q 118 -99 117 -96 q 119 -103 119 -101 q 129 -126 124 -111 q 108 -151 124 -146 q 102 -154 106 -154 q 97 -156 99 -154 l 92 -156 q 88 -154 90 -154 l 85 -154 q 82 -153 83 -153 q 58 -135 67 -146 q 49 -106 49 -124 l 49 -100 q 47 -97 47 -99 l 47 -92 q 46 -89 46 -90 l 46 -86 q 71 -11 46 -43 q 97 19 74 -7 q 126 51 107 31 l 161 86 q 189 118 176 101 q 193 126 190 122 q 198 132 196 129 q 200 136 200 135 q 209 154 206 144 q 217 178 213 164 q 219 188 219 185 q 221 196 219 190 l 221 206 q 219 210 219 207 l 219 214 q 218 218 218 215 q 217 224 218 221 q 213 229 215 226 q 208 238 211 232 q 189 250 204 243 l 183 250 q 178 251 182 250 l 167 251 q 164 253 165 251 l 161 253 q 118 243 144 253 q 78 218 104 236 l 72 224 q 71 226 71 224 l 71 236 q 69 239 69 236 l 69 250 q 71 253 69 251 l 71 261 q 72 264 71 263 l 72 267 q 124 321 90 303 q 197 346 157 344 q 201 347 199 346 l 215 347 l 224 350 q 225 350 224 349 l 225 353 q 226 356 225 354 q 228 360 228 358 l 228 365 q 229 368 228 367 l 229 371 q 206 420 229 394 q 157 456 182 446 q 146 460 154 457 q 136 463 144 460 q 118 465 122 465 q 42 442 81 461 q 33 438 40 440 q 31 436 32 438 q 27 435 29 435 q 22 433 25 435 q 16 430 18 431 q 11 427 14 429 q 6 425 8 425 l 3 433 q 132 563 3 521 q 147 567 136 564 q 161 569 150 567 q 176 572 167 571 q 189 574 185 574 l 189 582 q 190 586 189 583 l 190 590 q 197 636 192 606 q 256 761 207 697 l 371 853 q 344 840 365 847 q 318 832 335 839 q 290 828 308 831 q 264 826 281 826 l 251 826 q 244 828 249 826 l 239 828 q 232 829 236 828 l 225 829 q 214 831 221 829 q 206 834 207 833 q 199 837 206 835 q 190 840 192 839 q 186 842 189 840 q 182 842 185 842 q 144 851 157 850 q 110 856 128 856 q 64 846 90 856 q 24 813 40 832 q 17 804 19 808 q 10 786 14 800 q 6 778 8 785 q 3 781 3 778 l 3 782 q 1 783 1 782 q -6 807 -6 804 q -1 828 -6 821 q -1 832 -1 831 q 0 836 0 835 q 1 840 0 838 q 6 851 1 839 q 18 874 10 858 q 33 894 21 879 q 39 901 36 897 q 43 906 42 904 q 48 912 44 908 q 51 917 51 915 q 67 933 57 924 q 122 958 92 947 q 181 969 151 969 l 183 969 q 188 968 185 968 l 203 968 q 207 967 204 967 l 215 967 l 215 969 m 726 238 q 688 231 714 236 q 651 221 668 226 l 651 124 l 726 97 l 804 132 l 804 221 q 785 225 801 221 q 765 229 779 225 q 726 235 747 235 l 726 238 m 671 889 q 615 861 635 881 q 576 808 589 835 q 570 794 575 806 q 565 775 565 782 l 565 382 q 503 240 565 293 q 367 150 442 186 q 379 151 375 150 l 392 151 q 417 154 403 151 l 440 154 q 453 156 449 154 l 490 156 q 515 154 500 156 q 542 151 521 154 q 568 150 558 150 l 572 150 q 578 149 574 149 l 589 149 q 603 146 597 146 l 619 146 l 619 663 l 651 663 l 651 517 q 746 601 703 542 q 786 721 786 657 q 783 744 786 731 q 783 751 783 746 q 782 758 782 756 q 778 773 779 767 q 776 781 776 779 q 773 793 775 783 q 764 813 771 803 q 751 825 760 817 l 739 842 q 689 882 722 858 q 671 886 681 885 l 671 889 m 651 264 q 689 267 664 264 q 726 269 714 269 l 739 269 q 753 268 743 268 q 781 264 772 265 q 793 263 789 263 l 799 263 q 804 261 800 261 l 804 361 q 790 356 797 356 l 783 356 q 776 354 779 354 l 769 354 q 763 353 765 353 l 749 353 q 719 354 729 353 l 690 358 q 672 360 682 358 q 651 364 663 361 l 651 264 m 729 522 l 651 465 l 651 404 q 654 399 653 400 q 659 398 656 399 q 667 396 663 397 q 690 389 688 389 q 729 382 718 382 q 744 383 739 382 q 781 393 742 383 q 797 401 789 400 l 797 431 q 778 488 797 457 q 729 519 761 514 l 729 522 z "},"C":{"ha":878,"x_min":0,"x_max":826,"o":"m 511 944 l 229 700 l 229 299 q 226 288 226 288 q 218 268 218 263 q 216 265 218 268 q 213 261 214 263 q 147 379 165 324 q 126 511 126 443 q 126 525 126 518 q 128 540 126 532 q 128 558 128 553 q 132 572 129 564 q 133 579 132 576 l 133 585 q 136 597 133 583 q 138 604 136 601 l 138 611 q 140 625 138 611 q 200 740 157 689 q 246 792 224 768 q 290 836 268 817 q 300 843 294 838 q 307 853 306 849 l 288 850 q 43 603 132 779 l 3 450 l 3 447 q 1 443 1 446 l 1 432 q 0 428 0 431 l 0 422 q 89 142 0 260 q 336 -11 182 17 l 503 -17 q 815 194 696 1 l 826 239 q 531 107 674 107 l 518 107 q 511 108 513 107 l 504 108 q 496 110 499 108 l 489 110 q 476 115 482 110 l 476 794 l 671 729 l 800 861 l 799 861 l 797 860 l 792 860 q 789 858 790 858 l 786 858 q 511 944 639 858 m 436 813 l 439 115 q 343 143 392 115 q 283 188 308 167 q 238 229 257 210 q 261 254 251 247 l 275 268 q 282 277 279 274 q 288 283 285 281 q 353 365 335 336 q 382 463 382 408 l 382 767 l 436 813 z "},"D":{"ha":1169,"x_min":19,"x_max":1044,"o":"m 54 967 q 149 890 85 903 l 617 910 q 765 896 668 906 q 890 835 833 886 q 972 719 943 788 q 1015 590 999 658 q 1021 568 1018 583 q 1025 547 1021 563 q 1033 503 1029 532 q 1039 433 1036 492 q 1043 361 1043 363 l 1043 314 q 1044 290 1043 297 l 1044 197 q 1043 163 1044 186 q 1042 129 1042 140 q 813 -17 932 88 q 699 13 794 -11 q 640 25 679 17 q 551 38 582 38 q 463 43 507 43 l 428 43 q 417 42 425 42 q 347 35 393 40 q 281 21 324 32 q 86 -60 179 -6 l 82 -60 q 79 -61 81 -60 l 71 -61 q 69 -62 71 -61 l 60 -62 q 63 -51 60 -60 q 65 -47 64 -47 q 68 -45 67 -47 q 69 -42 69 -43 q 71 -39 69 -40 l 72 -39 l 72 -37 l 358 149 q 438 232 403 178 q 474 342 468 279 l 474 353 q 472 365 472 356 q 471 389 471 375 q 467 436 467 435 q 467 449 467 442 q 465 461 465 457 l 465 485 q 467 529 465 507 q 475 621 469 560 q 485 665 478 635 q 508 751 496 715 l 500 754 q 496 751 499 751 l 494 751 l 493 750 l 489 750 q 485 747 488 749 q 479 746 482 746 q 399 638 414 701 l 399 624 q 397 610 397 619 q 396 581 396 596 q 394 572 394 579 l 394 564 q 393 540 394 565 l 392 515 q 390 468 390 489 l 390 447 q 392 428 390 433 q 392 386 392 406 q 396 347 393 367 q 322 184 385 253 q 178 61 258 115 l 126 26 q 78 -3 93 4 l 60 -3 q 82 19 60 -3 q 106 44 90 28 q 168 121 157 103 q 199 213 199 167 l 199 218 q 196 226 197 219 q 194 239 194 233 l 194 244 q 192 250 192 247 l 192 256 q 188 265 189 258 q 186 268 186 265 q 152 317 174 297 q 103 336 131 336 l 86 339 q 54 319 75 332 q 26 300 46 313 q 22 296 25 299 l 19 293 q 69 393 19 356 q 181 425 115 425 l 189 425 l 226 428 q 436 746 231 636 l 181 749 q 88 800 133 749 q 46 899 51 849 l 46 924 q 49 939 46 928 l 50 940 l 50 943 q 51 949 50 944 q 52 956 51 954 q 54 960 53 957 l 54 967 m 738 313 q 717 307 735 311 q 650 285 693 303 q 611 258 635 279 l 611 178 q 817 139 732 160 q 883 121 839 133 q 885 128 883 122 l 885 133 q 886 140 885 136 l 886 185 q 885 196 885 189 l 885 218 q 882 240 882 232 l 878 261 q 828 290 863 272 q 774 307 803 306 q 767 308 771 307 l 760 308 q 753 310 757 308 l 746 310 l 738 313 m 579 754 l 542 751 q 532 731 539 744 q 529 721 532 728 q 525 710 526 714 q 514 668 522 697 q 514 663 514 667 q 512 654 513 658 q 511 642 511 650 l 511 629 q 510 615 510 624 q 506 575 506 586 l 506 561 q 503 533 506 551 q 501 506 501 514 q 500 454 500 469 l 500 433 q 501 392 500 401 q 504 369 503 382 q 507 346 506 356 q 508 336 507 342 l 508 325 q 453 186 497 260 l 485 189 q 506 185 490 185 l 529 185 q 554 182 549 182 l 567 182 q 579 181 571 181 l 579 754 m 872 479 q 864 472 869 476 q 857 467 858 468 q 840 460 849 465 q 825 450 831 456 q 817 448 822 450 q 808 444 811 446 q 743 433 775 433 q 614 474 681 433 l 614 304 q 681 328 657 322 q 714 335 693 332 q 729 336 718 335 q 746 336 740 336 q 779 333 757 336 q 814 328 790 333 q 847 317 825 326 q 864 310 853 314 q 872 306 867 308 q 881 301 878 304 l 872 479 m 611 749 l 611 533 q 642 488 618 500 q 697 467 661 475 q 718 463 715 463 l 743 463 q 749 464 746 463 l 757 464 q 761 465 758 464 l 764 465 q 814 481 797 472 q 861 511 831 490 q 864 522 861 514 q 865 529 864 524 l 865 536 q 867 539 865 538 l 867 556 q 865 561 865 557 l 865 568 q 864 574 864 569 q 817 665 854 621 q 740 728 779 708 q 734 731 738 729 q 722 735 731 732 q 706 740 719 738 q 697 742 703 740 l 688 742 q 671 744 682 742 l 651 744 q 643 746 650 744 l 635 746 l 611 749 z "},"E":{"ha":929,"x_min":3,"x_max":826,"o":"m 514 950 q 772 867 636 867 l 785 867 q 800 869 789 867 q 807 871 801 869 l 814 871 q 821 872 815 871 l 826 872 l 628 660 l 778 660 l 708 517 l 476 517 l 476 115 q 480 112 479 113 q 483 111 481 111 l 492 111 q 513 107 513 107 l 533 107 q 690 144 613 107 q 826 235 768 181 q 760 107 818 163 q 635 21 707 56 q 607 8 625 15 q 583 2 597 7 q 540 -7 569 -3 l 519 -11 q 501 -12 513 -11 q 485 -15 489 -14 l 469 -15 q 456 -17 460 -15 l 429 -17 q 188 56 299 -17 q 32 247 78 128 q 3 407 3 324 q 29 574 3 463 q 38 593 35 582 q 47 614 40 600 q 301 864 147 814 l 328 867 q 126 525 126 693 l 126 522 q 128 521 126 522 l 128 517 q 129 515 128 517 l 129 514 q 207 275 129 378 l 207 272 l 208 272 q 209 271 208 271 q 211 269 210 271 l 211 268 l 213 268 l 213 267 l 226 301 q 240 458 232 353 q 242 485 240 467 l 242 533 q 240 556 242 533 q 238 603 238 600 q 235 633 235 622 q 232 664 232 653 l 232 672 q 231 679 231 674 l 231 688 q 229 694 229 689 l 514 950 m 439 813 l 385 764 l 385 447 l 374 399 q 258 254 310 306 l 247 243 q 243 238 243 239 l 238 232 q 439 113 325 140 l 439 813 m 476 792 l 476 546 l 649 726 l 476 792 z "},"F":{"ha":950,"x_min":-158,"x_max":988,"o":"m 663 950 l 560 867 q 492 829 539 849 q 452 815 469 819 q 419 810 435 811 l 285 789 l 285 654 l 161 651 q 126 634 138 640 q 111 625 115 628 q 78 599 94 615 q 43 561 61 583 q 8 482 14 524 l 8 467 q 10 464 8 464 l 10 457 q 11 456 10 456 l 11 450 l 15 454 q 22 459 17 454 q 31 465 26 464 q 68 493 51 483 q 93 508 82 501 q 113 519 104 514 l 285 519 l 285 21 q 281 6 282 13 q 278 -4 279 0 l 267 -31 q 232 -75 256 -57 l 219 -79 q 204 -83 204 -85 l 194 -83 q 168 -57 183 -69 q 133 -31 153 -44 q 93 -11 111 -19 q 60 0 75 -3 q 54 1 56 0 l 47 1 q 40 2 42 1 q 36 4 39 3 l 32 4 l 21 4 q 17 6 18 4 l 0 6 l -1 4 q -108 -43 -58 -1 q -158 -146 -158 -87 l -158 -151 q -157 -158 -157 -154 l -157 -172 q -154 -186 -154 -183 l -150 -199 q -57 -121 -126 -121 l -54 -121 q -53 -122 -53 -121 l -49 -122 q -47 -124 -47 -122 l -46 -124 q 100 -167 50 -167 l 121 -167 q 167 -156 144 -161 q 208 -143 189 -150 q 319 -108 256 -131 q 465 -54 383 -86 q 468 -52 467 -53 q 471 -50 469 -51 l 476 -44 q 490 -36 482 -43 q 632 135 608 53 l 632 522 l 804 522 l 853 660 l 640 660 l 643 792 q 685 776 661 785 q 740 761 708 768 q 764 757 758 757 q 780 755 774 756 q 789 754 786 754 q 799 755 796 754 q 807 757 803 756 l 814 757 q 935 821 881 771 q 988 939 988 871 q 969 931 981 935 q 943 922 957 926 q 916 913 929 917 q 894 908 903 910 q 869 903 878 906 q 840 901 861 901 l 838 901 q 836 903 836 901 l 829 903 q 826 907 826 903 l 663 950 m 496 772 l 496 207 q 431 26 496 111 q 275 -83 372 -49 q 367 8 326 -53 q 422 129 399 54 q 424 136 422 135 q 428 149 425 138 l 428 751 l 496 772 z "},"G":{"ha":1021,"x_min":8,"x_max":915,"o":"m 503 942 l 506 942 q 517 938 510 938 q 523 936 519 938 q 528 933 526 935 q 536 929 540 929 q 540 927 538 929 q 543 924 543 925 q 561 910 549 922 q 565 907 564 907 q 732 867 646 878 q 774 863 747 865 q 815 861 788 861 l 829 861 q 838 863 836 861 l 861 863 q 868 864 867 863 l 875 864 l 663 694 q 845 587 775 676 q 915 393 915 497 l 915 382 q 913 360 913 374 q 911 347 911 354 q 904 310 904 313 q 725 87 854 176 q 446 -19 596 -3 q 400 -24 429 -19 l 369 -24 q 354 -22 364 -22 q 253 -6 324 -22 q 186 17 211 4 q 32 203 81 69 q 11 294 21 235 q 8 315 8 313 l 8 354 q 10 364 8 360 l 10 372 q 156 663 26 539 q 322 810 251 754 q 503 939 413 881 l 503 942 m 460 500 l 399 474 l 399 457 q 400 449 399 454 l 400 432 q 401 425 400 429 l 401 393 q 400 382 400 389 l 400 371 q 399 360 399 368 q 390 313 397 336 q 372 275 383 290 q 314 213 361 260 q 281 185 303 204 q 247 156 258 165 q 460 26 322 46 l 460 500 m 600 210 q 496 164 564 199 l 496 29 q 603 44 550 24 q 697 96 657 65 q 710 106 699 97 q 723 115 713 107 q 746 135 733 122 q 753 151 753 144 q 754 163 753 158 l 754 172 q 664 204 703 200 q 654 206 656 204 l 644 206 q 636 207 643 206 l 628 207 l 600 210 m 242 681 l 183 592 q 172 554 178 569 q 163 521 165 532 q 157 474 161 510 q 153 428 153 446 l 153 408 q 154 400 153 406 l 154 390 q 176 290 161 333 q 224 196 190 247 l 242 229 l 242 681 m 800 344 q 635 290 713 290 q 607 293 626 290 q 594 297 603 294 q 579 299 585 299 q 524 317 574 300 q 521 319 524 318 q 515 321 518 321 q 509 324 513 321 q 496 331 506 326 l 496 204 q 511 208 494 204 q 526 213 510 208 q 560 221 543 218 l 590 225 q 607 226 601 225 l 636 226 q 650 225 640 225 q 677 222 669 222 q 725 211 685 222 q 769 196 750 204 q 788 231 776 206 q 792 251 789 238 q 797 270 796 264 q 799 281 797 276 l 799 289 q 800 299 799 294 l 800 344 m 546 536 q 532 532 540 532 l 519 528 q 496 517 513 526 l 496 385 q 549 349 513 368 q 607 332 579 339 q 626 328 625 328 l 658 328 q 665 329 660 328 l 672 329 q 792 385 751 344 q 728 483 782 446 q 615 529 675 519 q 590 532 610 529 q 578 533 582 532 l 565 533 l 546 536 m 396 813 l 396 525 l 643 714 l 396 813 z "},"H":{"ha":1078,"x_min":-3,"x_max":969,"o":"m 221 958 l 367 918 q 433 925 382 914 q 454 932 440 928 l 460 932 q 463 933 461 932 l 464 933 q 483 939 471 936 q 503 943 482 939 q 542 947 515 947 l 539 942 q 404 836 458 903 q 350 678 350 769 l 350 301 q 260 118 336 221 q 258 115 260 118 q 255 111 256 113 q 252 108 254 110 q 247 102 250 106 q 242 94 244 99 q 238 86 239 90 q 249 94 244 93 l 254 100 q 260 104 256 100 q 399 282 368 197 q 411 451 411 365 l 411 561 q 413 606 411 576 q 414 651 414 636 q 422 740 414 697 q 629 931 447 868 q 726 953 683 949 l 726 944 q 614 864 654 906 q 560 743 568 815 l 560 582 l 794 772 q 911 651 867 721 q 964 493 958 578 q 965 478 964 488 l 965 461 q 966 447 965 450 q 968 438 967 443 q 968 429 968 432 l 968 401 q 969 389 968 393 l 969 347 q 951 229 969 297 q 899 126 936 172 l 700 -43 q 674 -64 686 -46 q 669 -65 671 -64 q 668 -69 668 -67 l 668 -72 q 667 -74 667 -72 l 667 -76 q 664 -79 665 -76 q 663 -85 663 -82 l 663 -94 q 665 -103 663 -99 q 669 -109 668 -108 q 675 -115 669 -110 l 690 -115 q 707 -118 696 -115 q 714 -119 710 -118 l 722 -119 q 731 -121 726 -119 l 738 -121 q 742 -124 739 -121 l 744 -126 q 747 -130 746 -128 q 749 -133 749 -132 q 750 -135 749 -133 l 750 -137 q 751 -140 750 -139 l 751 -146 q 750 -147 750 -146 l 750 -150 q 748 -153 749 -150 q 735 -169 747 -157 q 713 -182 729 -175 q 700 -187 711 -185 q 694 -189 699 -187 l 689 -189 l 689 -192 q 633 -170 650 -189 q 613 -124 615 -151 q 611 -118 611 -122 l 611 -112 q 613 -96 611 -101 q 617 -79 613 -96 q 629 -46 621 -68 q 646 -17 629 -46 l 754 129 q 790 215 776 158 q 797 275 797 264 q 782 282 793 278 q 765 289 776 286 q 750 294 760 292 l 733 299 q 720 301 729 300 q 704 303 711 303 q 693 304 697 303 l 672 304 q 663 303 668 303 l 654 303 q 644 301 650 301 q 457 221 538 283 l 376 158 q 419 153 386 156 l 464 149 q 485 146 478 146 q 507 143 499 143 q 532 140 526 140 l 574 140 q 582 142 581 140 l 590 142 q 626 149 603 144 q 660 161 639 153 q 664 164 661 161 l 668 168 q 675 174 671 171 q 683 181 679 178 q 692 192 686 183 l 711 175 l 579 -17 l 417 38 q 368 42 422 38 q 310 46 314 46 l 268 46 q 260 44 264 44 q 164 23 213 43 q 97 -37 115 3 q 107 -62 101 -46 q 115 -112 115 -87 l 115 -137 q 96 -151 108 -143 q 75 -158 89 -156 q 43 -141 51 -156 q 35 -114 35 -126 l 35 -110 q 36 -93 35 -101 q 38 -85 36 -90 q 40 -75 38 -83 q 44 -65 43 -67 q 47 -56 44 -64 q 50 -52 49 -56 q 52 -47 51 -49 q 54 -43 53 -46 q 56 -39 56 -40 q 58 -35 57 -37 q 60 -29 60 -32 q 62 -25 60 -26 q 65 -22 64 -24 q 67 -18 67 -19 q 69 -14 67 -17 l 192 135 q 210 192 210 165 l 210 201 q 208 204 208 201 l 208 211 q 206 219 207 213 q 204 229 204 225 l 167 247 q 164 240 165 244 q 160 233 163 236 q 128 206 150 221 q 92 192 107 192 l 89 199 q 88 200 88 199 l 88 207 q 86 208 86 207 l 86 213 q 125 303 86 264 q 215 344 164 342 l 215 364 q 185 421 215 392 q 128 456 158 446 q 121 459 125 458 q 110 460 117 460 q 100 463 103 461 l 92 463 l 81 465 q 72 460 79 461 q 63 458 64 458 q 58 458 61 458 q 54 457 56 457 q 44 454 46 454 q 34 451 36 451 q 24 447 32 450 q 8 439 17 444 q 53 522 8 486 q 143 563 92 554 q 151 564 147 563 l 158 564 q 167 565 165 564 l 175 565 l 189 568 l 189 567 q 188 568 188 567 l 188 575 q 186 576 186 575 l 186 579 q 324 832 186 710 q 285 822 275 822 q 264 818 264 818 l 244 818 q 206 822 243 818 q 187 828 200 825 q 167 832 174 831 q 164 833 165 832 l 161 833 q 160 835 161 833 l 157 835 q 147 839 156 836 q 138 842 144 839 l 117 846 q 114 847 115 846 q 110 847 111 847 q 93 850 104 847 l 76 850 q 72 849 75 849 l 67 849 q 61 847 65 847 q 51 844 53 844 l 14 797 q 11 793 13 793 l 10 793 q 6 790 8 792 q 3 789 4 789 l 0 789 l -3 794 q 53 906 4 868 q 174 954 108 949 q 178 956 175 954 l 194 956 l 221 958 m 557 315 q 581 318 560 315 l 606 322 q 636 326 614 324 q 651 328 646 326 l 682 328 q 700 326 688 326 q 772 314 724 324 q 790 311 781 311 l 807 307 l 804 471 q 774 460 794 467 q 711 446 753 454 q 681 444 701 444 q 619 451 672 444 q 588 458 608 454 q 557 468 578 461 l 557 315 m 692 649 l 557 531 l 563 503 q 594 485 575 490 q 631 474 613 479 q 645 469 639 471 q 667 468 651 468 l 694 468 q 703 469 700 468 q 708 471 706 469 q 713 471 711 471 q 724 472 717 471 q 737 475 732 474 q 756 481 742 476 q 797 500 775 488 q 721 638 794 553 q 708 642 718 639 q 694 646 699 646 l 692 649 z "},"I":{"ha":779,"x_min":17,"x_max":714,"o":"m 207 944 l 238 944 q 282 939 246 942 l 326 935 q 349 932 335 935 q 369 928 363 929 q 414 926 385 926 l 428 929 q 464 929 436 926 q 500 935 476 932 l 501 935 l 503 936 q 519 939 508 936 q 536 942 525 939 q 428 740 442 838 l 428 718 q 426 710 426 714 l 426 704 q 425 699 425 703 l 425 688 q 422 661 422 668 l 422 606 q 429 506 422 569 q 453 331 435 447 l 460 307 l 460 281 q 458 274 458 279 l 458 268 q 457 261 457 264 q 440 210 456 235 q 410 169 432 189 q 368 153 392 161 q 347 147 361 151 q 325 140 332 142 q 321 140 324 140 q 315 138 318 139 q 307 138 313 138 l 290 138 l 297 131 q 306 122 301 129 l 322 106 q 368 69 358 76 q 422 43 394 51 q 439 39 436 39 q 444 39 442 39 q 449 38 447 38 l 468 38 q 481 40 469 38 q 490 43 482 40 q 495 46 492 44 q 500 48 499 47 q 504 51 501 49 q 508 53 507 53 q 513 57 510 54 q 517 61 517 60 q 520 65 518 63 q 522 69 522 68 q 526 82 522 69 l 531 94 q 533 107 531 99 q 535 114 533 110 l 535 122 q 536 131 535 126 l 536 156 l 482 608 l 490 761 q 563 885 510 829 q 692 942 617 942 l 711 944 l 714 936 q 708 933 711 935 q 703 929 706 931 q 699 926 701 928 q 692 924 696 924 q 686 922 689 924 q 681 919 683 921 q 647 898 660 908 q 625 864 633 888 q 624 860 625 863 q 622 854 622 858 l 622 850 q 621 842 622 847 q 617 831 619 838 l 617 825 q 613 804 615 818 q 611 786 611 797 l 611 774 q 614 761 611 769 q 615 758 614 760 l 615 756 q 616 752 615 754 q 618 743 617 750 q 619 739 618 742 l 619 735 l 668 367 q 669 357 668 358 l 669 336 q 671 332 669 335 l 671 292 q 669 276 669 286 l 669 261 q 668 246 668 256 q 624 94 660 169 q 499 -4 589 18 q 483 -7 494 -4 l 467 -11 q 452 -12 461 -11 q 439 -15 443 -14 l 428 -15 q 418 -17 419 -15 l 403 -17 q 397 -15 401 -15 l 385 -15 q 375 -14 381 -14 l 367 -14 l 167 49 l 164 46 l 160 46 q 156 47 158 46 l 144 47 q 140 49 143 47 l 138 49 q 63 19 99 49 q 26 -24 38 0 l 26 -21 q 24 -17 25 -19 q 22 -11 22 -14 l 22 -10 q 19 -1 21 -4 q 17 11 17 3 q 57 96 17 57 q 142 151 97 135 q 156 157 146 154 q 167 160 158 157 q 183 165 176 164 q 194 167 190 167 l 275 169 q 278 167 275 167 q 281 168 279 167 q 290 172 282 169 q 294 175 292 174 q 299 178 297 176 q 309 188 301 181 q 319 199 317 196 q 324 213 321 203 l 324 226 q 326 242 324 231 l 326 261 q 328 267 326 264 l 328 285 q 326 299 326 289 l 326 313 q 325 326 325 317 q 210 468 303 468 l 199 471 q 149 460 182 467 q 124 453 140 457 q 111 449 119 451 q 97 444 103 447 q 167 540 111 507 q 285 571 217 571 q 414 867 285 738 q 404 862 411 865 q 392 856 397 858 q 374 849 386 853 q 332 838 361 846 q 293 835 307 835 q 249 838 279 835 q 226 842 242 839 q 203 844 211 844 q 181 847 194 844 q 161 850 172 847 q 109 825 129 842 q 72 778 89 808 q 113 883 75 835 q 207 942 151 932 l 207 944 z "},"J":{"ha":779,"x_min":-62,"x_max":778,"o":"m 229 947 l 244 947 q 254 943 249 943 l 274 943 q 278 942 275 942 l 288 942 l 531 893 q 536 889 532 889 l 544 889 q 550 886 547 886 l 557 886 q 617 893 568 886 q 646 900 626 896 q 660 906 651 903 q 674 911 669 910 q 685 915 678 913 q 694 918 692 918 q 715 926 706 925 q 721 929 718 928 q 726 931 724 931 q 737 935 728 931 q 757 942 746 940 l 778 944 l 778 925 q 776 922 776 924 l 776 918 q 775 915 775 917 l 775 910 q 649 665 669 815 l 649 301 q 646 261 649 286 q 640 224 646 249 q 486 -50 608 72 q 213 -172 364 -172 l 199 -172 l 32 -124 q 14 -126 25 -124 q 0 -135 8 -131 l -7 -142 q -18 -154 -15 -150 q -23 -160 -21 -158 q -26 -164 -25 -162 q -28 -168 -26 -165 q -31 -172 -31 -171 q -32 -176 -31 -174 q -35 -180 -33 -178 q -37 -183 -37 -182 l -40 -186 l -40 -189 l -43 -192 l -62 -186 q -10 -69 -46 -119 q 94 -3 25 -18 q 193 -15 128 -8 q 242 -25 208 -18 q 267 -31 250 -26 q 290 -37 275 -33 q 361 51 361 -33 l 361 60 q 360 69 360 64 l 360 79 q 357 88 358 81 q 354 103 356 96 q 351 116 353 110 q 349 128 350 122 q 347 138 347 135 q 347 140 347 139 q 345 143 346 142 q 344 148 344 144 q 342 156 343 151 q 100 307 251 307 q 207 350 143 350 q 236 347 215 350 q 268 342 247 347 q 274 342 271 342 q 278 339 276 340 q 286 338 281 338 q 292 338 289 338 q 297 335 294 336 q 304 333 299 333 l 304 353 q 250 444 304 401 q 147 489 200 482 q 115 493 136 493 q 208 538 144 533 q 213 539 210 538 l 236 539 q 247 538 240 538 l 258 538 q 271 536 263 536 q 321 525 288 532 q 378 672 336 608 q 490 783 415 729 q 495 786 493 785 q 499 788 497 788 q 503 791 500 789 q 507 794 506 793 q 514 799 508 796 q 522 804 519 803 q 527 807 525 806 q 531 809 529 808 q 535 812 532 810 q 540 815 538 814 q 546 819 542 815 q 554 824 550 819 l 393 775 l 324 781 l 149 838 l 129 838 q 90 826 110 832 q 54 804 69 819 l 54 801 q 53 797 53 800 l 53 794 q 51 790 51 793 l 51 788 q 49 779 49 785 l 49 769 q 50 768 49 769 l 50 764 q 51 763 50 764 l 51 761 q 71 767 56 764 q 92 769 86 769 l 97 769 q 104 768 99 768 l 111 768 q 117 766 113 767 q 126 764 122 765 q 135 761 131 763 l 140 756 q 143 751 140 753 q 147 746 146 749 q 149 740 149 743 q 151 735 149 738 q 157 721 153 732 q 158 714 157 718 l 158 708 q 139 666 158 683 q 89 649 119 649 l 85 649 q 82 650 83 649 q 79 650 81 650 q 67 654 79 650 l 64 654 q 61 656 63 654 l 57 656 q 56 657 57 656 l 54 657 q 26 690 35 674 q 10 728 17 706 q 10 732 10 731 q 8 736 8 735 q 7 743 7 738 q 7 747 7 746 q 6 751 6 750 l 6 758 q 6 773 6 768 q 8 781 7 778 q 10 786 8 783 q 10 789 10 788 q 32 839 17 817 q 69 881 42 853 q 229 944 143 940 l 229 947 m 668 864 q 531 753 576 813 q 457 594 481 686 l 442 86 q 438 61 440 72 l 433 40 q 431 30 431 32 q 429 24 431 28 q 426 18 428 21 q 424 8 424 10 q 419 0 422 3 q 310 -97 364 -65 q 435 -37 379 -90 q 500 86 492 15 l 517 611 q 572 746 535 685 q 668 861 610 807 l 668 864 z "},"K":{"ha":1022,"x_min":6,"x_max":982,"o":"m 485 950 l 485 947 q 463 942 472 944 q 449 938 454 940 l 444 938 q 336 918 378 918 l 303 922 q 242 936 282 929 q 223 938 238 936 q 206 943 208 940 l 194 943 q 175 947 181 943 l 164 944 l 163 944 q 160 943 161 943 l 156 943 q 67 892 108 935 q 11 800 26 849 q 6 780 7 786 q 6 761 6 774 l 6 756 q 7 754 6 754 l 7 747 q 8 746 7 746 l 8 743 l 13 743 q 19 746 17 743 l 19 747 l 22 747 l 22 749 q 26 750 25 749 l 28 751 l 29 751 q 32 756 29 753 l 39 763 q 46 772 39 763 l 61 788 l 72 799 l 74 799 q 84 803 75 799 q 100 811 93 808 q 114 817 110 817 q 116 817 114 817 q 122 819 118 818 q 126 821 125 819 l 129 821 l 135 821 q 144 818 138 819 q 156 817 151 817 l 158 817 q 161 815 160 815 q 176 813 172 813 l 192 813 q 219 814 213 813 q 319 838 261 815 q 356 854 332 843 q 414 881 379 865 q 301 756 346 822 q 242 594 257 690 q 232 598 240 594 q 213 606 224 601 q 195 609 207 608 q 179 611 183 610 l 169 611 q 115 601 138 611 q 67 565 92 590 q 59 552 60 558 q 51 539 58 546 q 47 527 49 529 q 46 522 46 525 l 46 517 q 60 521 57 519 q 81 529 64 522 l 86 529 q 93 531 90 529 l 113 531 q 215 482 175 531 q 258 371 257 435 q 225 379 243 376 q 208 382 211 382 q 197 384 201 383 q 190 385 193 385 l 175 385 q 78 304 78 385 l 89 301 q 110 313 104 311 q 125 317 115 314 l 131 317 q 135 318 133 317 l 140 318 q 144 317 142 317 l 154 317 q 165 312 164 314 q 169 310 167 310 q 189 286 179 303 q 200 258 199 269 l 200 247 q 201 243 200 244 l 201 232 q 200 225 200 228 l 200 218 q 199 211 199 214 q 193 192 196 200 q 188 179 190 185 q 175 156 182 163 l 46 0 l 46 -4 q 51 -17 46 -11 l 78 -17 l 224 26 q 240 29 226 26 q 248 30 243 29 q 260 32 253 31 q 274 33 269 32 l 286 33 q 300 35 296 33 l 313 35 q 345 33 324 35 q 376 29 367 31 q 408 26 389 29 q 440 19 426 24 q 465 14 454 17 q 482 8 475 11 q 563 -17 513 1 l 718 153 q 835 -17 765 53 l 847 -17 l 982 140 l 958 158 l 921 126 l 889 169 q 869 206 879 181 l 849 243 q 638 465 758 401 l 872 651 l 729 821 l 718 818 q 490 619 583 683 l 490 694 q 507 769 496 729 q 520 817 514 797 q 531 850 526 836 l 579 947 l 546 944 q 529 904 540 935 l 513 863 q 506 844 510 856 q 497 821 501 833 q 489 797 493 808 q 483 778 485 786 q 471 736 475 750 q 465 713 468 722 q 460 697 463 704 l 460 347 q 454 323 457 332 q 451 311 451 314 q 448 297 449 300 q 442 281 447 294 q 436 261 438 268 q 433 250 435 254 q 350 163 397 193 q 249 106 293 125 q 240 101 246 103 q 231 96 233 99 q 214 88 222 93 q 193 76 206 83 q 168 62 181 69 q 144 47 156 54 q 124 35 132 39 q 147 56 135 46 q 172 76 158 67 q 197 97 189 90 q 240 136 211 111 q 316 201 285 174 q 367 247 347 229 q 372 254 369 250 q 378 263 374 258 q 381 268 378 265 q 404 344 404 318 q 400 384 401 367 q 399 413 399 401 l 399 425 q 397 429 397 426 l 397 440 q 396 451 396 446 q 394 464 394 458 q 394 472 394 469 q 393 493 393 483 q 393 514 393 503 l 393 550 q 394 557 393 547 q 396 589 394 567 q 400 639 397 615 q 406 682 403 663 q 422 774 415 750 q 485 950 444 871 m 511 353 l 511 350 q 667 231 597 339 q 692 189 683 203 l 692 185 q 690 181 690 183 q 688 171 688 169 q 686 163 688 165 q 682 153 685 161 q 680 147 682 149 q 675 135 678 144 q 663 125 668 129 q 656 118 658 121 q 635 107 638 108 q 472 144 553 140 q 464 146 467 144 l 456 146 q 439 149 444 146 l 393 146 q 490 347 490 251 l 494 347 q 497 349 496 347 l 507 349 q 511 353 508 349 m 617 683 l 708 582 l 711 563 l 488 393 l 488 568 l 617 683 z "},"L":{"ha":903,"x_min":0,"x_max":875,"o":"m 686 950 l 686 947 l 665 947 q 569 926 624 947 q 490 869 522 907 q 443 719 447 800 q 442 706 442 713 q 442 692 442 699 q 442 666 442 682 q 444 628 443 650 q 452 574 449 606 q 458 500 456 542 q 463 439 463 476 l 463 415 q 461 410 461 414 l 461 401 q 264 78 431 193 l 264 82 q 265 85 264 83 l 265 90 q 267 93 265 92 l 267 94 q 342 214 314 160 q 396 350 374 276 l 396 436 q 395 453 396 446 q 394 468 394 460 q 394 487 394 476 q 392 517 393 497 q 390 544 390 532 q 389 567 389 557 q 385 663 385 596 q 386 699 385 681 q 389 736 388 718 q 397 783 394 758 q 404 814 401 801 q 410 835 407 826 l 496 932 l 490 939 q 488 938 489 938 q 486 936 488 938 q 471 931 476 931 q 417 909 435 917 q 388 901 399 901 q 369 899 376 900 q 358 899 361 899 l 353 899 q 350 900 350 899 l 342 900 q 336 904 338 900 l 189 944 l 179 944 q 168 943 176 943 l 147 939 q 44 882 89 928 q 0 781 0 838 l 0 775 l 3 769 l 6 769 q 14 774 10 769 l 15 774 q 18 775 17 774 l 19 775 q 33 791 26 785 q 42 803 39 797 q 47 810 47 808 q 50 815 47 813 l 65 831 l 68 831 q 76 832 75 831 l 103 832 q 111 831 107 831 l 117 831 q 129 828 125 828 l 150 824 q 171 817 160 824 q 183 813 178 815 q 199 810 188 810 l 201 810 q 206 808 203 808 l 218 808 q 222 807 219 807 l 229 807 q 254 808 249 807 q 279 813 271 810 l 317 825 q 334 831 325 828 q 353 840 343 835 q 244 592 244 732 l 244 578 q 246 567 244 574 q 249 558 247 560 l 249 551 q 250 546 249 547 l 250 542 l 218 539 q 147 525 168 535 q 94 479 114 511 l 103 482 l 118 479 q 127 478 121 479 q 142 476 133 478 q 169 471 168 472 q 232 435 194 463 q 261 385 261 411 l 261 364 l 251 364 q 239 367 250 364 l 224 367 q 219 368 221 367 l 208 368 q 169 360 185 367 q 140 339 149 351 q 154 337 146 339 q 167 333 163 335 q 181 328 175 331 q 192 324 188 325 q 235 296 210 317 q 244 283 240 289 q 250 275 247 278 q 255 269 256 269 q 260 253 254 268 q 263 236 260 250 q 264 228 263 231 l 264 221 q 263 212 264 218 q 261 196 263 206 q 260 186 261 193 q 254 171 258 179 q 250 157 251 160 q 246 147 249 154 q 235 126 240 136 l 103 -6 l 124 -17 q 167 3 142 -7 q 228 24 193 13 q 342 51 303 47 q 369 55 357 54 q 389 57 382 56 q 417 59 404 58 q 436 60 429 60 l 450 60 q 463 58 453 58 l 476 58 q 490 57 479 57 q 711 -37 638 36 l 875 118 l 847 138 q 845 134 847 136 q 843 131 843 132 q 833 118 842 129 l 828 113 q 826 110 826 111 q 824 107 825 108 q 819 106 821 106 q 818 106 818 106 l 810 100 q 800 102 806 100 q 794 107 794 104 l 792 107 l 771 124 q 758 133 764 129 q 749 140 751 138 q 732 147 740 142 q 721 151 725 150 q 714 153 717 151 q 694 158 703 156 q 681 164 686 161 q 622 175 647 172 q 568 178 597 178 q 547 177 560 178 q 519 175 535 176 q 431 156 469 165 q 367 140 393 147 l 482 247 q 563 369 536 297 q 589 519 592 449 l 576 813 q 689 904 589 897 q 697 910 694 907 q 703 914 700 913 q 714 929 711 922 q 701 940 711 939 q 697 944 701 943 q 686 950 692 944 z "},"M":{"ha":1319,"x_min":-37,"x_max":1228,"o":"m 619 961 q 661 931 635 951 q 679 915 667 925 q 697 899 692 904 q 699 892 697 896 q 703 889 701 889 q 724 842 710 872 q 738 794 731 826 l 967 958 l 1117 856 q 1144 881 1125 865 q 1182 897 1158 889 l 1186 897 q 1189 899 1188 897 l 1190 899 l 1190 885 q 1189 881 1189 883 l 1189 872 q 1188 869 1188 871 l 1188 864 q 1182 856 1183 860 l 1176 850 q 1139 772 1151 818 l 1139 161 l 1168 110 q 1176 110 1172 108 q 1183 113 1182 111 q 1190 117 1185 115 q 1197 121 1194 119 q 1201 125 1199 122 l 1206 129 l 1228 110 l 1096 -14 l 1082 -14 q 1010 48 1035 11 q 979 146 986 85 l 979 783 l 881 853 q 876 849 879 849 l 874 849 l 872 847 q 865 841 868 843 q 858 838 861 839 l 856 835 l 856 536 l 939 536 l 850 417 l 850 183 q 871 188 850 183 q 886 199 876 190 l 910 183 l 683 -14 q 617 58 663 11 q 536 124 586 88 q 563 151 553 135 q 575 182 574 168 l 575 186 q 576 189 575 188 l 576 417 l 417 417 l 417 146 q 378 8 408 67 q 272 -75 349 -51 q 267 -76 271 -75 l 260 -76 q 254 -78 258 -76 l 224 -78 q 188 -75 213 -78 l 150 -71 q 111 -64 138 -68 q 75 -62 99 -62 q 15 -77 43 -62 q -32 -132 -12 -92 q -33 -128 -32 -131 l -33 -122 q -36 -111 -33 -119 l -36 -99 q -37 -93 -36 -97 l -37 -89 q 0 0 -37 -42 q 88 50 40 36 q 96 53 88 50 q 100 54 97 53 q 103 54 101 54 q 110 55 107 54 q 115 57 113 56 q 118 57 117 57 q 261 146 243 57 l 261 172 q 164 353 261 286 q 139 361 158 357 q 126 364 131 364 q 113 367 115 367 q 108 368 111 367 l 89 368 q 82 367 85 367 l 75 367 q 68 365 71 365 q 43 360 61 364 q 31 356 33 356 q 26 353 29 356 q 19 350 22 351 l 19 351 l 18 351 l 18 356 l 17 356 l 17 358 q 122 478 17 442 q 136 482 126 479 l 149 486 q 162 490 157 489 q 175 490 167 490 q 211 658 182 589 q 324 789 243 736 q 619 958 476 890 l 619 961 m 414 804 q 367 754 397 789 q 336 697 344 722 l 336 175 q 308 102 336 136 q 247 51 279 68 q 253 49 250 51 q 257 46 256 47 q 269 43 265 43 q 272 43 271 43 q 275 41 274 42 q 279 40 276 40 l 299 40 q 328 50 294 40 q 367 83 354 57 q 368 86 367 85 l 368 88 q 369 90 368 89 l 369 92 q 372 98 371 94 q 374 102 374 101 q 381 131 374 103 q 382 139 381 135 l 382 700 q 383 713 382 706 q 386 725 385 719 q 389 732 388 731 q 399 768 392 744 q 414 801 401 778 l 414 804 m 738 417 l 738 178 q 744 132 738 149 q 767 94 753 110 q 795 105 783 97 q 818 124 807 113 l 818 417 l 738 417 m 511 847 l 503 847 q 499 844 501 844 l 497 844 l 496 843 l 492 843 q 486 840 489 840 l 482 840 q 447 793 472 831 q 419 740 429 767 l 419 450 l 482 542 l 576 542 l 576 781 q 555 818 575 797 q 511 844 535 839 l 511 847 m 818 797 l 735 738 l 735 536 l 818 536 l 818 797 z "},"N":{"ha":1107,"x_min":-57,"x_max":1039,"o":"m 649 932 l 714 918 q 899 796 839 857 q 979 597 979 711 q 976 576 976 583 q 958 496 967 525 q 950 467 956 486 q 942 436 944 447 l 838 238 l 757 132 q 783 135 761 132 q 839 142 832 142 q 851 143 846 142 l 874 143 q 883 142 875 142 l 904 142 q 925 139 918 139 l 946 135 q 985 126 965 133 l 1010 158 l 1039 143 l 944 -17 q 911 -8 928 -15 q 894 -6 906 -8 q 878 -1 883 -3 q 869 -1 875 -1 q 860 0 863 0 l 843 0 q 810 3 821 3 q 707 -18 750 3 q 632 -97 660 -42 l 614 -92 l 635 -6 q 719 161 678 64 q 786 342 764 265 q 679 389 754 374 q 668 390 672 389 l 651 390 q 646 389 650 389 l 633 389 q 578 372 608 389 q 528 339 551 363 l 528 161 q 435 -25 518 56 q 242 -106 351 -106 l 210 -106 l 40 -56 q 38 -54 39 -54 l 35 -54 q -8 -62 8 -54 q -50 -79 -32 -71 l -51 -81 l -53 -81 q -57 -83 -54 -81 q 10 2 -39 -33 q 113 38 58 38 l 126 40 q 149 33 132 36 q 176 29 157 32 q 193 26 188 26 q 199 26 196 26 q 203 24 201 25 q 211 24 204 24 q 232 21 225 21 l 253 21 q 309 34 281 21 q 347 72 338 47 l 347 78 q 349 82 347 79 l 349 90 q 350 94 349 92 l 350 106 q 304 193 350 149 q 215 239 264 232 l 204 239 l 199 242 q 183 236 193 238 q 172 235 174 235 q 167 233 169 235 q 162 231 165 232 q 153 229 158 229 l 150 229 q 147 228 149 228 l 146 228 q 143 226 144 226 l 140 235 q 142 238 140 236 l 142 239 q 143 242 142 240 l 143 243 l 146 246 q 147 250 146 247 l 149 251 l 149 253 q 250 293 189 293 l 256 293 q 261 292 257 292 l 276 292 q 289 289 285 289 l 301 285 l 301 299 q 300 304 300 300 q 294 315 300 308 q 290 324 290 328 q 288 328 290 325 q 285 332 286 331 q 283 335 285 333 q 280 338 281 338 q 272 346 279 339 l 267 351 q 262 358 264 353 q 253 364 260 363 q 248 368 251 365 q 243 372 244 371 q 240 374 242 372 q 236 375 238 375 q 226 381 229 378 q 220 385 222 383 q 215 386 218 386 q 192 399 204 392 q 182 401 190 399 q 164 404 168 404 l 163 404 q 160 403 161 403 l 153 403 q 150 401 151 401 l 146 401 l 129 397 q 113 396 124 396 q 111 397 113 396 l 110 397 q 106 399 107 397 q 104 401 106 400 l 103 401 q 100 404 100 401 q 136 442 115 429 q 179 457 157 456 l 189 457 q 236 450 201 457 q 257 444 240 449 q 268 441 267 442 q 288 433 269 440 q 299 431 296 431 q 303 443 303 435 q 304 450 303 444 l 304 457 q 226 547 276 511 q 115 582 175 582 l 103 585 q 111 595 108 590 q 121 606 114 600 q 138 611 124 608 l 154 615 q 160 617 156 615 q 167 617 164 617 q 189 619 174 617 l 199 619 q 304 600 240 619 l 304 721 l 649 932 m 496 786 l 447 757 l 447 189 q 411 72 447 125 q 342 6 383 29 l 344 6 q 346 4 344 4 l 354 4 q 357 3 354 3 l 361 3 q 432 32 396 3 q 478 96 460 60 q 479 99 478 97 l 479 101 q 482 107 479 104 q 486 132 485 122 q 489 158 486 122 l 493 213 q 494 233 493 219 l 494 253 q 496 274 494 267 l 496 786 m 821 571 q 771 538 808 560 q 671 511 707 511 q 622 518 643 511 q 610 524 619 521 q 597 528 601 526 q 585 534 593 531 q 571 540 576 538 q 551 553 565 543 l 531 565 l 531 385 q 590 404 550 393 q 649 411 629 411 q 692 407 675 411 q 715 402 708 403 q 739 397 722 401 q 753 393 756 393 q 768 388 758 392 q 783 383 774 386 q 797 376 793 379 q 824 511 824 433 l 824 518 q 822 525 822 519 l 822 547 q 821 554 821 549 l 821 571 m 528 786 l 528 625 q 578 561 543 585 q 650 536 610 543 l 678 536 q 761 563 710 536 q 813 606 792 579 q 736 712 796 665 q 610 775 676 758 q 576 781 604 778 q 546 783 554 783 l 528 786 z "},"O":{"ha":1050,"x_min":-6,"x_max":956,"o":"m 490 944 q 513 940 497 940 q 524 939 517 940 q 535 936 532 938 q 579 928 550 935 q 838 796 724 893 q 956 539 956 694 q 914 379 956 450 q 821 239 876 315 l 668 106 l 571 40 l 431 -14 q 424 -15 429 -14 l 417 -15 q 408 -17 415 -15 l 371 -17 q 149 54 246 -17 q 14 247 47 128 l -6 399 l 6 503 l 49 651 l 490 944 m 608 401 q 606 399 607 397 l 604 399 q 601 397 603 397 q 524 368 564 392 q 471 307 485 340 l 471 83 q 654 154 563 93 q 778 307 742 213 q 742 356 768 340 q 644 396 703 389 q 614 399 622 399 l 608 401 m 376 794 l 376 431 q 367 376 376 401 q 346 332 360 363 q 343 328 343 329 l 343 326 l 342 325 l 232 204 q 324 131 274 157 q 436 97 374 106 l 436 794 l 376 794 m 250 718 l 244 718 q 242 715 243 714 l 240 714 l 239 714 q 236 713 238 713 l 233 713 q 229 709 231 710 q 226 708 228 708 q 164 604 181 644 q 125 467 128 519 q 124 439 124 457 q 128 389 124 439 q 142 336 132 371 l 146 324 q 152 311 149 319 q 164 285 156 303 q 183 250 172 267 q 210 218 192 239 q 239 260 228 238 q 250 307 250 283 l 250 718 m 778 592 q 731 557 761 575 q 664 531 708 547 q 654 529 660 531 q 646 528 649 528 q 611 525 628 525 l 600 525 q 593 526 597 525 q 588 526 589 526 q 565 531 583 526 q 474 574 517 542 l 474 371 q 521 399 489 382 q 571 418 532 406 q 594 424 574 419 q 607 425 603 424 l 629 425 q 639 424 631 424 q 660 420 653 421 q 694 411 668 419 q 728 396 706 406 q 789 353 760 381 q 800 376 799 368 l 804 389 q 806 400 804 393 q 808 411 807 407 l 808 421 q 810 431 808 426 l 810 439 q 807 469 810 447 q 804 486 807 475 q 801 501 804 492 q 798 516 799 511 q 794 532 797 521 q 781 575 794 535 q 778 589 778 583 l 778 592 m 471 786 l 471 643 q 568 563 481 585 q 581 559 579 560 q 593 558 583 558 q 614 557 603 557 l 619 557 q 624 558 621 557 l 635 558 q 638 560 636 558 l 640 560 q 754 625 718 574 q 653 720 718 676 q 528 778 589 764 q 503 782 521 779 q 492 783 496 782 l 479 783 l 471 786 z "},"P":{"ha":1050,"x_min":3,"x_max":936,"o":"m 675 950 l 686 950 q 850 814 804 865 q 936 625 926 729 l 936 156 l 729 -17 q 668 4 708 -8 q 638 14 658 7 q 607 22 628 18 q 560 33 592 28 q 549 37 557 35 q 538 39 540 39 q 514 43 535 39 l 511 -192 l 272 -192 l 272 67 l 204 63 q 179 53 197 60 q 154 47 172 51 q 136 42 149 46 q 117 36 124 39 q 79 24 110 33 q 6 -3 54 14 l 6 0 l 4 0 l 4 1 l 3 1 l 3 10 q 4 13 3 11 q 6 17 6 15 q 21 43 11 33 l 46 68 q 55 76 51 74 q 65 83 58 78 q 78 94 72 89 q 272 192 160 160 l 272 204 q 201 382 272 296 q 46 500 136 463 q 58 508 50 503 q 70 517 65 514 q 90 532 75 521 l 136 565 q 171 589 147 572 q 204 613 182 597 q 239 638 222 628 q 272 663 256 653 l 272 669 q 274 678 272 676 l 274 697 q 275 703 274 700 l 275 725 q 274 731 274 726 q 244 824 272 776 q 161 872 217 871 q 60 850 111 874 l 60 856 q 61 860 60 857 l 61 864 q 63 868 61 865 q 65 874 64 871 q 67 878 67 876 q 192 940 132 925 q 213 943 199 940 q 224 944 219 943 l 235 944 q 285 938 250 944 q 358 904 328 924 q 433 778 418 844 l 474 813 l 476 944 l 511 944 l 511 835 l 675 950 m 474 761 l 433 729 l 433 -169 l 474 -169 l 474 761 m 603 350 q 553 331 586 346 q 511 299 535 322 l 511 189 q 781 107 656 154 l 781 288 q 774 299 779 292 q 761 314 769 306 q 760 315 761 314 l 758 315 l 758 317 q 757 318 757 317 q 715 335 736 329 q 672 344 693 340 q 664 346 669 344 l 654 346 q 646 347 653 346 l 638 347 l 603 350 m 511 350 q 638 379 599 379 q 672 376 647 379 q 690 374 683 374 q 699 372 693 374 q 708 369 706 371 q 743 357 719 365 q 761 350 749 354 q 769 347 764 349 q 778 342 775 344 l 778 536 q 692 499 753 514 q 671 494 685 497 q 649 493 664 493 l 638 493 q 631 494 635 493 q 625 494 626 494 q 603 499 621 494 q 511 533 571 506 l 511 350 m 269 611 l 169 546 l 269 471 l 269 611 m 579 818 l 568 818 q 564 815 567 815 l 561 815 q 533 805 549 814 q 511 783 517 796 l 511 592 q 632 528 553 528 q 682 535 640 528 q 708 542 690 538 q 733 553 717 546 q 778 579 750 561 l 778 600 q 686 754 778 667 q 676 763 682 757 q 672 767 675 764 q 667 769 669 769 q 649 783 660 775 q 645 787 649 785 q 642 789 642 789 q 631 793 643 789 q 624 799 626 797 q 614 803 621 800 q 610 806 614 804 q 606 807 607 807 q 596 810 604 807 q 579 815 593 813 l 579 818 z "},"Q":{"ha":1078,"x_min":3,"x_max":1007,"o":"m 490 932 q 503 928 499 929 q 517 928 508 928 q 788 830 672 906 q 944 625 903 754 q 953 581 947 610 q 954 565 953 569 l 954 550 q 956 536 954 540 l 956 522 q 951 472 956 493 q 942 425 950 460 q 932 401 939 413 q 922 376 932 397 q 911 353 918 368 q 899 328 907 346 l 783 194 l 953 67 l 982 86 l 1007 63 l 867 -62 l 660 89 q 553 25 608 47 q 496 4 518 10 q 438 -7 463 -6 q 400 -12 433 -8 q 382 -14 388 -12 l 351 -14 q 313 -9 339 -12 q 235 8 286 -6 q 161 46 189 26 q 38 195 74 107 q 3 379 3 283 q 4 422 3 407 q 8 446 6 431 q 11 468 11 461 q 21 525 11 457 l 21 533 q 22 538 21 536 q 24 543 24 540 l 60 649 l 490 932 m 665 393 l 635 393 q 543 368 581 386 q 474 307 499 347 l 474 81 q 479 78 475 78 l 486 78 q 661 151 574 78 q 781 307 749 225 q 731 358 760 336 q 665 390 701 381 l 665 393 m 385 789 l 382 404 q 369 357 382 392 q 360 339 361 343 q 355 328 358 335 q 349 317 351 321 l 346 314 q 342 310 343 311 q 339 301 342 308 l 238 204 q 382 100 288 133 q 406 93 401 93 q 431 92 415 92 l 433 92 l 435 93 l 439 93 l 440 94 l 442 94 l 442 789 l 385 789 m 253 708 l 186 640 q 157 567 176 615 q 139 497 143 521 q 135 471 135 474 l 135 433 q 136 421 135 425 q 160 315 144 354 q 215 218 179 267 q 241 256 229 232 q 253 304 253 279 l 253 708 m 781 585 q 663 525 735 539 q 626 519 635 519 l 614 519 q 482 563 540 519 l 476 571 l 476 364 q 549 405 514 390 q 628 419 585 419 l 638 419 q 649 418 642 418 l 660 418 q 674 415 664 417 q 689 414 683 414 q 706 411 700 411 q 742 388 718 401 q 754 378 750 379 q 763 374 758 376 q 768 368 767 371 q 781 358 776 360 q 789 353 785 357 q 794 347 793 350 q 797 353 796 350 q 799 359 799 357 q 801 369 799 361 q 808 413 808 404 q 810 425 808 421 l 810 449 q 807 474 810 457 q 807 479 807 476 q 806 485 806 483 q 796 535 804 507 q 789 558 793 543 q 781 582 788 567 l 781 585 m 474 640 q 521 578 481 601 q 597 554 561 554 l 619 554 q 629 556 625 554 q 721 582 668 556 q 740 601 728 588 q 757 622 753 615 q 474 778 664 764 l 474 640 z "},"R":{"ha":1083,"x_min":19,"x_max":1033,"o":"m 253 956 l 235 953 l 222 953 q 198 949 204 950 q 182 946 192 949 q 140 931 158 939 q 110 915 121 922 q 63 861 79 897 l 75 861 q 81 863 79 861 l 86 863 q 97 863 92 863 q 108 865 101 864 q 137 874 126 869 q 153 881 147 878 l 158 878 l 168 878 q 235 851 200 878 q 275 797 267 828 l 275 665 l 51 511 q 63 506 57 506 q 207 394 146 469 q 275 229 275 314 l 275 199 l 129 129 q 88 93 106 108 q 58 68 71 78 q 19 3 29 38 l 43 0 q 147 43 96 28 q 263 65 218 63 q 271 67 269 65 l 319 67 q 446 39 367 67 q 554 -26 514 14 l 571 -26 l 714 126 l 692 146 l 663 118 l 519 175 l 519 422 q 661 363 597 422 q 746 238 725 303 l 794 86 q 803 69 800 78 q 811 53 808 61 q 844 7 821 33 q 893 -17 865 -15 l 1033 106 l 1013 129 l 979 106 l 947 143 l 872 342 q 858 368 864 361 q 849 384 853 378 q 843 393 846 390 q 823 421 832 408 q 807 442 814 433 l 692 542 l 886 675 l 692 950 l 444 783 q 418 844 436 815 q 375 897 400 874 q 319 936 350 921 q 253 956 288 951 m 482 775 l 482 178 l 442 186 l 442 746 l 482 775 m 582 832 l 740 606 l 522 460 l 522 792 l 582 832 m 275 628 l 275 474 q 226 518 240 507 q 200 539 208 531 q 172 560 182 550 l 275 628 z "},"S":{"ha":1107,"x_min":0,"x_max":1014,"o":"m 396 958 l 671 856 l 703 915 l 732 901 l 597 654 l 625 654 q 719 642 657 651 q 916 553 822 622 q 1013 371 1010 483 q 960 219 1014 293 q 850 103 911 154 l 651 -17 l 638 -17 l 465 54 l 272 -17 q 244 -22 264 -19 l 214 -26 q 203 -28 207 -26 l 192 -28 q 182 -29 183 -28 l 172 -29 q 67 -6 124 -29 q 3 75 18 15 q 0 83 1 79 l 0 107 q 124 246 0 200 q 181 258 151 256 l 215 261 q 238 258 219 258 l 250 258 q 281 256 258 256 q 297 254 286 254 l 331 250 l 353 293 q 344 289 351 289 l 329 289 q 325 288 328 288 l 293 288 q 283 288 286 288 q 275 290 279 289 q 269 290 271 290 q 35 460 76 311 l 35 463 q 33 464 33 463 l 33 471 q 32 472 32 471 l 32 476 q 64 565 32 532 q 146 622 101 606 q 182 731 154 676 q 244 818 210 786 l 396 958 m 118 126 q 60 76 72 111 q 57 68 57 74 l 57 60 q 58 51 57 58 q 59 48 58 50 q 61 44 60 46 q 61 42 61 43 q 70 30 64 38 q 82 18 76 22 q 111 4 88 14 q 142 -1 121 3 q 164 -4 150 -1 q 175 -6 171 -4 l 201 -6 q 217 -4 206 -4 q 339 26 293 7 q 419 67 363 36 l 224 121 q 213 119 219 119 q 206 121 210 119 q 200 121 201 121 q 188 122 192 121 l 174 122 q 165 124 172 122 l 143 124 l 118 126 m 611 503 q 575 496 600 496 l 563 496 q 526 492 542 492 q 514 490 521 490 l 474 428 l 678 436 q 696 432 683 432 q 715 428 696 432 q 798 381 758 418 q 838 299 838 344 l 838 296 q 836 292 836 294 l 836 281 q 835 276 835 279 l 835 269 q 833 267 835 268 q 831 263 832 265 q 829 257 829 260 q 807 226 824 247 q 802 219 806 224 q 797 213 799 214 q 783 199 796 211 l 654 132 l 764 86 q 860 176 818 118 q 901 296 901 235 l 901 307 q 897 331 900 315 q 894 342 897 335 q 886 364 890 356 q 881 376 885 368 q 875 388 876 383 q 625 500 803 500 l 611 503 m 668 304 l 396 288 l 371 235 l 594 156 q 611 154 600 151 q 628 161 618 156 q 649 176 638 167 q 658 185 651 179 q 668 194 664 190 q 696 238 690 221 q 699 249 696 240 q 700 256 699 250 l 700 274 q 699 279 699 275 l 699 282 q 697 284 697 282 q 695 288 696 286 q 683 294 694 289 q 678 297 682 296 q 673 299 674 299 q 671 301 672 300 l 668 301 l 668 304 m 158 589 q 147 579 156 585 q 139 569 147 578 q 136 566 139 569 q 132 561 133 563 q 125 540 125 540 q 124 536 125 539 l 124 525 q 125 522 124 524 q 153 472 132 492 q 207 438 168 458 q 222 431 213 435 q 226 431 225 431 q 231 428 229 429 q 238 428 232 428 l 247 428 q 258 426 249 426 q 278 425 267 425 q 339 419 328 419 l 375 419 q 394 422 381 419 l 397 422 q 408 424 404 422 l 418 424 q 428 425 424 424 l 436 425 l 468 493 q 456 488 463 488 l 450 488 q 444 486 449 486 q 422 482 424 482 q 400 479 408 479 q 381 476 386 476 l 353 476 q 342 478 346 476 q 158 586 204 483 l 158 589 m 356 821 q 281 783 310 811 q 253 715 253 754 q 253 703 253 707 q 257 690 254 699 q 260 681 257 689 q 264 672 263 679 q 336 625 290 625 l 344 632 l 551 643 l 600 726 q 586 732 603 726 q 583 735 586 733 q 578 738 581 738 q 572 742 576 738 q 540 760 557 750 l 507 776 q 439 804 482 789 q 400 815 417 813 q 361 818 383 818 l 356 821 z "},"T":{"ha":957,"x_min":-3,"x_max":904,"o":"m 904 906 q 903 897 903 904 l 903 890 q 901 883 901 886 q 840 775 892 828 q 735 721 793 728 l 726 721 q 718 719 725 719 l 710 719 q 701 718 708 718 q 685 715 690 715 l 664 715 q 660 717 663 715 l 649 717 q 646 718 647 717 l 643 718 l 643 118 l 649 115 q 749 151 696 110 q 832 232 801 192 l 861 269 q 886 304 878 292 l 899 307 l 899 288 q 769 67 899 169 q 743 46 761 60 q 653 0 703 14 q 583 -17 646 -1 q 503 -24 521 -24 q 218 69 346 -24 q 63 321 85 165 l 63 325 q 61 331 61 326 l 61 336 q 60 342 60 338 l 60 346 l 58 346 l 58 351 q 57 356 57 353 l 57 381 q 58 390 57 385 q 61 396 60 394 l 61 404 q 63 408 61 406 q 64 413 64 410 q 67 428 64 417 q 69 444 67 433 q 307 772 122 658 q 300 774 304 772 l 292 774 q 285 775 289 774 l 276 775 q 267 776 268 775 l 256 776 q 246 778 250 776 l 238 778 q 8 657 88 778 l -3 663 q 0 661 1 661 l -1 663 l -1 665 l -3 667 l -3 668 q 76 833 -3 768 q 254 921 161 903 q 293 926 260 922 q 304 928 297 926 q 314 928 311 928 q 333 929 319 929 l 350 929 q 357 928 351 928 l 368 928 q 375 926 372 926 l 388 926 l 751 867 q 755 863 754 864 q 758 863 756 863 l 768 863 q 771 861 768 861 l 793 861 q 802 863 797 861 q 810 865 807 864 q 822 868 814 865 l 835 872 q 847 880 839 875 q 857 888 854 885 q 863 894 860 890 q 869 904 865 897 q 876 915 874 911 q 881 922 878 918 q 883 926 883 926 l 886 926 l 888 928 l 888 929 l 890 929 l 892 931 l 894 931 q 897 932 896 931 l 900 932 q 903 933 901 932 l 904 933 l 904 906 m 525 732 l 525 404 q 478 272 525 332 q 376 175 431 213 q 371 172 374 172 q 361 165 367 168 q 359 164 361 165 q 356 161 357 163 q 451 108 400 125 q 557 92 503 92 l 569 92 q 585 94 574 92 q 592 96 586 94 l 599 96 q 606 97 600 96 l 611 97 l 611 721 l 525 732 m 342 767 q 301 731 314 750 q 254 646 274 690 q 242 617 253 643 q 224 567 233 596 q 213 514 221 549 q 208 481 211 503 q 207 447 207 469 q 218 361 207 406 q 253 278 238 306 q 255 272 254 274 q 258 268 256 271 l 263 264 q 265 259 263 263 q 286 229 268 256 q 311 203 296 221 q 317 197 314 201 q 320 190 319 192 q 324 189 321 189 q 328 192 325 189 l 333 197 q 337 200 335 199 q 340 203 339 201 q 343 207 340 204 l 349 213 q 353 218 350 215 q 365 257 353 207 q 369 274 365 257 q 374 310 374 285 l 374 750 l 372 750 l 372 751 q 371 753 371 751 l 371 754 l 369 754 l 369 757 q 367 760 367 757 l 367 764 l 342 767 z "},"U":{"ha":1142,"x_min":0,"x_max":1065,"o":"m 589 956 l 594 929 l 594 617 q 602 603 597 611 q 608 589 607 596 q 700 563 667 563 l 714 563 q 729 565 718 563 q 810 597 757 568 l 810 768 l 808 768 l 808 769 q 806 772 807 769 q 796 785 804 775 q 770 804 783 797 q 744 813 757 811 l 738 813 l 735 815 l 686 761 l 665 775 l 813 950 l 947 864 l 1010 921 l 1031 921 q 1022 899 1028 914 q 1013 879 1019 892 q 1004 860 1010 874 q 996 840 999 847 q 989 819 993 829 q 979 801 985 810 l 975 169 q 1001 107 979 129 q 1008 110 1004 108 q 1015 114 1013 113 q 1022 117 1017 115 q 1028 119 1026 118 q 1033 122 1029 119 q 1040 125 1038 124 l 1053 129 l 1054 129 l 1054 128 q 1055 126 1054 128 q 1057 122 1056 125 q 1060 118 1058 119 q 1063 115 1061 117 q 1065 113 1064 114 l 1065 110 l 929 -17 q 893 -4 906 -17 q 865 24 885 0 q 863 28 865 26 q 860 32 861 31 q 858 36 860 33 q 856 39 857 39 q 847 51 854 46 q 825 107 840 69 q 810 158 810 144 q 533 0 649 15 l 385 -3 q 164 124 250 11 q 81 368 81 231 l 81 379 q 82 386 81 381 l 82 396 q 83 401 82 399 l 83 417 q 198 660 108 550 q 407 829 288 771 l 425 840 l 315 813 l 161 815 q 92 783 118 808 q 42 721 61 754 q 35 709 40 717 q 29 698 31 701 q 25 687 28 694 q 19 675 22 679 l 8 681 l 8 682 q 6 685 7 682 q 4 692 6 689 q 3 700 3 696 l 3 704 q 1 708 1 706 l 1 713 q 0 715 0 713 l 0 740 q 4 760 0 740 q 79 888 19 832 q 210 944 139 944 l 238 947 l 382 901 q 392 895 388 896 q 407 894 397 894 q 413 893 408 893 l 419 893 q 464 900 429 893 q 493 910 474 904 q 522 921 513 917 l 531 929 q 540 938 533 933 l 544 942 q 549 944 546 942 q 554 949 551 947 q 558 950 557 950 q 560 951 558 950 l 567 951 q 569 953 568 953 l 589 953 l 589 956 m 735 399 l 706 399 q 647 385 686 396 q 594 356 618 374 l 594 113 q 810 186 706 117 l 810 364 q 792 372 800 367 q 772 381 785 376 q 735 396 747 392 l 735 399 m 560 889 q 551 867 554 875 q 542 850 547 860 q 533 833 538 840 q 525 815 529 826 l 517 789 l 517 385 q 344 181 481 276 q 447 129 396 143 q 560 115 497 115 l 560 889 m 476 821 q 298 663 364 765 q 232 436 232 560 l 232 419 q 233 410 232 415 q 233 401 233 404 q 247 331 239 378 q 258 296 251 319 q 289 249 274 271 q 321 204 292 244 q 358 280 346 239 q 371 367 371 321 l 371 406 q 368 449 368 419 q 367 469 367 454 q 365 481 365 474 l 365 486 q 364 492 364 488 q 364 500 364 494 q 362 509 363 506 q 361 524 361 513 l 361 579 q 364 603 361 588 q 376 669 369 646 q 435 774 397 736 q 474 813 447 792 l 476 821 m 594 396 q 700 428 644 428 l 707 428 q 714 426 708 426 l 721 426 q 729 425 725 425 q 772 414 747 424 q 810 393 796 404 l 810 565 q 803 559 807 563 q 792 553 799 556 q 774 547 786 550 q 739 535 763 543 q 706 531 706 531 q 688 531 693 531 q 644 542 682 532 q 608 556 638 546 q 606 558 608 557 q 600 560 603 560 q 594 563 597 560 l 594 396 z "},"V":{"ha":957,"x_min":0,"x_max":850,"o":"m 754 967 q 842 717 810 867 q 847 664 843 708 q 850 614 850 631 q 847 564 850 597 q 842 514 847 547 l 829 464 q 815 414 825 447 q 535 26 753 254 q 513 3 528 18 q 490 -17 506 -1 l 485 -17 q 479 -17 483 -17 q 473 -15 476 -15 q 462 -10 469 -14 q 440 1 454 -6 q 422 13 435 6 q 419 15 422 14 q 415 17 417 17 q 412 19 414 18 q 407 21 410 21 q 400 22 404 21 l 392 22 q 376 25 385 22 l 360 25 q 351 26 358 25 l 333 26 q 321 25 329 25 q 278 18 313 25 q 267 15 269 15 q 262 14 265 15 q 256 10 258 13 q 249 8 253 8 q 243 4 246 7 q 232 0 231 0 l 225 0 q 218 -1 226 0 q 213 -3 217 -1 l 200 -3 q 197 -1 199 -3 q 190 1 194 0 q 183 3 185 1 l 256 247 l 256 264 q 208 363 256 319 q 106 407 161 407 l 100 410 q 88 403 96 406 l 75 399 l 72 407 q 88 452 72 431 q 122 490 104 474 l 124 490 l 126 493 q 140 499 129 496 q 149 501 140 499 q 153 503 150 501 q 156 503 154 503 l 175 503 q 185 501 179 501 q 235 486 213 494 q 242 483 238 486 q 251 479 247 481 q 264 471 254 478 l 256 571 q 242 619 249 590 q 228 678 236 649 q 181 776 211 733 q 103 835 156 822 l 92 838 q 53 822 78 835 q 22 794 46 818 l 6 778 l 6 781 q 4 783 4 781 l 4 786 q 3 789 3 786 l 3 790 q 0 796 0 793 l 0 806 q 44 897 0 851 q 129 953 88 942 q 150 958 132 954 q 172 961 164 961 l 181 964 q 358 806 290 947 q 362 801 360 804 q 364 797 364 797 q 369 785 364 796 q 376 761 374 774 l 754 967 m 536 353 l 506 353 q 438 343 482 350 q 374 325 410 338 q 317 181 347 244 q 244 43 281 104 q 457 126 363 126 l 469 126 q 483 124 474 125 q 511 120 493 124 q 529 117 529 117 l 546 113 q 649 307 590 175 q 536 350 588 340 l 536 353 m 692 560 q 667 549 690 558 q 642 542 658 546 q 593 531 626 539 q 546 528 560 528 q 407 551 497 528 l 407 528 q 406 504 407 528 q 401 457 406 500 q 399 432 399 443 q 390 383 390 390 q 385 361 389 376 l 406 365 q 458 372 403 365 q 475 374 469 372 l 490 374 q 539 369 517 374 q 592 360 557 368 q 608 356 610 356 q 624 350 614 354 q 654 339 625 350 q 674 400 661 358 q 690 500 683 438 q 692 518 690 511 l 692 560 m 611 856 l 388 732 q 403 656 394 707 q 406 619 404 643 q 407 582 407 601 q 533 560 474 560 q 572 563 551 560 q 613 569 581 563 q 651 579 625 572 q 672 586 658 582 q 692 594 681 592 l 692 606 q 690 617 690 610 l 690 628 q 689 639 689 631 q 661 749 686 676 q 611 853 642 804 l 611 856 z "},"W":{"ha":1497,"x_min":-3,"x_max":1415,"o":"m 519 967 l 531 929 l 531 156 l 614 224 q 597 293 604 251 q 592 364 592 325 q 636 568 592 468 q 761 746 688 683 l 904 867 q 835 829 874 842 q 757 818 801 818 l 754 818 q 753 819 754 818 l 749 819 q 747 821 749 819 l 736 821 q 732 822 735 821 l 724 822 q 718 824 722 822 l 706 824 q 621 800 661 824 q 560 732 581 771 q 555 746 558 736 q 551 756 551 756 q 550 761 550 756 q 549 767 549 763 l 549 772 q 550 789 549 782 q 554 808 551 796 q 649 932 578 890 q 657 938 653 933 q 665 940 661 938 q 671 944 668 943 q 675 947 674 946 q 680 949 676 947 q 685 950 683 950 q 694 953 686 950 q 701 954 696 953 l 708 954 q 711 956 710 954 l 721 956 l 749 958 l 869 907 q 872 903 869 903 l 879 903 q 881 901 879 901 l 892 901 q 901 904 893 901 l 904 904 q 910 906 907 904 l 914 906 q 919 907 917 906 l 924 907 q 943 919 931 911 q 1001 958 963 933 l 1007 958 q 1019 953 1015 956 q 1026 951 1024 951 l 1031 947 l 1031 603 q 1035 597 1032 597 l 1039 597 q 1082 583 1054 590 q 1099 582 1088 582 q 1113 583 1107 582 q 1129 588 1113 583 q 1132 589 1131 588 l 1135 589 q 1140 590 1136 589 q 1146 593 1143 592 q 1153 594 1149 594 q 1158 597 1157 594 q 1163 601 1160 599 l 1171 610 q 1174 614 1171 611 l 1174 786 l 1125 835 l 1082 794 l 1065 813 l 1203 961 l 1300 875 l 1357 929 l 1386 929 l 1329 829 l 1329 825 q 1327 822 1328 824 q 1325 818 1326 821 q 1323 814 1324 815 q 1322 810 1322 813 l 1318 175 l 1317 175 l 1317 168 q 1322 154 1317 171 q 1325 143 1322 151 q 1326 139 1325 142 l 1326 135 q 1332 129 1329 133 q 1337 123 1335 125 q 1343 118 1339 121 q 1349 113 1347 115 q 1365 132 1356 124 q 1375 140 1368 135 q 1381 144 1378 142 q 1386 148 1385 147 q 1390 149 1388 149 q 1394 153 1392 150 q 1398 149 1397 150 q 1401 146 1399 149 l 1406 142 q 1408 137 1406 140 q 1411 133 1410 133 l 1415 129 l 1276 -14 l 1271 -14 q 1264 -12 1267 -12 l 1251 -8 q 1171 167 1189 54 q 1047 50 1124 107 q 893 0 981 0 l 881 0 q 794 13 842 0 q 721 57 746 32 q 672 117 701 76 q 628 181 642 157 q 501 57 575 108 q 346 0 419 0 l 336 0 q 281 7 329 0 q 85 199 142 42 q 51 376 51 290 l 51 399 l 92 554 q 229 751 142 668 l 376 864 l 374 875 q 314 839 353 856 q 247 824 293 832 q 228 821 233 821 l 189 821 q 169 825 186 821 q 129 832 157 825 q 49 789 82 826 q 8 703 17 751 l -3 706 l -3 738 q 0 767 0 742 q 1 775 0 769 q 1 785 1 781 l 6 801 q 61 917 22 867 q 158 967 100 967 l 161 967 q 164 965 161 965 l 176 965 q 179 964 176 964 l 186 964 q 344 907 267 943 l 346 907 l 346 906 l 350 906 l 350 904 l 364 904 q 371 906 365 904 l 378 906 q 490 961 439 914 l 494 961 q 497 963 496 961 l 507 963 q 510 964 508 963 l 511 964 l 519 967 m 999 910 q 996 901 997 907 l 993 899 q 987 887 992 892 q 981 878 982 882 q 978 871 981 874 q 969 851 975 860 q 967 843 969 849 q 964 835 965 838 l 964 425 q 919 310 956 360 q 842 215 876 250 l 825 199 q 818 190 822 197 q 815 188 817 190 q 810 183 813 185 q 972 115 869 115 l 978 115 q 982 117 979 115 l 988 117 q 990 118 989 117 l 999 118 l 999 910 m 1128 396 l 1101 396 q 1094 392 1099 393 q 1086 392 1090 392 l 1079 392 q 1071 390 1075 390 q 1060 388 1063 388 q 1039 379 1035 379 q 1031 374 1035 375 l 1033 121 q 1174 210 1115 138 l 1174 374 q 1163 378 1175 374 q 1160 381 1163 379 q 1156 382 1158 382 q 1151 385 1154 382 q 1128 393 1143 388 l 1128 396 m 496 915 q 475 878 488 903 l 458 840 q 436 764 443 804 l 436 431 q 425 353 436 390 q 396 285 417 324 l 290 192 q 431 129 349 129 l 446 129 q 464 132 450 129 q 467 133 465 132 l 469 133 q 477 134 472 133 q 485 135 482 135 q 492 138 489 136 l 496 138 l 496 915 m 401 835 q 264 682 315 763 q 185 458 189 564 q 183 425 183 447 l 183 407 q 185 399 183 404 l 185 389 q 212 289 192 336 q 267 201 232 242 q 286 226 271 208 q 299 256 292 236 l 299 638 q 333 736 306 693 q 401 824 368 790 l 410 832 l 401 835 m 939 843 q 718 422 715 647 q 731 342 718 390 q 757 268 739 310 q 786 207 765 249 l 789 210 q 793 213 790 210 l 804 224 l 808 240 q 814 260 811 247 q 817 274 814 263 q 819 286 817 278 q 822 300 819 289 q 824 307 822 303 q 824 313 824 311 l 824 643 q 917 811 835 692 q 928 825 919 814 q 931 830 929 828 q 934 833 933 832 q 937 838 935 835 q 939 840 939 840 l 939 843 m 1031 410 q 1039 408 1035 408 q 1043 410 1040 408 l 1047 410 q 1072 413 1058 410 q 1085 414 1079 413 l 1104 414 q 1113 413 1108 413 l 1132 413 q 1174 404 1146 410 l 1174 568 q 1165 563 1172 563 l 1161 563 q 1157 561 1160 561 q 1132 555 1149 558 q 1108 551 1115 551 q 1071 557 1090 551 q 1031 568 1057 561 l 1031 410 z "},"X":{"ha":900,"x_min":19,"x_max":835,"o":"m 649 967 q 835 850 713 906 l 772 729 l 611 789 l 511 557 l 769 554 l 724 450 l 568 447 l 714 143 q 715 139 714 139 l 715 138 q 718 135 715 135 q 740 114 724 125 q 743 114 742 114 q 745 112 743 113 q 751 110 747 111 l 757 110 l 758 111 l 764 111 l 765 113 l 767 113 q 772 115 769 114 q 775 117 774 117 l 782 124 l 794 140 l 818 118 l 689 -17 l 674 -17 q 669 -15 672 -15 l 665 -15 q 661 -14 664 -14 q 624 6 647 -10 q 575 58 594 28 q 563 78 571 65 l 419 385 l 242 -17 l 49 94 l 103 235 l 272 153 l 401 442 l 143 444 l 189 554 l 333 557 l 221 797 q 189 829 211 819 q 144 844 172 842 l 125 844 q 117 843 121 843 l 100 839 q 97 838 99 839 q 90 836 94 836 l 85 836 q 81 833 83 835 q 76 832 78 832 q 73 831 75 832 q 69 828 71 829 q 65 826 68 828 q 60 822 63 824 q 56 819 57 819 q 52 818 54 819 q 49 816 50 817 q 44 813 47 815 q 38 810 40 811 l 24 813 l 19 818 q 49 879 19 847 q 108 928 78 911 q 120 937 114 933 q 144 946 126 940 q 156 950 149 947 q 160 951 158 950 q 165 953 163 953 q 176 956 168 953 q 185 957 181 956 l 192 957 q 200 958 196 957 l 207 958 q 358 872 293 958 l 482 611 q 649 964 579 769 l 649 967 z "},"Y":{"ha":957,"x_min":0,"x_max":886,"o":"m 178 944 q 374 801 340 929 q 506 883 439 856 q 601 908 549 901 q 608 910 603 908 l 639 910 q 651 908 643 908 q 710 896 660 908 q 851 754 811 858 q 886 583 886 665 l 886 546 q 874 444 886 519 q 853 353 868 413 q 792 261 847 338 q 549 146 697 163 l 175 146 q 79 96 117 131 q 35 0 35 56 q 36 -14 35 -4 q 40 -33 36 -12 q 49 -57 40 -32 q 97 -102 65 -89 q 158 -115 128 -115 l 167 -115 q 176 -114 171 -114 q 238 -103 199 -114 q 246 -99 243 -101 q 249 -99 247 -99 q 249 -97 249 -97 q 253 -96 250 -96 q 383 -39 331 -60 q 511 -14 449 -14 q 553 -18 515 -14 q 597 -29 568 -21 q 618 -37 604 -35 q 640 -49 626 -40 q 665 -78 653 -57 q 682 -117 674 -92 l 682 -125 q 683 -131 682 -128 l 683 -135 q 672 -174 683 -157 q 632 -201 660 -192 l 615 -201 q 613 -200 614 -200 q 581 -181 597 -199 q 563 -147 571 -171 l 563 -136 q 564 -135 563 -136 l 564 -128 q 565 -126 564 -128 l 565 -124 q 567 -120 565 -121 q 570 -116 568 -119 q 573 -111 572 -112 q 576 -106 574 -110 q 578 -102 578 -103 q 581 -100 579 -101 q 581 -97 581 -99 q 583 -86 581 -94 q 585 -82 583 -85 l 585 -69 q 580 -65 582 -67 q 575 -64 578 -64 l 572 -61 q 568 -58 571 -60 q 563 -57 565 -57 q 499 -85 536 -65 l 467 -101 q 364 -156 382 -146 q 254 -196 304 -185 q 241 -199 250 -197 q 225 -200 232 -200 q 214 -201 218 -200 l 201 -201 q 172 -199 193 -201 q 142 -191 163 -197 q 83 -167 122 -185 q 26 -104 47 -140 q 0 -29 6 -68 l 0 3 q 37 103 0 58 q 128 167 74 149 q 167 178 142 172 l 179 178 q 185 179 182 178 l 203 179 q 210 181 204 179 l 215 181 l 215 217 q 214 224 214 218 l 214 238 q 158 362 203 303 q 51 447 113 421 q 65 451 60 450 l 82 456 q 88 457 85 456 l 114 457 q 125 456 118 456 q 150 451 143 453 q 167 447 168 447 q 183 442 172 446 q 213 431 193 439 l 213 436 q 214 440 213 438 l 214 450 q 215 453 214 451 l 215 460 q 179 546 215 506 q 75 631 133 597 q 61 639 71 633 q 56 643 60 640 q 49 646 51 646 q 124 660 76 660 l 132 660 q 140 658 136 658 l 157 658 q 172 656 163 658 q 186 653 182 654 q 193 653 188 653 q 200 651 197 651 q 213 649 208 649 l 213 794 l 183 850 q 57 893 146 888 q 93 926 72 918 q 142 940 125 940 l 160 940 q 169 942 165 940 l 178 942 l 178 944 m 600 410 l 574 410 q 561 407 565 407 q 534 401 544 403 q 521 400 524 400 q 506 397 510 397 q 492 394 501 396 q 468 385 483 392 q 463 379 467 383 q 457 372 460 375 q 450 358 454 368 l 450 167 q 454 164 451 164 l 457 164 q 460 163 457 163 l 469 163 q 472 161 469 161 l 479 161 q 613 210 558 161 q 697 328 667 258 l 697 332 l 699 333 l 699 339 l 700 340 l 700 342 q 682 374 700 358 q 644 396 664 389 l 632 400 q 619 403 628 400 q 600 407 606 406 l 600 410 m 425 794 l 374 751 l 374 167 l 425 167 l 425 794 m 706 606 q 665 574 694 593 q 622 557 638 561 q 599 552 606 553 q 576 551 592 551 q 453 589 518 551 l 453 404 q 479 415 454 404 q 508 424 494 422 q 536 429 514 426 q 550 431 544 429 l 563 431 q 597 428 572 431 q 615 425 608 425 q 624 424 618 425 q 633 421 631 422 q 668 407 656 413 q 686 399 675 406 q 703 390 694 397 q 706 410 706 401 q 709 426 707 418 q 715 465 711 433 q 717 474 715 472 l 717 483 q 718 493 717 489 l 718 515 q 714 558 717 531 q 706 603 713 571 l 706 606 m 496 821 q 479 815 492 817 q 463 810 467 814 q 456 801 458 806 q 452 794 453 797 q 450 789 451 792 l 450 635 q 490 592 463 608 q 540 576 518 576 l 564 576 q 568 578 565 576 q 572 578 571 578 q 594 581 578 578 q 647 599 610 585 q 692 625 664 607 q 694 629 693 626 q 696 632 696 632 q 697 640 696 638 q 700 643 699 642 l 700 658 q 697 667 699 660 q 694 679 696 674 q 694 682 694 681 q 692 683 693 682 q 691 687 692 683 q 689 694 690 690 q 681 718 681 719 q 525 821 615 821 l 522 821 q 518 819 521 819 l 506 819 q 500 818 504 818 l 496 818 l 496 821 z "},"Z":{"ha":871,"x_min":19,"x_max":794,"o":"m 215 956 l 229 956 l 371 901 q 379 897 375 897 q 382 897 381 897 q 385 896 383 896 l 389 896 q 401 894 393 896 q 411 892 408 893 q 417 892 413 892 q 424 890 421 890 q 449 888 432 888 q 461 886 453 886 l 488 886 q 513 887 506 886 q 539 890 519 888 l 547 890 q 557 892 553 890 l 574 892 q 583 893 579 892 l 592 893 l 775 944 q 568 568 638 724 l 724 571 l 708 525 l 546 525 q 532 504 540 515 q 530 501 532 504 q 527 496 528 497 q 524 492 526 494 q 520 486 522 489 q 517 482 518 483 q 517 480 517 481 q 515 476 517 479 q 512 472 513 474 q 509 469 511 471 q 504 463 507 467 q 501 458 501 460 q 496 450 501 456 l 681 453 l 663 407 l 465 407 q 308 226 394 315 q 135 67 232 149 l 304 143 q 329 147 308 143 l 342 151 q 354 154 346 151 q 429 167 406 165 q 506 172 463 172 l 518 172 q 532 171 522 171 l 546 171 q 561 169 550 169 l 569 169 q 578 168 574 168 l 586 168 q 594 167 590 167 l 721 129 l 772 178 q 785 165 772 178 l 790 160 q 794 153 790 157 l 649 -17 l 488 40 q 469 43 483 40 q 433 50 461 43 q 415 53 426 50 q 376 56 413 53 q 358 57 371 56 l 342 57 q 251 50 301 57 q 144 25 200 43 q 43 -8 110 14 l 39 -8 q 36 -10 38 -8 l 26 -10 q 24 -11 25 -10 l 19 -11 l 24 8 q 275 407 174 188 l 110 410 l 129 453 l 301 453 l 344 525 l 172 525 l 194 571 l 382 571 q 689 881 549 767 l 546 813 q 442 782 506 793 q 342 772 388 772 q 244 782 288 772 q 196 793 228 785 l 146 810 l 100 764 l 81 783 l 215 956 z "},"[":{"ha":510,"x_min":3,"x_max":447,"o":"m 6 1188 l 140 1163 q 163 1167 149 1164 q 185 1171 178 1169 q 208 1175 192 1172 q 232 1179 211 1175 q 243 1181 239 1179 l 254 1181 q 267 1182 261 1181 l 290 1182 q 351 1169 317 1182 q 404 1131 381 1160 q 422 1094 411 1119 q 427 1085 425 1092 q 431 1075 429 1079 q 438 1058 433 1071 q 440 1050 439 1051 q 442 1041 440 1049 q 445 1032 444 1033 q 447 1028 446 1031 q 447 1022 447 1025 l 439 1022 q 435 1019 438 1019 q 432 1021 433 1019 q 429 1024 431 1022 l 428 1024 q 426 1025 428 1024 l 425 1025 q 421 1030 422 1028 q 419 1033 419 1032 q 393 1061 408 1049 q 364 1085 385 1069 q 294 1076 358 1085 l 261 1072 q 226 1068 250 1071 q 157 1090 194 1072 q 135 1099 160 1090 q 202 1008 174 1058 q 247 899 231 957 l 247 208 q 246 193 246 203 l 246 178 q 244 162 244 172 q 242 131 244 151 l 238 100 q 188 3 213 42 q 124 -92 163 -36 q 189 -58 156 -68 q 261 -49 222 -49 q 290 -50 281 -49 q 379 -67 319 -56 q 381 -63 379 -64 q 383 -60 382 -62 q 386 -56 385 -57 q 392 -51 388 -56 q 399 -42 397 -46 l 410 -31 q 414 -26 411 -29 q 421 -17 414 -17 q 431 -8 429 -8 l 433 -8 q 436 -7 433 -7 l 439 -7 q 442 -6 439 -6 l 447 -6 q 392 -117 431 -68 q 285 -167 354 -167 l 264 -167 q 244 -162 250 -164 q 240 -162 243 -162 q 235 -160 238 -161 q 226 -160 232 -160 l 224 -160 q 221 -158 222 -158 l 218 -158 q 215 -157 217 -157 q 165 -149 190 -156 q 118 -146 132 -146 q 68 -150 118 -146 q 43 -156 60 -153 q 18 -161 26 -160 l 10 -161 q 7 -162 8 -161 q 6 -164 6 -162 q 3 -164 4 -164 q 113 78 101 -47 q 109 123 110 108 q 106 168 108 138 l 100 260 q 93 349 97 290 q 83 442 89 407 l 83 468 q 82 478 82 469 l 82 499 q 81 510 81 503 l 81 531 q 89 689 81 621 q 113 847 96 767 l 113 906 q 110 938 113 917 q 110 944 110 939 q 108 953 108 950 q 103 988 107 964 q 94 1021 100 999 q 72 1085 83 1063 q 67 1093 71 1088 q 60 1102 64 1099 q 49 1118 57 1106 l 26 1151 q 15 1168 24 1157 q 12 1176 14 1172 q 6 1185 10 1181 l 6 1188 z "},"\\":{"ha":418,"x_min":19,"x_max":374,"o":"m 226 169 q 285 113 257 129 l 288 113 q 289 111 288 111 l 290 111 q 291 108 290 110 q 294 107 292 107 l 299 107 l 350 156 l 374 129 l 221 -8 l 207 -8 q 128 57 164 35 q 35 103 86 82 q 76 160 65 125 q 89 232 89 189 l 89 589 l 19 589 l 35 668 l 89 668 l 89 813 q 160 861 113 825 q 226 921 197 890 l 226 924 l 374 883 l 342 783 l 226 814 l 226 169 z "},"]":{"ha":510,"x_min":11,"x_max":460,"o":"m 175 1190 q 182 1185 179 1186 q 190 1185 185 1185 q 207 1182 201 1182 q 244 1176 219 1181 q 281 1171 268 1172 q 288 1171 282 1171 q 295 1169 292 1169 q 307 1168 299 1168 l 333 1168 q 364 1169 353 1168 q 397 1174 364 1169 q 428 1178 394 1174 l 444 1182 q 460 1185 449 1182 l 457 1171 q 356 972 371 1081 l 356 967 q 354 960 354 963 l 354 939 q 353 932 353 935 l 353 921 q 360 744 353 807 q 369 657 363 708 q 382 568 374 628 l 382 481 q 381 440 382 481 q 378 361 379 414 q 367 228 378 343 q 353 97 358 144 q 354 68 353 82 q 363 13 357 50 q 367 0 365 1 q 371 -14 369 -8 q 460 -164 421 -94 q 451 -161 457 -161 l 446 -161 q 371 -147 421 -154 q 342 -146 361 -146 l 317 -146 q 290 -149 317 -146 q 240 -156 274 -151 q 219 -158 228 -157 q 208 -160 217 -158 q 197 -160 201 -160 q 156 -164 179 -162 q 71 -121 103 -161 q 24 -31 39 -81 l 19 -17 q 17 -3 17 -7 l 29 -3 q 60 -39 39 -15 q 100 -67 76 -53 q 133 -64 111 -67 q 153 -60 144 -61 q 168 -58 163 -58 q 235 -49 246 -49 l 240 -49 q 246 -50 243 -49 l 253 -50 q 256 -51 254 -50 l 258 -51 q 333 -81 281 -57 q 269 3 310 -53 q 224 100 243 47 l 219 193 q 218 288 219 225 q 217 335 218 299 q 215 381 215 363 l 215 853 q 251 985 215 924 q 333 1101 278 1031 q 315 1094 322 1099 q 296 1086 308 1090 q 221 1074 264 1074 l 204 1074 q 194 1075 200 1074 q 186 1075 189 1075 q 121 1085 164 1078 q 92 1088 111 1085 q 58 1074 72 1088 q 40 1043 44 1054 q 38 1038 38 1040 l 38 1033 q 34 1031 36 1033 q 31 1028 32 1029 q 26 1026 29 1028 q 17 1025 22 1025 l 11 1025 q 24 1065 17 1039 q 78 1149 39 1110 q 167 1188 117 1188 l 175 1190 z "},"^":{"ha":807,"x_min":101,"x_max":710,"o":"m 101 451 l 381 939 l 436 939 l 710 451 l 603 451 l 403 799 l 206 451 l 101 451 z "},"_":{"ha":929,"x_min":-29,"x_max":918,"o":"m 17 -57 l 918 -57 l 867 -126 l -29 -126 l 17 -57 z "},"`":{"ha":481,"x_min":72,"x_max":292,"o":"m 254 725 l 72 978 l 231 978 l 292 725 l 254 725 z "},"a":{"ha":567,"x_min":8,"x_max":517,"o":"m 244 689 l 431 617 l 431 615 l 433 618 q 448 632 436 622 q 468 643 460 642 q 472 644 469 643 l 476 644 q 481 646 478 644 l 485 646 l 490 649 q 475 622 485 639 q 462 597 469 614 q 439 543 454 579 l 436 151 q 438 144 438 146 q 440 140 439 143 l 440 136 q 442 132 440 135 l 442 129 q 451 115 444 125 q 465 104 453 114 q 468 101 465 101 l 469 101 q 471 100 469 100 l 496 118 l 517 100 l 396 -6 l 388 -6 q 347 14 364 -6 q 321 63 326 42 q 312 94 317 72 q 307 121 307 117 l 307 131 q 306 133 306 131 l 306 140 q 304 144 304 142 l 304 153 l 121 -6 q 40 72 71 22 q 8 175 8 121 l 8 182 q 10 186 8 183 l 10 200 q 11 204 10 201 l 11 207 q 22 250 11 208 q 140 433 53 363 l 72 628 q 76 624 74 624 l 85 624 q 88 622 85 622 l 107 622 q 114 623 111 622 q 119 625 117 624 q 122 625 121 625 q 188 646 151 629 q 244 686 219 661 l 244 689 m 169 407 q 135 346 144 374 q 126 285 126 318 l 126 265 q 129 246 126 254 q 194 97 140 172 l 210 106 l 307 192 l 307 328 l 169 407 m 115 597 l 169 444 l 304 367 l 304 528 l 132 597 l 115 597 z "},"b":{"ha":601,"x_min":3,"x_max":503,"o":"m 258 924 l 285 924 q 215 821 225 868 l 215 536 l 404 692 q 465 624 442 657 q 503 543 493 586 l 503 106 q 404 60 469 92 q 314 4 351 31 q 310 1 313 3 q 304 0 308 0 q 296 -6 300 -4 l 235 46 q 43 118 146 92 l 78 186 l 78 594 l 3 594 l 3 665 l 81 665 l 81 789 q 61 846 81 810 q 24 893 46 875 l 32 896 q 38 893 33 893 l 42 893 q 44 892 42 892 q 79 879 71 885 q 111 860 94 871 q 115 857 114 857 q 121 854 117 857 q 129 847 125 851 q 190 898 158 878 q 258 921 222 918 l 258 924 m 315 571 l 213 482 l 213 192 q 287 146 239 171 q 367 110 335 121 l 367 525 l 315 571 z "},"c":{"ha":457,"x_min":35,"x_max":404,"o":"m 244 692 l 244 689 l 238 689 q 220 682 229 690 q 206 669 211 674 l 172 636 q 154 623 161 629 q 142 613 147 617 q 72 576 100 583 l 72 181 q 35 89 72 132 q 229 -6 119 72 l 404 126 q 396 142 396 135 l 392 146 q 388 151 389 149 q 385 156 386 154 l 315 103 q 283 120 296 113 q 260 133 269 128 q 204 169 226 147 l 204 565 q 328 496 264 517 l 390 589 l 244 692 z "},"d":{"ha":567,"x_min":11,"x_max":490,"o":"m 14 896 l 433 608 q 444 621 436 610 q 460 635 449 625 q 490 654 472 646 l 476 608 l 476 103 q 378 57 443 89 q 288 0 347 38 q 284 -1 285 0 q 279 -6 283 -3 q 272 -11 275 -10 l 167 54 l 17 103 q 57 192 57 138 l 57 574 l 181 625 l 11 764 l 14 896 m 232 592 l 189 565 l 189 175 l 342 113 l 342 500 l 232 592 z "},"e":{"ha":481,"x_min":8,"x_max":422,"o":"m 242 692 l 422 506 l 183 296 l 183 158 l 299 103 l 385 167 l 404 140 l 218 -6 l 213 -6 q 193 -2 206 -6 q 177 2 181 1 q 144 24 174 3 q 136 31 142 25 q 132 35 135 32 q 125 40 129 38 q 110 48 121 42 q 85 57 100 54 l 72 61 q 62 63 68 61 q 49 65 56 64 q 35 69 42 67 q 8 75 29 72 q 54 183 54 121 l 54 571 q 153 622 103 589 q 242 689 194 650 l 242 692 m 183 568 l 183 350 q 203 361 192 351 l 224 378 q 228 381 226 379 q 232 384 231 383 q 236 387 233 385 q 240 390 239 389 q 246 394 240 390 q 254 401 251 399 q 281 420 267 408 q 304 442 294 432 l 183 568 z "},"f":{"ha":418,"x_min":17,"x_max":374,"o":"m 229 924 l 371 889 l 339 781 l 224 804 l 224 665 l 331 665 l 313 589 l 224 589 l 224 189 q 228 165 224 186 q 233 155 231 163 q 240 144 236 147 q 252 132 243 140 q 265 119 261 124 q 299 103 281 110 l 353 149 q 354 146 353 147 l 354 144 q 356 143 354 143 q 360 142 358 143 q 363 140 363 140 q 367 136 363 139 q 374 126 371 133 l 215 -11 q 38 103 136 68 q 92 207 92 147 l 92 585 l 17 589 l 32 663 l 92 665 l 92 813 l 229 924 z "},"g":{"ha":660,"x_min":51,"x_max":597,"o":"m 269 692 l 482 589 l 496 589 l 597 660 l 597 514 l 482 514 l 482 149 q 485 136 482 144 q 485 132 485 135 q 489 126 486 129 q 514 72 494 110 l 585 -32 l 585 -37 q 588 -43 585 -40 l 588 -49 q 589 -51 588 -50 l 589 -58 q 588 -62 588 -60 l 588 -68 q 586 -72 586 -69 q 584 -81 586 -74 q 581 -90 582 -87 q 578 -96 579 -92 q 574 -103 576 -100 l 564 -112 q 558 -117 561 -114 l 554 -121 l 417 -199 q 406 -196 414 -199 q 393 -192 397 -193 q 368 -185 382 -187 q 344 -178 360 -182 q 319 -174 338 -176 q 242 -167 264 -167 l 229 -167 q 189 -172 228 -167 q 161 -176 190 -172 q 147 -181 156 -178 q 124 -187 144 -181 q 112 -190 119 -187 q 86 -196 104 -193 q 79 -197 83 -196 l 71 -197 q 63 -199 69 -197 l 54 -199 l 51 -172 l 199 8 l 63 106 l 63 594 q 269 689 185 613 l 269 692 m 350 124 l 186 -78 l 203 -74 q 236 -69 219 -69 q 263 -67 244 -67 l 275 -67 q 496 -118 379 -67 l 500 -106 q 414 0 449 -51 q 350 121 374 61 l 350 124 m 194 579 l 194 158 l 275 103 q 350 201 331 144 l 350 522 l 194 579 z "},"h":{"ha":601,"x_min":8,"x_max":503,"o":"m 258 929 l 290 929 q 236 861 250 893 q 215 778 222 829 l 215 533 l 404 692 q 468 626 446 658 q 503 546 492 590 l 503 118 q 372 -74 476 -7 q 149 -167 268 -142 l 144 -167 q 141 -165 143 -165 q 132 -161 139 -164 l 131 -161 q 128 -160 129 -160 l 126 -160 q 124 -158 125 -158 l 132 -137 q 371 67 325 -74 l 371 528 l 318 576 l 213 490 l 213 140 l 256 89 l 146 -6 l 38 89 l 81 140 l 81 589 l 8 592 l 8 665 l 86 665 l 86 778 q 19 899 69 858 l 29 901 q 40 897 33 897 l 46 897 q 51 896 47 896 q 87 879 64 892 q 119 853 110 867 q 122 850 121 853 q 124 846 124 847 l 129 840 q 258 926 186 913 l 258 929 z "},"i":{"ha":332,"x_min":38,"x_max":285,"o":"m 140 683 l 242 592 l 201 539 l 201 149 q 208 113 201 126 q 232 92 214 100 l 264 118 l 285 97 l 161 -8 q 106 14 128 -8 q 71 83 74 46 q 69 100 69 89 l 69 542 l 38 597 l 140 683 m 186 907 l 269 907 l 158 757 l 186 907 z "},"j":{"ha":361,"x_min":17,"x_max":310,"o":"m 169 686 l 296 557 q 215 356 232 464 l 218 199 q 219 190 218 196 l 219 183 q 222 171 219 179 q 225 139 222 169 q 226 124 225 133 l 226 110 q 63 -164 226 -67 q 51 -169 61 -167 q 38 -172 42 -172 l 33 -172 q 31 -171 32 -171 q 27 -169 29 -171 q 24 -167 25 -168 l 22 -167 l 19 -164 l 19 -162 l 18 -161 l 18 -158 l 17 -157 l 17 -156 q 90 -61 71 -115 q 110 46 110 -7 q 106 89 110 61 q 103 131 103 117 l 99 160 q 99 163 99 161 q 97 165 97 164 q 96 169 96 167 l 96 181 q 86 242 86 249 l 86 247 q 85 253 85 249 l 85 272 q 85 275 85 274 q 83 276 83 275 l 83 307 q 85 328 83 318 q 132 525 90 419 l 83 579 l 40 554 l 24 571 l 169 686 m 218 910 l 310 910 l 189 746 l 218 910 z "},"k":{"ha":631,"x_min":11,"x_max":579,"o":"m 256 929 l 288 929 q 221 801 221 879 l 221 514 l 390 692 l 401 692 l 522 546 l 390 422 q 479 296 449 367 q 517 150 507 232 q 518 142 517 149 l 518 133 q 519 126 518 131 l 519 118 l 536 106 l 563 118 l 579 100 l 457 -6 q 443 -3 451 -6 q 431 0 435 0 q 376 129 386 74 l 213 -6 q 136 39 169 22 q 96 58 122 46 q 54 75 83 64 q 65 88 61 82 q 71 103 68 93 q 75 110 74 106 q 78 117 76 115 q 83 129 81 119 l 83 589 l 11 589 l 11 668 l 83 668 l 83 767 q 24 901 69 843 q 78 891 56 901 q 129 858 100 881 l 135 853 q 188 901 164 888 q 256 926 218 924 l 256 929 m 293 318 l 218 244 l 218 135 l 296 97 l 374 167 q 293 315 361 247 l 293 318 m 324 568 l 253 506 l 221 447 l 221 296 l 404 476 l 324 568 z "},"l":{"ha":389,"x_min":24,"x_max":336,"o":"m 247 929 l 288 929 q 236 863 249 894 q 215 783 222 825 l 215 167 l 290 110 l 315 129 l 336 106 l 204 -11 q 124 57 163 31 q 29 107 79 88 q 83 201 83 142 l 83 813 q 24 904 68 868 l 32 907 q 42 903 36 903 q 59 899 49 903 q 74 892 69 894 q 91 884 79 890 q 121 861 103 878 l 125 857 q 132 850 125 850 q 135 847 132 847 q 185 896 164 881 q 247 926 211 918 l 247 929 z "},"m":{"ha":929,"x_min":0,"x_max":869,"o":"m 126 692 q 217 533 204 631 q 218 532 217 533 l 218 525 l 390 689 q 417 678 400 686 q 472 610 458 639 q 506 528 494 576 l 668 689 l 764 589 l 824 649 l 843 628 q 789 528 803 575 l 789 167 q 792 153 789 161 q 796 143 792 156 q 801 131 796 139 q 807 121 806 124 l 811 117 q 822 108 818 110 q 826 107 825 107 l 853 126 l 869 106 l 754 -6 q 678 44 697 4 q 654 138 654 94 l 654 496 q 592 568 638 547 l 503 482 l 503 140 l 549 89 l 546 78 l 439 -3 l 422 0 l 321 86 q 367 143 351 97 l 367 485 q 365 490 365 486 l 365 497 q 364 503 364 499 q 351 536 363 514 q 343 550 349 542 q 339 557 342 553 q 332 563 336 561 q 319 567 328 564 q 314 568 318 567 l 307 568 l 213 476 l 213 149 q 229 121 218 140 q 249 99 240 107 q 254 92 251 97 q 258 87 257 88 q 261 83 258 86 l 146 -11 l 38 86 l 81 132 l 78 542 l 51 574 l 14 554 l 0 574 l 126 692 z "},"n":{"ha":631,"x_min":11,"x_max":585,"o":"m 124 692 q 188 619 161 658 q 215 533 214 581 l 388 689 l 482 594 l 539 643 l 557 625 q 554 619 556 621 l 551 617 q 500 528 514 579 l 500 156 q 501 149 500 156 q 505 139 503 142 q 508 129 507 136 q 513 124 510 128 q 517 119 515 121 q 524 111 518 118 q 533 103 529 104 l 563 126 l 585 103 l 457 -6 q 406 28 426 4 q 374 83 382 60 l 374 503 q 371 505 371 503 q 369 510 371 507 q 367 513 368 513 q 358 529 364 522 q 338 554 350 546 q 313 571 326 568 l 299 574 l 213 490 l 213 156 q 226 128 217 143 q 243 104 235 113 q 249 98 246 103 q 252 92 251 93 q 256 89 253 92 q 146 -3 190 18 l 43 92 l 83 135 l 83 522 q 76 540 83 529 q 63 560 72 547 q 54 568 54 564 l 24 557 l 11 576 l 124 692 z "},"o":{"ha":567,"x_min":17,"x_max":476,"o":"m 250 692 q 339 634 288 660 q 431 597 390 608 l 476 585 l 476 106 l 267 -6 l 89 86 l 17 106 l 46 149 l 54 194 l 54 576 q 158 617 107 586 q 250 689 210 649 l 250 692 m 189 568 l 189 169 l 342 103 l 342 503 l 189 568 z "},"p":{"ha":601,"x_min":3,"x_max":506,"o":"m 121 692 l 124 692 q 132 688 128 688 q 135 688 133 688 q 138 685 136 686 q 142 683 139 683 q 147 681 144 683 q 150 678 149 679 q 154 676 151 678 q 158 673 157 674 q 162 669 160 672 q 165 666 164 667 q 172 658 165 665 q 176 656 174 658 q 178 651 178 653 q 181 647 178 649 q 185 642 183 644 q 186 639 186 640 q 189 635 186 638 q 224 539 219 586 l 374 692 q 465 599 429 654 q 506 476 506 538 l 506 135 q 333 -3 406 69 l 226 49 l 226 42 q 225 38 225 40 l 225 33 q 224 29 224 32 l 224 24 q 219 0 219 3 q 218 -17 218 -3 q 293 -189 218 -122 l 271 -189 q 267 -187 269 -187 l 254 -187 q 250 -186 253 -186 l 242 -186 q 188 -150 204 -167 q 140 -106 179 -144 q 133 -112 133 -106 q 35 -161 79 -161 l 29 -161 q 75 -94 58 -132 q 94 -17 94 -50 l 94 92 q 83 90 90 90 q 78 92 82 90 l 71 92 l 71 93 l 68 93 q 46 96 60 93 q 36 97 38 96 l 26 97 l 11 100 l 11 146 q 14 142 11 142 l 19 142 q 21 140 19 142 l 31 140 q 35 142 33 140 q 40 143 38 143 q 44 144 42 143 l 49 144 q 53 146 50 144 l 57 146 q 92 186 78 163 l 92 511 q 89 519 90 513 q 88 529 88 525 q 75 556 81 550 q 72 563 75 558 q 67 569 68 567 q 63 574 65 571 q 57 579 60 578 l 19 557 l 3 574 l 121 692 m 304 568 q 281 546 299 560 q 221 476 240 506 l 221 172 l 374 124 l 374 490 q 344 532 358 511 q 304 565 325 556 l 304 568 z "},"q":{"ha":567,"x_min":49,"x_max":528,"o":"m 244 692 q 503 546 324 613 l 468 506 l 468 -37 q 485 -107 468 -76 q 528 -167 504 -143 q 472 -150 499 -167 q 424 -112 442 -131 l 417 -106 q 372 -151 400 -132 q 318 -178 344 -171 q 313 -179 317 -178 l 306 -179 q 300 -181 304 -179 l 275 -181 q 271 -179 274 -179 l 267 -179 q 264 -178 265 -178 q 299 -147 281 -168 q 314 -128 304 -140 q 320 -118 317 -125 q 324 -108 324 -111 q 326 -104 325 -106 q 331 -94 328 -97 l 331 129 l 164 -11 q 95 40 125 6 q 49 118 65 75 l 51 574 q 156 618 94 585 q 244 689 204 644 l 244 692 m 181 557 l 181 172 q 250 92 181 113 l 333 172 l 333 482 l 181 557 z "},"r":{"ha":481,"x_min":3,"x_max":436,"o":"m 118 692 l 121 692 q 129 688 125 688 q 132 688 131 688 q 135 685 133 686 q 139 683 136 683 q 151 673 147 675 q 158 668 156 671 q 161 664 160 665 q 165 660 163 663 q 169 657 168 658 q 172 653 169 656 q 174 649 174 650 q 178 640 174 653 q 186 629 182 638 q 190 621 189 628 q 193 613 190 621 q 196 610 194 613 q 197 604 197 607 q 199 597 197 601 q 202 592 201 593 q 205 585 203 592 q 208 576 207 578 q 210 572 208 575 q 210 568 210 571 l 344 689 l 433 585 l 436 574 l 344 490 l 264 576 l 210 528 l 210 167 q 278 113 238 131 l 328 156 l 353 132 l 192 -6 q 35 107 121 71 q 67 153 60 126 q 83 210 83 176 l 83 515 q 82 521 82 517 l 82 526 q 80 533 81 528 q 67 560 79 538 q 46 579 58 572 l 14 563 l 3 582 l 118 692 z "},"s":{"ha":601,"x_min":24,"x_max":525,"o":"m 471 781 l 485 781 q 511 761 506 772 q 524 728 522 739 q 525 724 524 726 l 525 701 q 524 692 524 697 l 519 675 l 519 671 q 518 668 518 669 l 518 665 q 517 663 517 664 l 367 447 l 496 367 l 496 100 q 410 58 436 75 q 332 6 363 31 q 328 3 331 6 q 323 1 325 1 q 319 -1 321 0 q 316 -4 318 -3 q 313 -6 314 -6 q 265 17 297 3 q 215 32 243 25 q 204 35 213 32 q 197 36 201 35 q 192 36 193 36 q 179 38 183 36 l 154 38 q 142 36 150 36 q 78 19 124 33 q 43 0 67 15 l 24 14 l 189 256 l 63 333 l 63 571 q 207 671 129 593 l 215 679 q 218 683 217 681 q 219 685 219 685 q 224 689 219 685 l 367 638 q 375 632 372 632 l 379 632 q 383 631 381 631 q 398 626 396 626 q 407 625 400 625 q 424 626 419 625 q 457 638 436 631 q 472 648 465 644 q 485 674 479 651 l 485 700 q 476 706 483 703 q 468 715 476 708 q 462 724 467 722 q 457 728 457 726 l 453 732 l 453 733 q 451 735 451 733 l 451 738 q 449 740 450 738 q 447 743 447 742 l 447 749 q 448 753 447 750 q 456 765 449 756 q 468 776 460 771 l 469 778 l 471 778 l 471 781 m 288 336 l 153 140 q 161 138 156 138 q 165 139 163 138 l 169 139 q 195 142 189 142 q 207 143 201 142 l 228 143 q 238 142 229 142 l 249 142 q 261 140 253 140 q 290 135 269 139 q 319 125 300 132 q 376 97 349 114 l 376 278 l 288 336 m 186 404 l 264 358 l 388 536 q 375 531 382 531 l 368 531 q 361 529 364 529 l 353 529 q 346 528 351 528 l 333 528 q 260 538 338 528 q 186 563 235 544 l 186 404 z "},"t":{"ha":418,"x_min":32,"x_max":361,"o":"m 218 869 l 218 663 l 361 663 l 361 594 l 215 594 l 215 158 l 281 103 l 331 140 l 350 118 l 201 -11 q 128 51 156 32 q 43 100 82 83 q 69 150 61 125 q 83 204 83 193 l 83 589 l 32 594 l 40 619 l 218 869 z "},"u":{"ha":631,"x_min":11,"x_max":579,"o":"m 138 692 l 149 692 l 250 603 q 222 556 240 574 q 210 543 222 556 l 207 181 q 216 143 207 160 q 242 113 225 126 l 243 113 q 245 110 243 111 q 248 108 247 108 q 250 107 249 108 l 250 106 l 253 106 q 256 103 253 103 l 258 103 l 264 110 l 267 110 l 364 199 l 364 546 l 324 594 l 433 692 l 533 603 l 539 589 l 500 542 l 500 149 q 507 128 500 149 q 518 114 511 124 q 521 111 518 111 q 528 104 521 104 q 531 100 528 103 l 560 121 l 579 103 l 460 -11 l 453 -11 q 449 -10 451 -10 q 439 -7 447 -10 q 431 -3 438 -6 q 361 138 361 44 l 361 140 q 363 143 361 142 l 363 149 q 364 151 363 150 l 364 153 l 175 -6 q 173 -4 175 -6 q 169 -1 171 -3 l 168 0 l 165 0 q 108 58 132 26 q 75 126 83 89 l 75 546 l 49 574 l 26 560 l 11 576 l 138 692 z "},"v":{"ha":601,"x_min":24,"x_max":503,"o":"m 164 869 l 175 853 q 140 813 163 840 q 126 791 131 800 q 122 769 122 782 q 121 764 121 768 l 121 758 q 122 746 121 750 q 132 719 122 749 q 140 708 139 713 q 213 533 200 638 l 404 692 q 492 601 435 663 q 497 594 496 597 q 499 590 497 590 q 503 586 500 589 l 503 115 q 471 83 492 90 q 450 75 457 81 q 440 72 447 75 q 429 69 432 69 q 425 67 426 68 q 421 65 424 65 l 418 65 q 415 64 417 64 q 404 61 407 61 q 398 60 401 61 q 392 57 394 58 q 371 50 378 54 q 351 38 364 46 l 331 25 q 294 0 315 13 q 286 -6 290 -4 l 281 -11 q 26 113 168 92 q 61 161 53 139 q 78 221 78 192 l 78 568 q 49 607 68 582 q 31 651 42 621 q 25 672 28 658 q 24 694 24 678 l 24 706 q 25 713 24 707 l 25 719 q 47 779 29 746 q 94 832 57 797 q 103 838 97 835 q 111 843 108 842 q 117 847 114 844 q 123 849 119 849 q 129 853 126 850 q 147 861 138 858 q 157 865 156 864 q 164 867 158 867 l 164 869 m 318 571 l 213 488 l 213 172 l 367 103 l 367 492 q 365 496 365 493 l 365 500 q 364 504 364 501 q 349 542 361 524 q 322 567 336 560 l 319 567 l 319 568 l 318 568 l 318 571 z "},"w":{"ha":871,"x_min":17,"x_max":764,"o":"m 161 867 l 161 838 q 139 814 158 833 q 129 803 136 811 q 119 792 122 796 q 115 785 115 789 q 113 776 113 776 q 113 774 113 775 q 111 769 111 771 l 111 761 q 110 753 110 760 l 110 746 q 174 646 149 697 q 207 533 204 594 l 385 694 q 482 531 467 622 l 493 533 l 663 692 q 668 688 664 688 l 676 688 q 682 685 679 685 l 686 685 q 688 683 686 683 q 690 679 689 682 q 694 676 692 676 q 736 611 715 647 q 764 539 754 585 l 764 115 q 753 107 757 108 q 741 100 746 101 q 728 94 736 99 q 717 89 721 90 q 636 42 688 72 q 596 18 613 28 q 560 -6 592 14 l 510 15 q 457 36 489 26 q 413 47 442 40 q 371 51 396 51 q 242 -6 299 51 q 231 3 236 0 q 222 8 226 7 l 201 25 q 174 46 190 35 q 100 88 106 85 q 19 107 58 107 q 58 154 46 128 q 69 213 69 181 l 69 557 q 17 697 17 644 q 18 714 17 706 q 26 747 18 714 q 30 756 28 750 q 32 764 32 761 q 78 818 56 796 q 135 861 100 840 l 139 861 q 142 863 140 861 l 147 863 q 150 864 149 863 l 153 864 l 161 867 m 585 563 l 485 468 l 485 158 l 638 100 l 638 511 q 619 544 636 526 q 585 560 608 560 l 585 563 m 301 571 l 204 479 l 204 183 l 215 172 l 347 110 l 347 508 q 346 521 347 514 q 339 539 344 528 q 331 547 339 539 q 321 556 328 551 q 301 568 310 567 l 301 571 z "},"x":{"ha":660,"x_min":24,"x_max":597,"o":"m 153 692 l 156 692 q 164 689 158 690 q 173 685 169 688 q 180 682 176 683 q 186 678 183 681 q 191 676 189 676 q 199 668 193 675 q 207 660 203 667 q 217 651 208 660 q 224 644 221 650 q 233 633 228 639 q 238 629 235 632 q 240 624 240 626 q 253 608 251 613 q 297 538 269 585 q 333 463 311 515 l 431 692 l 563 611 l 522 506 l 414 549 l 358 414 l 485 161 q 510 123 497 136 q 546 97 524 110 l 576 121 l 597 103 l 471 -11 q 428 24 465 -7 q 390 67 415 38 l 281 269 l 164 -11 l 38 67 q 46 103 38 61 q 61 142 47 107 q 81 181 67 156 l 186 135 l 258 315 l 158 517 q 121 551 131 544 q 78 579 103 568 l 38 557 l 24 574 l 153 692 z "},"y":{"ha":601,"x_min":3,"x_max":519,"o":"m 146 689 q 158 684 149 686 q 174 677 168 682 q 193 656 179 672 q 202 647 197 653 q 213 632 207 640 q 214 628 213 629 q 219 624 215 628 q 224 617 222 619 l 228 604 q 232 590 229 599 l 236 578 q 239 565 238 574 q 243 544 240 556 l 247 528 l 425 689 l 436 689 q 500 556 478 619 q 513 508 504 540 q 518 475 515 503 q 519 460 518 464 l 519 438 q 518 429 518 433 l 518 415 q 513 392 517 407 q 508 368 510 376 q 385 189 468 261 q 92 -8 264 85 q 63 -37 72 -25 q 43 -78 53 -49 l 43 -86 q 44 -97 43 -93 q 54 -125 44 -96 q 63 -137 61 -132 q 138 -167 108 -164 q 146 -168 142 -167 l 153 -168 q 161 -169 160 -168 l 182 -169 q 186 -168 183 -168 q 213 -162 204 -165 q 232 -149 221 -160 l 232 -146 l 233 -146 q 235 -144 233 -144 q 258 -117 242 -131 q 290 -103 275 -103 q 310 -125 299 -108 q 311 -128 310 -126 l 311 -129 q 313 -132 311 -131 l 313 -136 q 311 -137 311 -136 l 311 -144 q 310 -146 310 -144 l 310 -149 q 264 -182 293 -172 q 203 -197 221 -197 l 186 -197 q 178 -199 185 -197 l 149 -199 q 142 -197 144 -197 q 83 -189 121 -196 q 8 -103 8 -171 q 15 -62 8 -85 q 69 21 29 -19 q 93 61 82 36 q 106 103 104 86 l 106 531 q 99 551 103 539 q 96 556 96 553 l 96 558 q 94 560 94 558 q 86 564 93 563 q 78 568 85 567 q 50 551 68 564 q 39 542 47 549 q 26 531 31 535 l 3 554 l 146 689 m 333 557 l 244 476 l 244 124 q 338 226 296 160 q 389 354 379 293 q 392 378 389 364 q 393 390 392 385 l 393 411 q 392 419 392 413 l 392 429 q 390 439 390 431 q 333 554 381 507 l 333 557 z "},"z":{"ha":481,"x_min":24,"x_max":393,"o":"m 201 692 q 271 620 228 654 q 358 571 314 586 l 390 574 l 204 393 q 222 389 210 389 q 228 389 225 389 q 233 386 231 388 q 240 385 235 385 q 347 329 300 374 q 393 226 393 285 l 393 224 q 392 219 392 222 l 392 211 q 390 207 390 210 l 390 201 q 314 74 371 118 q 189 -8 253 25 q 175 -15 185 -11 q 172 -18 175 -17 q 167 -19 169 -19 q 163 -22 164 -19 q 158 -26 161 -24 q 155 -28 154 -28 q 143 -32 156 -28 q 135 -38 140 -35 q 128 -42 129 -42 q 125 -44 126 -43 l 124 -44 l 124 -46 q 122 -49 122 -46 q 114 -58 121 -51 q 100 -86 108 -69 q 97 -100 97 -97 l 97 -107 q 99 -115 97 -112 q 101 -120 100 -118 q 103 -124 103 -122 q 106 -128 104 -125 q 109 -132 108 -131 q 112 -135 110 -133 q 114 -139 114 -137 l 121 -146 q 126 -149 124 -147 q 129 -150 128 -150 q 133 -151 131 -150 q 136 -151 135 -151 q 143 -153 138 -151 l 154 -153 q 161 -151 156 -151 l 168 -151 q 172 -149 169 -150 q 178 -149 175 -149 l 181 -149 q 186 -146 183 -146 l 197 -146 q 201 -149 199 -147 q 210 -156 204 -150 l 215 -161 q 178 -199 215 -199 q 169 -197 175 -199 q 165 -197 168 -197 q 158 -196 163 -196 q 142 -190 154 -196 q 114 -176 129 -185 q 107 -173 111 -176 q 100 -168 103 -169 l 90 -158 q 83 -150 88 -157 l 81 -147 q 76 -142 78 -144 q 72 -132 75 -140 q 68 -117 69 -124 q 67 -108 67 -111 l 67 -93 q 68 -89 67 -92 q 68 -85 68 -87 q 74 -68 69 -79 q 83 -51 79 -57 q 89 -37 86 -44 q 101 -29 93 -35 q 111 -22 108 -24 q 117 -17 114 -21 q 124 -12 121 -14 q 135 -3 126 -10 q 247 178 247 85 l 247 186 q 246 197 246 190 q 240 215 246 203 q 237 225 238 224 q 233 237 236 226 q 229 247 229 247 q 227 249 229 246 q 224 253 225 253 q 193 274 215 264 q 158 285 188 278 q 151 286 156 285 l 144 286 q 139 288 143 286 l 124 288 q 114 286 119 286 l 106 286 q 97 285 101 285 q 83 283 92 285 q 68 278 75 281 q 58 276 61 276 q 52 275 56 276 q 46 272 49 274 l 43 272 q 40 271 42 271 l 38 271 q 35 269 36 269 l 242 476 l 118 589 l 43 542 l 24 560 l 201 692 z "},"{":{"ha":539,"x_min":8,"x_max":476,"o":"m 321 1188 q 381 1165 329 1185 q 433 1131 406 1157 q 443 1113 436 1125 q 448 1103 444 1110 q 453 1093 451 1097 q 465 1058 454 1089 q 468 1055 467 1058 q 469 1050 469 1051 q 472 1041 469 1049 q 474 1032 474 1033 q 476 1028 475 1031 q 476 1022 476 1025 l 468 1022 q 464 1019 467 1019 q 461 1021 463 1019 q 458 1024 460 1022 l 456 1024 q 454 1025 456 1024 l 453 1025 q 449 1030 450 1028 q 447 1033 447 1032 q 422 1061 435 1051 q 393 1085 415 1069 q 324 1076 388 1085 l 290 1072 q 256 1068 279 1071 q 186 1090 224 1072 q 164 1099 189 1090 q 269 896 250 1004 l 269 675 q 226 574 254 617 l 167 525 l 226 476 q 254 417 246 440 q 269 358 269 374 l 269 103 q 222 -1 253 40 q 153 -92 201 -37 q 274 -49 210 -49 l 290 -49 q 316 -49 308 -49 q 343 -53 324 -50 q 360 -56 349 -53 q 375 -58 364 -56 l 392 -62 q 407 -67 397 -64 q 408 -63 407 -64 q 411 -60 410 -62 q 414 -56 413 -57 q 418 -53 415 -56 l 419 -53 q 420 -51 419 -51 q 422 -50 421 -51 l 422 -49 q 427 -45 425 -49 q 431 -40 429 -42 q 435 -36 432 -39 q 439 -31 438 -33 q 446 -22 440 -28 q 453 -12 451 -15 q 458 -8 456 -8 l 464 -8 q 469 -6 467 -6 l 476 -6 q 472 -24 475 -12 q 468 -35 468 -35 q 374 -158 438 -126 l 357 -158 q 349 -160 356 -158 l 317 -160 q 307 -161 311 -160 l 285 -161 q 269 -160 279 -160 l 254 -160 q 240 -158 251 -160 q 190 -153 224 -157 q 165 -150 178 -150 q 155 -149 163 -150 q 143 -146 147 -147 q 124 -121 138 -139 q 103 -100 117 -114 q 106 -92 103 -100 q 108 -83 106 -92 q 113 -58 108 -83 q 116 -35 115 -42 q 121 -15 117 -28 q 140 86 138 46 q 142 100 140 90 l 142 113 q 143 126 142 121 l 143 163 q 142 186 143 163 q 139 233 139 233 q 136 256 136 247 l 136 267 q 135 279 135 269 q 129 331 135 289 q 126 385 126 364 l 81 482 l 8 517 l 86 582 l 121 660 q 124 710 121 674 q 126 735 124 715 q 129 764 129 754 l 129 771 q 131 775 129 772 l 131 778 q 133 824 131 793 q 136 869 136 854 q 138 899 138 879 l 138 913 q 136 926 136 917 l 136 942 q 135 956 135 946 l 131 989 q 124 1021 128 1008 q 100 1085 118 1046 q 101 1090 100 1088 q 104 1094 103 1092 l 104 1097 q 106 1102 104 1100 q 108 1107 107 1104 l 111 1110 q 121 1133 115 1118 l 169 1163 q 208 1169 183 1164 q 246 1176 221 1172 q 321 1185 293 1183 l 321 1188 z "},"|":{"ha":929,"x_min":374,"x_max":493,"o":"m 374 944 l 493 944 l 493 -11 l 374 -11 l 374 944 z "},"}":{"ha":567,"x_min":26,"x_max":490,"o":"m 181 1188 q 206 1183 190 1183 q 257 1176 254 1176 q 306 1167 260 1176 q 318 1164 314 1164 l 331 1160 l 382 1136 q 388 1115 385 1129 q 390 1112 389 1115 q 392 1107 392 1108 q 394 1097 392 1106 q 396 1094 394 1096 l 396 1090 q 399 1085 396 1088 q 376 1029 390 1068 q 361 956 369 1004 q 360 938 360 950 q 358 904 358 919 q 361 843 358 885 q 365 813 361 835 q 368 781 368 792 l 368 775 q 369 771 368 774 q 374 714 371 751 q 379 657 378 676 l 414 582 l 490 517 l 419 482 l 376 388 q 376 374 376 382 q 375 363 375 365 q 372 338 374 354 q 367 290 371 322 q 367 285 367 289 q 365 279 365 282 q 364 267 364 276 q 356 138 356 192 l 356 115 q 357 111 356 114 q 357 107 357 110 q 365 33 357 74 q 385 -35 369 17 q 387 -59 385 -50 q 392 -83 389 -68 q 393 -87 392 -85 l 393 -92 q 396 -100 393 -97 q 383 -112 388 -106 q 371 -129 379 -119 q 368 -133 368 -132 l 364 -137 q 358 -146 363 -142 q 318 -149 349 -146 q 275 -157 304 -151 l 264 -157 q 256 -160 264 -157 q 186 -167 193 -167 q 131 -158 158 -167 q 83 -129 103 -149 q 49 -69 61 -97 q 26 -6 36 -42 l 32 -6 q 35 -7 33 -6 l 38 -7 q 40 -8 39 -7 l 43 -8 q 48 -11 46 -8 q 52 -16 50 -14 q 55 -19 54 -18 q 58 -24 56 -21 q 60 -26 60 -26 q 72 -40 64 -31 l 78 -46 q 81 -50 78 -47 l 83 -53 q 86 -57 83 -54 l 89 -60 q 92 -64 89 -61 l 94 -67 q 181 -50 124 -58 q 210 -49 190 -49 q 232 -50 219 -49 q 304 -68 263 -51 q 347 -92 329 -78 q 279 -2 311 -53 q 232 100 247 49 l 232 117 q 231 132 231 121 l 231 149 q 229 165 229 154 q 228 171 228 167 l 228 176 q 225 215 226 194 q 224 253 224 235 l 224 274 q 225 285 224 281 l 225 296 q 239 390 225 338 q 275 479 253 442 l 331 525 l 275 568 l 232 660 l 232 901 q 339 1099 272 1015 l 326 1094 q 315 1090 314 1090 q 296 1082 304 1088 q 286 1078 293 1079 q 278 1076 279 1076 q 263 1071 272 1075 q 260 1071 261 1071 q 254 1069 257 1069 q 247 1068 251 1068 q 178 1076 224 1071 l 144 1081 q 110 1085 133 1082 q 79 1061 89 1071 q 54 1033 65 1051 q 51 1029 53 1032 q 49 1025 49 1026 l 47 1025 q 44 1024 46 1024 l 43 1024 l 42 1022 l 40 1022 l 39 1021 l 36 1021 l 35 1019 l 32 1019 l 26 1025 q 31 1044 26 1031 q 38 1063 36 1058 q 86 1146 53 1113 q 172 1185 125 1185 l 181 1188 z "},"~":{"ha":926,"x_min":90,"x_max":836,"o":"m 793 572 l 836 572 q 789 413 832 475 q 646 340 738 340 q 390 419 581 340 q 250 461 293 461 q 133 340 153 461 l 90 340 q 135 499 96 439 q 274 574 183 574 q 349 563 313 574 q 535 493 418 544 q 632 456 600 464 q 676 450 653 450 q 793 572 779 450 z "},"":{"ha":390,"x_min":93,"x_max":293,"o":"m 93 108 l 194 208 l 293 115 q 110 -121 257 -50 l 93 -97 q 147 -44 139 -60 q 164 6 164 -19 q 93 108 164 51 z "},"":{"ha":678,"x_min":10,"x_max":669,"o":"m 450 617 l 314 28 q 310 -7 310 7 q 342 -72 310 -50 l 333 -89 q 138 -193 239 -115 l 10 -65 l 29 -47 l 72 -89 l 163 -31 l 313 617 l 249 617 l 267 693 l 331 693 l 368 856 q 549 972 483 924 l 669 940 l 622 826 l 506 856 l 467 693 l 574 693 l 556 617 l 450 617 z "},"":{"ha":622,"x_min":93,"x_max":563,"o":"m 93 108 l 194 208 l 293 115 q 110 -121 257 -50 l 93 -97 q 147 -44 139 -60 q 164 6 164 -19 q 93 108 164 51 m 363 108 l 464 208 l 563 115 q 379 -121 526 -50 l 363 -97 q 417 -44 408 -60 q 433 6 433 -19 q 363 108 433 51 z "},"":{"ha":1403,"x_min":131,"x_max":1274,"o":"m 233 0 l 131 103 l 233 207 l 338 103 l 233 0 m 701 0 l 599 103 l 701 207 l 806 103 l 701 0 m 1169 0 l 1067 103 l 1169 207 l 1274 103 l 1169 0 z "},"":{"ha":708,"x_min":35,"x_max":672,"o":"m 575 528 q 374 614 488 608 q 464 418 376 497 q 372 -196 372 210 q 374 -229 372 -207 l 338 -229 q 311 192 333 51 q 246 418 294 300 q 339 614 332 494 q 135 526 236 611 l 35 632 l 135 733 q 338 649 232 658 q 310 785 332 725 q 247 900 294 829 l 356 1001 l 464 897 q 374 649 378 799 q 575 733 488 658 l 672 631 l 575 528 z "},"":{"ha":708,"x_min":35,"x_max":674,"o":"m 574 528 q 372 614 483 607 q 463 390 379 492 q 372 160 385 304 q 574 246 471 165 l 674 143 l 574 40 q 372 125 479 113 q 465 -125 381 -26 l 354 -229 l 246 -125 q 335 125 324 -29 q 135 40 232 117 l 35 143 l 135 246 q 335 160 229 164 q 246 390 324 297 q 335 614 324 476 q 135 528 228 608 l 35 631 l 135 735 q 335 649 224 654 q 246 900 325 796 l 354 1001 l 463 900 q 372 649 379 811 q 574 735 481 656 l 671 631 l 574 528 z "},"":{"ha":481,"x_min":22,"x_max":422,"o":"m 63 726 l 22 726 l 150 981 l 297 981 l 422 726 l 382 726 l 224 872 l 63 726 z "},"":{"ha":1528,"x_min":35,"x_max":1422,"o":"m 754 517 q 897 415 840 486 q 953 256 953 344 l 953 246 q 951 235 951 242 l 951 225 q 949 213 950 221 q 947 201 947 206 q 940 174 940 174 q 939 170 940 174 q 936 164 938 167 q 860 58 906 104 q 761 -24 814 13 q 633 42 678 6 q 557 161 579 86 l 557 167 q 555 172 556 168 q 554 182 554 175 q 553 188 553 183 l 553 190 q 551 193 551 190 q 549 208 549 201 l 549 224 q 608 399 549 318 q 754 514 668 479 l 754 517 m 678 425 q 646 374 663 404 q 628 321 639 356 q 623 297 624 306 q 622 275 622 289 q 746 86 622 143 q 763 80 754 85 q 772 74 771 75 q 782 71 774 74 q 792 67 790 68 q 801 64 794 65 q 810 61 808 63 q 818 60 813 60 q 876 182 861 103 l 876 196 q 878 203 876 197 l 878 219 q 876 228 876 221 q 854 301 876 260 q 821 350 842 333 q 678 422 747 408 l 678 425 m 714 878 l 783 878 l 692 718 l 278 -14 l 207 -14 l 299 143 l 714 878 m 232 883 q 243 879 236 879 l 250 879 q 257 878 251 878 q 331 840 286 875 q 393 781 363 817 q 400 772 394 778 q 403 768 401 771 q 407 763 406 765 q 412 754 408 760 q 417 746 415 749 q 431 707 424 731 q 442 665 435 693 q 446 639 443 657 q 447 626 446 631 l 447 614 q 439 558 447 586 q 419 506 435 540 q 347 422 381 457 q 269 347 314 386 l 268 347 q 265 345 267 346 q 261 343 264 344 q 257 342 258 342 l 253 342 q 247 339 250 339 l 239 339 q 238 340 239 339 l 233 340 l 233 342 l 232 342 q 96 443 149 381 q 35 597 35 515 q 36 617 35 610 q 40 639 36 619 q 42 642 40 640 l 42 646 q 43 653 42 651 q 46 658 44 656 l 46 663 q 47 667 46 665 q 49 672 49 669 q 74 726 57 697 q 232 881 142 847 l 232 883 m 169 786 q 147 746 161 772 q 119 671 140 733 q 115 635 115 633 q 125 574 115 642 q 127 567 126 568 q 131 558 128 567 q 133 556 132 558 q 135 552 135 553 q 138 543 135 551 q 212 463 168 492 q 315 425 256 433 q 350 474 333 439 q 369 538 363 497 l 369 551 q 371 558 369 553 l 371 583 q 369 589 369 585 q 315 711 358 676 q 301 722 310 715 q 296 727 299 725 q 291 732 293 729 q 286 735 289 735 q 246 760 265 751 q 204 779 236 768 q 188 782 199 779 q 181 783 185 782 l 172 783 l 169 786 m 1224 514 q 1366 413 1310 483 q 1422 253 1422 342 l 1422 243 q 1421 232 1421 239 l 1421 222 q 1418 210 1419 218 q 1417 199 1417 203 q 1410 171 1410 171 q 1408 167 1410 171 q 1406 161 1407 164 q 1329 56 1375 101 q 1231 -26 1283 10 q 1103 39 1147 3 q 1026 158 1049 83 l 1026 164 q 1024 169 1025 165 q 1024 179 1024 172 q 1022 185 1022 181 l 1022 188 q 1021 190 1021 188 q 1018 206 1018 199 l 1018 221 q 1078 396 1018 315 q 1224 511 1138 476 l 1224 514 m 1147 422 q 1115 371 1132 401 q 1097 318 1108 353 q 1092 294 1093 303 q 1092 272 1092 286 q 1215 83 1092 140 q 1232 77 1224 82 q 1242 72 1240 72 q 1251 68 1243 71 q 1262 64 1260 65 q 1271 61 1264 63 q 1280 58 1278 60 q 1288 57 1282 57 q 1346 179 1331 100 l 1346 193 q 1347 200 1346 194 l 1347 217 q 1346 225 1346 218 q 1324 299 1346 257 q 1290 347 1311 331 q 1147 419 1217 406 l 1147 422 z "},"":{"ha":1107,"x_min":0,"x_max":1014,"o":"m 396 958 l 671 856 l 703 915 l 732 901 l 597 654 l 625 654 q 719 642 657 651 q 916 553 822 622 q 1013 371 1010 483 q 960 219 1014 293 q 850 103 911 154 l 651 -17 l 638 -17 l 465 54 l 272 -17 q 244 -22 264 -19 l 214 -26 q 203 -28 207 -26 l 192 -28 q 182 -29 183 -28 l 172 -29 q 67 -6 124 -29 q 3 75 18 15 q 0 83 1 79 l 0 107 q 124 246 0 200 q 181 258 151 256 l 215 261 q 238 258 219 258 l 250 258 q 281 256 258 256 q 297 254 286 254 l 331 250 l 353 293 q 344 289 351 289 l 329 289 q 325 288 328 288 l 293 288 q 283 288 286 288 q 275 290 279 289 q 269 290 271 290 q 35 460 76 311 l 35 463 q 33 464 33 463 l 33 471 q 32 472 32 471 l 32 476 q 64 565 32 532 q 146 622 101 606 q 182 731 154 676 q 244 818 210 786 l 396 958 m 118 126 q 60 76 72 111 q 57 68 57 74 l 57 60 q 58 51 57 58 q 59 48 58 50 q 61 44 60 46 q 61 42 61 43 q 65 36 63 40 q 71 29 68 32 q 82 18 76 22 q 111 4 88 14 q 142 -1 121 3 q 164 -4 150 -1 q 175 -6 171 -4 l 201 -6 q 217 -4 206 -4 q 339 26 293 7 q 419 67 363 36 l 224 121 q 213 119 219 119 q 206 121 210 119 q 200 121 201 121 q 188 122 192 121 l 174 122 q 165 124 172 122 l 143 124 l 118 126 m 611 503 q 575 496 600 496 l 563 496 q 526 492 542 492 q 514 490 521 490 l 474 428 l 678 436 q 696 432 683 432 q 715 428 696 432 q 798 381 758 418 q 838 299 838 344 l 838 296 q 836 292 836 294 l 836 281 q 835 276 835 279 l 835 269 q 833 267 835 268 q 831 263 832 265 q 829 257 829 260 q 807 226 824 247 q 802 219 806 224 q 797 213 799 214 q 783 199 796 211 l 654 132 l 764 86 q 860 176 818 118 q 901 296 901 235 l 901 307 q 897 331 900 315 q 894 342 897 335 q 886 364 890 356 q 881 376 885 368 q 875 388 876 383 q 625 500 803 500 l 611 503 m 668 304 l 396 288 l 371 235 l 594 156 q 611 154 600 151 q 628 161 618 156 q 649 176 638 167 q 658 185 651 179 q 668 194 664 190 q 696 238 690 221 q 699 249 696 240 q 700 256 699 250 l 700 274 q 699 279 699 275 l 699 282 q 697 284 697 282 q 695 288 696 286 q 683 294 694 289 q 678 297 682 296 q 673 299 674 299 q 671 301 672 300 l 668 301 l 668 304 m 158 589 q 147 579 156 585 q 139 569 147 578 q 135 565 139 569 q 132 561 132 561 q 125 540 125 540 q 124 536 125 539 l 124 525 q 125 522 124 524 q 153 472 132 492 q 207 438 168 458 q 222 431 213 435 q 226 431 225 431 q 231 428 229 429 q 238 428 232 428 l 247 428 q 258 426 249 426 q 278 425 267 425 q 339 419 328 419 l 375 419 q 394 422 381 419 l 397 422 q 408 424 404 422 l 418 424 q 428 425 424 424 l 436 425 l 468 493 q 456 488 463 488 l 450 488 q 444 486 449 486 q 422 482 424 482 q 400 479 408 479 q 381 476 386 476 l 353 476 q 342 478 346 476 q 158 586 204 483 l 158 589 m 356 821 q 281 783 310 811 q 253 715 253 754 q 253 703 253 707 q 257 690 254 699 q 260 681 257 689 q 264 672 263 679 q 336 625 290 625 l 344 632 l 551 643 l 600 726 q 586 732 603 726 q 583 735 586 733 q 578 738 581 738 q 572 742 576 738 q 540 760 557 750 l 507 776 q 439 804 482 789 q 400 815 417 813 q 361 818 383 818 l 356 821 m 692 1264 l 732 1264 l 604 1010 l 458 1010 l 332 1264 l 372 1264 l 531 1118 l 692 1264 z "},"":{"ha":510,"x_min":89,"x_max":379,"o":"m 269 557 l 379 557 l 201 336 l 376 118 l 269 118 l 89 333 l 269 557 z "},"":{"ha":1729,"x_min":-6,"x_max":1631,"o":"m 608 401 q 606 399 607 397 l 604 399 q 601 397 603 397 q 524 368 564 392 q 471 307 485 340 l 471 83 q 654 154 563 93 q 778 307 742 213 q 742 356 768 340 q 644 396 703 389 q 614 399 622 399 l 608 401 m 376 794 l 376 431 q 367 376 376 401 q 346 332 360 363 q 343 328 343 329 l 343 326 l 342 325 l 232 204 q 324 131 274 157 q 436 97 374 106 l 436 794 l 376 794 m 250 718 l 244 718 q 242 715 243 714 l 240 714 l 239 714 q 236 713 238 713 l 233 713 q 229 709 231 710 q 226 708 228 708 q 164 604 181 644 q 125 467 128 519 q 124 439 124 457 q 128 389 124 439 q 142 336 136 353 l 146 324 q 151 310 149 319 q 183 250 161 289 q 210 218 192 239 q 239 260 228 238 q 250 307 250 283 l 250 718 m 471 786 l 471 643 q 568 563 481 585 q 581 560 579 560 q 594 558 582 560 q 614 557 606 557 l 619 557 q 624 558 621 557 l 635 558 q 638 560 636 558 l 640 560 q 754 625 718 574 q 653 720 718 676 q 528 778 589 764 q 503 782 521 779 q 492 783 496 782 l 479 783 l 471 786 m 807 403 l 807 407 q 808 454 807 433 q 807 469 808 457 q 804 486 807 475 q 801 501 804 492 q 798 516 799 511 q 794 532 797 521 q 781 575 794 535 q 778 589 778 583 l 778 592 q 731 557 761 575 q 664 531 708 547 q 646 528 667 531 q 611 525 625 525 l 600 525 q 593 526 597 525 q 588 526 589 526 q 565 531 583 526 q 474 574 517 542 l 474 371 q 521 399 489 382 q 571 418 532 406 q 594 424 574 419 q 607 425 603 424 l 629 425 q 639 424 631 424 q 660 420 653 421 q 694 411 668 419 q 728 396 706 406 q 789 353 760 381 q 800 376 799 368 l 804 389 q 807 401 804 393 l 807 403 m 1318 950 q 1576 867 1440 867 l 1589 867 q 1604 869 1593 867 q 1611 871 1606 869 l 1618 871 q 1625 872 1619 871 l 1631 872 l 1432 660 l 1582 660 l 1513 517 l 1281 517 l 1281 115 q 1284 112 1283 113 q 1288 111 1285 111 l 1296 111 q 1317 107 1317 107 l 1338 107 q 1494 144 1417 107 q 1631 235 1572 181 q 1564 107 1622 163 q 1439 21 1511 56 q 1411 8 1429 15 q 1388 2 1401 7 q 1344 -7 1374 -3 l 1324 -11 q 1305 -12 1317 -11 q 1289 -15 1293 -14 l 1274 -15 q 1260 -17 1264 -15 l 1233 -17 q 996 53 1110 -17 q 836 247 882 124 l 833 256 q 821 239 826 246 l 668 106 l 571 40 l 431 -14 q 424 -15 429 -14 l 417 -15 q 408 -17 415 -15 l 371 -17 q 149 54 246 -17 q 14 247 47 128 l -6 399 l 6 503 l 49 651 l 490 944 q 513 940 497 940 q 524 939 517 940 q 535 936 532 938 q 579 928 550 935 q 838 796 724 893 q 903 699 883 756 q 1106 864 997 829 l 1132 867 q 931 525 931 693 l 931 522 q 932 521 931 522 l 932 517 q 933 515 932 517 l 933 514 q 1011 275 933 378 l 1011 272 l 1013 272 q 1013 271 1013 271 q 1015 269 1014 271 l 1015 268 l 1017 268 l 1017 267 l 1031 301 q 1044 458 1036 353 q 1046 485 1044 467 l 1046 533 q 1044 556 1046 533 q 1042 603 1042 601 q 1039 633 1039 622 q 1036 664 1036 653 l 1036 672 q 1035 679 1035 674 l 1035 688 q 1033 694 1033 689 l 1318 950 m 1243 813 l 1189 764 l 1189 447 l 1178 399 q 1063 254 1114 306 l 1051 243 q 1047 238 1047 239 l 1042 232 q 1243 113 1129 140 l 1243 813 m 1281 792 l 1281 546 l 1453 726 l 1281 792 z "},"":{"ha":871,"x_min":19,"x_max":794,"o":"m 215 956 l 229 956 l 371 901 q 379 897 375 897 q 382 897 381 897 q 385 896 383 896 l 389 896 q 401 894 393 896 q 411 892 408 893 q 417 892 413 892 q 424 890 421 890 q 449 888 432 888 q 461 886 453 886 l 488 886 q 513 887 506 886 q 539 890 519 888 l 547 890 q 557 892 553 890 l 574 892 q 583 893 579 892 l 592 893 l 775 944 q 568 568 638 724 l 724 571 l 708 525 l 546 525 q 532 504 540 515 q 530 501 532 504 q 527 496 528 497 q 524 492 526 494 q 520 486 522 489 q 517 482 518 483 q 517 480 517 481 q 515 476 517 479 q 512 472 513 474 q 509 469 511 471 q 504 463 507 467 q 501 458 501 460 q 496 450 501 456 l 681 453 l 663 407 l 465 407 q 308 226 394 315 q 135 67 232 149 l 304 143 q 329 147 308 143 l 342 151 q 354 154 346 151 q 429 167 406 165 q 506 172 463 172 l 518 172 q 532 171 522 171 l 546 171 q 561 169 550 169 l 569 169 q 578 168 574 168 l 586 168 q 594 167 590 167 l 721 129 l 772 178 q 785 165 772 178 l 790 160 q 794 153 790 157 l 649 -17 l 488 40 q 469 43 483 40 q 433 50 461 43 q 415 53 426 50 q 376 56 413 53 q 358 57 371 56 l 342 57 q 251 50 301 57 q 144 25 200 43 q 43 -8 110 14 l 39 -8 q 36 -10 38 -8 l 26 -10 q 24 -11 25 -10 l 19 -11 l 24 8 q 275 407 174 188 l 110 410 l 129 453 l 301 453 l 344 525 l 172 525 l 194 571 l 382 571 q 689 881 549 767 l 546 813 q 442 782 506 793 q 342 772 388 772 q 244 782 289 772 q 196 793 228 785 l 146 810 l 100 764 l 81 783 l 215 956 m 608 1264 l 649 1264 l 521 1010 l 375 1010 l 249 1264 l 289 1264 l 447 1118 l 608 1264 z "},"":{"ha":390,"x_min":96,"x_max":296,"o":"m 296 785 l 197 685 l 96 779 q 281 1014 133 943 l 296 990 q 242 938 251 953 q 226 888 226 913 q 296 785 226 842 z "},"":{"ha":390,"x_min":93,"x_max":293,"o":"m 93 914 l 194 1014 l 293 921 q 110 685 257 756 l 93 708 q 147 761 139 746 q 164 811 164 786 q 93 914 164 857 z "},"":{"ha":622,"x_min":96,"x_max":550,"o":"m 296 785 l 197 685 l 96 779 q 281 1014 133 943 l 296 990 q 242 938 251 953 q 226 888 226 913 q 296 785 226 842 m 550 785 l 451 685 l 350 779 q 535 1014 388 943 l 550 990 q 496 938 506 953 q 481 888 481 913 q 550 785 481 842 z "},"":{"ha":622,"x_min":93,"x_max":550,"o":"m 93 914 l 194 1014 l 293 921 q 110 685 257 756 l 93 708 q 147 761 139 746 q 164 811 164 786 q 93 914 164 857 m 350 914 l 451 1014 l 550 921 q 367 685 514 756 l 350 708 q 404 761 396 746 q 421 811 421 786 q 350 914 421 857 z "},"":{"ha":486,"x_min":53,"x_max":439,"o":"m 246 653 q 383 597 328 653 q 439 458 439 540 q 383 321 439 378 q 246 264 326 264 q 109 321 165 264 q 53 458 53 378 q 109 597 53 540 q 246 653 165 653 z "},"":{"ha":694,"x_min":-8,"x_max":703,"o":"m -8 378 l 703 378 l 703 317 l -8 317 l -8 378 z "},"":{"ha":1389,"x_min":-8,"x_max":1397,"o":"m -8 378 l 1397 378 l 1397 317 l -8 317 l -8 378 z "},"":{"ha":631,"x_min":85,"x_max":522,"o":"m 113 767 l 85 767 q 121 876 94 840 q 221 932 161 932 q 264 925 238 932 q 319 903 279 921 q 428 869 393 869 q 496 932 475 869 l 522 932 q 379 767 506 767 q 274 797 342 767 q 178 826 206 826 q 113 767 133 826 z "},"":{"ha":1361,"x_min":21,"x_max":1338,"o":"m 35 919 l 528 919 l 543 783 l 521 783 q 389 879 507 879 l 338 879 l 338 486 q 349 417 338 435 q 410 397 361 399 l 410 372 l 156 372 l 156 397 q 213 418 203 401 q 224 486 224 435 l 224 879 l 172 879 q 83 859 113 879 q 43 783 54 839 l 21 783 l 35 919 m 783 919 l 969 532 l 1149 919 l 1338 919 l 1338 894 q 1275 875 1288 893 q 1263 803 1263 857 l 1263 486 q 1275 416 1263 432 q 1338 397 1288 400 l 1338 372 l 1068 372 l 1068 397 q 1111 401 1097 397 q 1143 426 1133 407 q 1149 485 1149 440 l 1149 818 l 940 372 l 919 372 l 710 813 l 710 486 q 714 431 710 440 q 774 397 725 397 l 797 397 l 797 372 l 590 372 l 590 397 q 661 425 649 397 q 667 486 667 439 l 667 801 q 656 874 667 858 q 590 894 642 894 l 590 919 l 783 919 z "},"":{"ha":601,"x_min":24,"x_max":525,"o":"m 471 781 l 485 781 q 511 761 506 772 q 524 728 522 739 q 525 724 524 726 l 525 701 q 524 692 524 697 l 519 675 l 519 671 q 518 668 518 669 l 518 665 q 517 663 517 664 l 367 447 l 496 367 l 496 100 q 410 58 436 75 q 332 6 363 31 q 328 3 331 6 q 323 1 325 1 q 319 -1 321 0 q 316 -4 318 -3 q 313 -6 314 -6 q 265 17 297 3 q 215 32 243 25 q 204 35 213 32 q 197 36 201 35 q 192 36 193 36 q 179 38 183 36 l 154 38 q 142 36 150 36 q 78 19 124 33 q 43 0 67 15 l 24 14 l 189 256 l 63 333 l 63 571 q 207 671 129 593 l 215 679 q 218 683 217 681 q 219 685 219 685 q 224 689 219 685 l 367 638 q 375 632 372 632 l 379 632 q 383 631 381 631 q 398 626 396 626 q 407 625 400 625 q 424 626 419 625 q 457 638 436 631 q 472 648 465 644 q 485 674 479 651 l 485 700 q 476 706 483 703 q 468 715 476 708 q 462 724 467 722 q 457 728 457 726 l 453 732 l 453 733 q 451 735 451 733 l 451 738 q 449 740 450 738 q 447 743 447 742 l 447 749 q 448 753 447 750 q 456 765 449 756 q 468 776 460 771 l 469 778 l 471 778 l 471 781 m 288 336 l 153 140 q 161 138 156 138 q 165 139 163 138 l 169 139 q 195 142 189 142 q 207 143 201 142 l 228 143 q 238 142 229 142 l 249 142 q 261 140 253 140 q 290 135 269 139 q 319 125 300 132 q 376 97 349 114 l 376 278 l 288 336 m 186 404 l 264 358 l 388 536 q 375 531 382 531 l 368 531 q 361 529 364 529 l 353 529 q 346 528 351 528 l 333 528 q 260 538 338 528 q 186 563 235 544 l 186 404 m 424 981 l 464 981 l 336 726 l 190 726 l 64 981 l 104 981 l 263 835 l 424 981 z "},"":{"ha":510,"x_min":86,"x_max":376,"o":"m 94 554 l 201 554 l 376 333 l 199 118 l 86 118 l 261 333 l 94 554 z "},"":{"ha":775,"x_min":17,"x_max":715,"o":"m 328 108 q 342 142 336 124 l 342 503 l 189 568 l 189 169 l 328 108 m 535 690 l 715 504 l 476 294 l 476 157 l 592 101 l 678 165 l 697 139 l 511 -7 l 506 -7 q 486 -3 499 -7 q 470 1 474 0 q 438 22 467 1 q 429 29 435 24 q 425 33 428 31 q 418 38 422 36 q 404 47 414 40 q 381 56 394 53 l 267 -6 l 89 86 l 17 106 l 46 149 l 54 194 l 54 576 q 158 617 107 586 q 250 689 210 649 l 250 692 q 338 635 288 660 q 415 601 382 613 q 535 688 463 629 l 535 690 m 476 567 l 476 349 q 496 360 485 350 l 517 376 q 522 380 519 378 q 524 382 524 382 q 528 385 525 382 q 533 388 532 388 q 539 393 533 389 q 547 400 544 397 q 574 419 560 407 q 597 440 588 431 l 476 567 z "},"":{"ha":481,"x_min":22,"x_max":422,"o":"m 201 692 q 271 620 228 654 q 358 571 314 586 l 390 574 l 204 393 q 222 389 210 389 q 228 389 225 389 q 233 386 231 388 q 240 385 235 385 q 347 329 300 374 q 393 226 393 285 l 393 224 q 392 219 392 222 l 392 211 q 390 207 390 210 l 390 201 q 314 74 371 118 q 189 -8 253 25 q 175 -15 185 -11 q 172 -18 175 -17 q 167 -19 169 -19 q 163 -22 164 -19 q 158 -26 161 -24 q 155 -28 154 -28 q 143 -32 156 -28 q 135 -38 140 -35 q 128 -42 129 -42 q 125 -44 126 -43 l 124 -44 l 124 -46 q 122 -49 122 -46 q 114 -58 121 -51 q 100 -86 108 -69 q 97 -100 97 -97 l 97 -107 q 99 -115 97 -112 q 101 -120 100 -118 q 103 -124 103 -122 q 106 -128 104 -125 q 109 -132 108 -131 q 112 -135 110 -133 q 114 -139 114 -137 l 121 -146 q 126 -149 124 -147 q 129 -150 128 -150 q 133 -151 131 -150 q 136 -151 135 -151 q 143 -153 138 -151 l 154 -153 q 161 -151 156 -151 l 168 -151 q 172 -149 169 -150 q 178 -149 175 -149 l 181 -149 q 186 -146 183 -146 l 197 -146 q 201 -149 199 -147 q 210 -156 204 -150 l 215 -161 q 178 -199 215 -199 q 169 -197 175 -199 q 165 -197 168 -197 q 158 -196 163 -196 q 142 -190 154 -196 q 114 -176 129 -185 q 107 -173 111 -176 q 100 -168 103 -169 l 90 -158 q 83 -150 88 -157 l 81 -147 q 76 -142 78 -144 q 72 -132 75 -140 q 68 -117 69 -124 q 67 -108 67 -111 l 67 -93 q 68 -89 67 -92 q 68 -85 68 -87 q 74 -68 69 -79 q 83 -51 79 -57 q 89 -37 86 -44 q 101 -29 93 -35 q 111 -22 108 -24 q 117 -17 114 -21 q 124 -12 121 -14 q 135 -3 126 -10 q 247 178 247 85 l 247 186 q 246 197 246 190 q 240 215 246 203 q 237 225 238 224 q 233 237 236 226 q 229 247 229 247 q 227 249 229 246 q 224 253 225 253 q 193 274 215 264 q 158 285 188 278 q 151 286 156 285 l 144 286 q 139 288 143 286 l 124 288 q 114 286 119 286 l 106 286 q 97 285 101 285 q 83 283 92 285 q 68 278 75 281 q 58 276 61 276 q 52 275 56 276 q 46 272 49 274 l 43 272 q 40 271 42 271 l 38 271 q 35 269 36 269 l 242 476 l 118 589 l 43 542 l 24 560 l 201 692 m 382 981 l 422 981 l 294 726 l 149 726 l 22 981 l 63 981 l 221 835 l 382 981 z "},"":{"ha":957,"x_min":0,"x_max":886,"o":"m 178 944 q 374 801 340 929 q 506 883 440 856 q 601 908 549 901 q 608 910 603 908 l 639 910 q 651 908 643 908 q 710 896 660 908 q 851 754 811 858 q 886 583 886 665 l 886 546 q 874 444 886 519 q 853 353 868 413 q 792 261 847 338 q 549 146 697 163 l 175 146 q 79 96 117 131 q 35 0 35 56 q 36 -14 35 -4 q 40 -33 36 -12 q 49 -57 40 -32 q 97 -102 65 -89 q 158 -115 128 -115 l 167 -115 q 176 -114 171 -114 q 238 -103 199 -114 q 246 -99 243 -101 q 249 -99 247 -99 q 249 -97 249 -97 q 253 -96 250 -96 q 383 -39 331 -60 q 511 -14 449 -14 q 553 -18 515 -14 q 597 -29 568 -21 q 618 -37 604 -35 q 640 -49 626 -40 q 665 -78 653 -57 q 682 -117 674 -92 l 682 -125 q 683 -131 682 -128 l 683 -135 q 672 -174 683 -157 q 632 -201 660 -192 l 615 -201 q 613 -200 614 -200 q 581 -181 597 -199 q 563 -147 571 -171 l 563 -136 q 564 -135 563 -136 l 564 -128 q 565 -126 564 -128 l 565 -124 q 567 -120 565 -121 q 570 -116 568 -119 q 573 -111 572 -112 q 576 -106 574 -110 q 578 -102 578 -103 q 581 -100 579 -101 q 581 -97 581 -99 q 583 -86 581 -94 q 585 -82 583 -85 l 585 -69 q 580 -65 582 -67 q 575 -64 578 -64 l 572 -61 q 568 -58 571 -60 q 563 -57 565 -57 q 499 -85 536 -65 l 467 -101 q 364 -156 382 -146 q 254 -196 304 -185 q 241 -199 250 -197 q 225 -200 232 -200 q 214 -201 218 -200 l 201 -201 q 172 -199 193 -201 q 142 -191 163 -197 q 83 -167 122 -185 q 26 -104 47 -140 q 0 -29 6 -68 l 0 3 q 37 103 0 58 q 128 167 74 149 q 167 178 142 172 l 179 178 q 185 179 182 178 l 203 179 q 210 181 204 179 l 215 181 l 215 217 q 214 224 214 218 l 214 238 q 158 362 203 303 q 51 447 113 421 q 65 451 60 450 l 82 456 q 88 457 85 456 l 114 457 q 125 456 118 456 q 150 451 143 453 q 167 447 169 447 q 183 442 172 446 q 213 431 193 439 l 213 436 q 214 440 213 438 l 214 450 q 215 453 214 451 l 215 460 q 179 546 215 506 q 75 631 133 597 q 61 639 71 633 q 56 643 60 640 q 49 646 51 646 q 124 660 76 660 l 132 660 q 140 658 136 658 l 157 658 q 172 656 163 658 q 186 653 182 654 q 193 653 188 653 q 200 651 197 651 q 213 649 208 649 l 213 794 l 183 850 q 57 893 146 888 q 93 926 72 918 q 142 940 125 940 l 160 940 q 169 942 165 940 l 178 942 l 178 944 m 600 410 l 574 410 q 561 407 565 407 q 534 401 544 403 q 521 400 524 400 q 506 397 510 397 q 492 394 501 396 q 468 385 483 392 q 463 379 467 383 q 457 372 460 375 q 450 358 454 368 l 450 167 q 454 164 451 164 l 457 164 q 460 163 457 163 l 469 163 q 472 161 469 161 l 479 161 q 613 210 558 161 q 697 328 667 258 l 697 332 l 699 333 l 699 339 l 700 340 l 700 342 q 682 374 700 358 q 644 396 664 389 l 632 400 q 619 403 628 400 q 600 407 606 406 l 600 410 m 425 794 l 374 751 l 374 167 l 425 167 l 425 794 m 706 606 q 665 574 694 593 q 622 557 638 561 q 599 552 606 553 q 576 551 592 551 q 453 589 518 551 l 453 404 q 479 415 454 404 q 508 424 494 422 q 536 429 514 426 q 550 431 544 429 l 563 431 q 597 428 572 431 q 615 425 608 425 q 624 424 618 425 q 633 421 631 422 q 668 407 656 413 q 686 399 675 406 q 703 390 694 397 q 706 409 706 401 q 709 425 707 417 q 715 465 711 433 q 717 474 715 472 l 717 483 q 718 493 717 489 l 718 515 q 714 558 717 531 q 706 603 713 571 l 706 606 m 496 821 q 479 815 492 817 q 463 810 467 814 q 456 801 458 806 q 452 794 453 797 q 450 789 451 792 l 450 635 q 490 592 463 608 q 540 576 518 576 l 564 576 q 568 578 565 576 q 572 578 571 578 q 594 581 578 578 q 647 599 610 585 q 692 625 664 607 q 694 629 693 626 q 696 632 696 632 q 697 640 696 638 q 700 643 699 642 l 700 658 q 697 667 699 660 q 694 679 696 674 q 694 682 694 681 q 692 683 693 682 q 691 687 692 683 q 689 694 690 690 q 681 718 681 719 q 525 821 615 821 l 522 821 q 518 819 521 819 l 506 819 q 500 818 504 818 l 496 818 l 496 821 m 664 1067 l 590 1142 l 664 1215 l 739 1142 l 664 1067 m 393 1067 l 319 1142 l 393 1215 l 468 1142 l 393 1067 z "},"":{"ha":390,"x_min":75,"x_max":317,"o":"m 196 733 l 299 631 l 196 526 l 92 631 l 196 733 m 317 -67 l 196 -193 l 75 -67 q 181 481 161 106 l 208 481 q 317 -67 238 94 z "},"":{"ha":481,"x_min":38,"x_max":401,"o":"m 238 904 l 299 904 l 299 797 q 393 726 333 746 l 324 635 l 299 643 l 299 253 l 304 242 q 310 240 306 240 q 318 242 315 240 q 326 247 321 244 q 335 250 332 250 q 356 266 340 256 q 379 285 371 276 l 401 267 l 299 175 l 299 -17 l 235 -17 l 235 126 q 38 221 139 194 q 67 297 49 246 q 69 304 67 297 q 72 313 71 311 l 72 706 q 144 753 107 724 q 218 807 169 771 l 231 819 q 238 835 235 824 l 238 904 m 199 711 l 199 301 l 221 275 l 242 275 l 242 683 l 199 711 z "},"":{"ha":722,"x_min":57,"x_max":638,"o":"m 404 889 l 606 794 l 617 781 l 557 665 l 313 775 q 271 681 286 735 q 271 675 271 679 q 269 669 269 672 q 267 656 268 667 q 267 635 267 644 l 267 618 q 267 613 267 615 q 269 607 268 610 q 269 603 269 606 q 271 600 269 601 l 271 597 q 272 590 271 596 q 273 582 272 585 q 275 576 274 579 l 275 571 l 333 422 l 511 422 l 511 393 l 336 393 l 342 347 l 511 347 l 511 321 l 339 321 q 269 124 325 232 l 422 156 q 532 144 499 150 q 638 115 593 135 l 589 -14 l 417 46 l 275 49 q 250 42 268 44 q 224 36 242 40 l 174 24 q 149 15 165 22 q 122 7 139 14 q 97 0 115 4 q 85 -3 93 0 q 72 -6 76 -6 l 57 14 l 69 29 l 215 103 q 226 124 224 111 l 231 136 q 233 149 231 140 l 233 163 q 235 169 233 164 l 235 186 q 233 199 233 190 q 233 204 233 200 q 232 211 232 208 q 229 222 229 219 q 192 318 213 294 l 83 321 l 83 347 l 175 347 l 156 388 l 83 390 l 83 422 l 149 422 l 149 426 q 147 432 147 428 l 147 439 q 144 447 146 440 q 143 458 143 454 l 143 471 q 379 881 143 676 l 392 885 q 399 886 393 885 l 404 886 l 404 889 z "},"":{"ha":972,"x_min":18,"x_max":949,"o":"m 949 818 l 906 717 q 593 871 774 871 q 390 794 481 871 q 272 606 300 717 l 860 606 l 818 506 l 256 506 l 256 456 l 796 456 l 754 354 l 274 354 q 390 167 310 239 q 593 89 478 89 q 915 254 775 89 l 915 107 q 593 -11 769 -11 q 318 96 435 -11 q 168 354 208 196 l 18 354 l 60 456 l 154 456 q 153 481 153 468 q 154 506 153 492 l 18 506 l 60 606 l 168 606 q 317 865 204 764 q 593 972 435 972 q 949 818 797 972 z "},"":{"ha":1013,"x_min":33,"x_max":978,"o":"m 978 817 l 928 717 l 749 789 l 603 444 l 603 394 l 826 394 l 792 292 l 603 292 l 603 147 q 682 157 639 157 q 749 147 713 157 l 697 35 q 610 46 633 46 q 328 0 475 46 l 318 29 q 465 103 364 56 l 465 292 l 243 292 l 278 394 l 465 394 l 465 444 l 308 707 q 297 725 306 713 q 249 799 268 779 q 171 833 215 833 q 108 814 138 833 q 53 754 88 801 l 33 776 q 107 889 60 846 q 229 938 161 938 q 358 878 308 938 q 413 801 392 839 l 592 497 l 772 933 q 917 849 838 889 l 978 817 z "},"":{"ha":786,"x_min":328,"x_max":454,"o":"m 328 967 l 454 967 l 454 472 l 328 472 l 328 967 m 328 306 l 454 306 l 454 -187 l 328 -187 l 328 306 z "},"":{"ha":708,"x_min":67,"x_max":642,"o":"m 128 -128 l 193 -17 l 478 -118 q 511 -44 511 -75 q 442 56 511 6 q 288 154 422 69 q 157 242 190 214 q 67 422 67 319 q 183 626 67 525 q 135 744 135 678 q 299 1001 135 857 l 581 900 l 514 790 l 231 893 q 199 818 199 844 q 321 683 199 756 q 451 604 408 632 q 571 511 531 551 q 642 357 642 442 q 525 147 642 256 q 576 32 576 93 q 521 -112 576 -37 q 414 -229 499 -142 l 128 -128 m 506 169 q 572 282 572 229 q 506 397 572 338 q 392 476 472 426 q 204 604 326 515 q 138 488 138 542 q 215 367 138 432 q 340 285 249 340 q 506 169 432 229 z "},"":{"ha":481,"x_min":13,"x_max":433,"o":"m 358 803 l 285 878 l 358 951 l 433 878 l 358 803 m 88 803 l 13 878 l 88 951 l 161 878 l 88 803 z "},"":{"ha":1056,"x_min":47,"x_max":1010,"o":"m 528 940 q 769 876 656 940 q 944 701 882 811 q 1010 460 1010 585 q 944 217 1010 331 q 766 42 879 104 q 528 -21 653 -21 q 285 44 399 -21 q 110 222 172 108 q 47 460 47 335 q 113 703 47 589 q 293 879 179 818 q 528 940 407 940 m 528 899 q 308 840 411 899 q 147 681 204 781 q 89 460 89 575 q 148 239 89 342 q 310 78 207 136 q 528 21 414 21 q 749 80 646 21 q 910 242 853 139 q 967 460 967 346 q 907 682 967 578 q 743 842 847 786 q 528 899 639 899 m 765 769 l 779 579 l 753 579 q 547 739 704 739 q 376 654 438 739 q 329 475 329 588 q 379 279 329 351 q 554 196 436 196 q 765 306 686 196 l 790 292 q 531 154 696 154 q 310 239 399 154 q 217 456 217 325 q 318 683 217 594 q 554 769 414 769 q 681 744 603 769 q 706 739 697 739 q 739 769 726 739 l 765 769 z "},"":{"ha":419,"x_min":28,"x_max":399,"o":"m 386 686 l 399 665 l 289 593 q 239 679 244 622 l 101 593 q 28 704 28 646 q 118 858 28 781 l 72 967 l 89 993 q 138 983 118 983 q 211 1013 165 983 l 300 979 q 317 975 311 975 q 353 1001 332 975 l 372 988 q 357 960 367 976 q 338 918 340 932 q 331 851 331 890 l 331 757 q 356 669 331 669 q 375 681 360 669 q 386 686 376 681 m 239 826 l 239 918 l 101 961 l 140 874 l 239 826 m 239 708 l 239 800 l 142 847 q 118 765 118 793 q 164 661 118 710 l 239 708 z "},"":{"ha":751,"x_min":78,"x_max":617,"o":"m 506 554 l 617 554 l 442 331 l 617 115 l 506 115 l 331 331 q 367 375 349 350 q 385 400 369 379 q 404 426 390 408 q 430 457 418 443 q 453 489 442 471 q 506 551 469 510 l 506 554 m 258 557 l 364 557 l 192 336 l 371 118 l 258 118 l 78 336 l 258 557 z "},"":{"ha":926,"x_min":88,"x_max":838,"o":"m 88 686 l 838 686 l 838 231 l 713 231 l 713 561 l 88 561 l 88 686 z "},"":{"ha":1056,"x_min":47,"x_max":1010,"o":"m 528 940 q 769 876 656 940 q 944 701 882 811 q 1010 460 1010 585 q 944 217 1010 331 q 766 42 879 104 q 528 -21 653 -21 q 285 44 399 -21 q 110 222 172 108 q 47 460 47 335 q 113 703 47 589 q 293 879 179 818 q 528 940 407 940 m 528 899 q 308 840 411 899 q 147 681 204 781 q 89 460 89 575 q 148 239 89 342 q 310 78 207 136 q 528 21 414 21 q 749 80 646 21 q 910 242 853 139 q 967 460 967 346 q 907 682 967 578 q 743 842 847 786 q 528 899 639 899 m 261 756 l 524 756 q 660 721 604 756 q 725 604 725 681 q 575 453 725 492 l 717 251 q 799 192 756 194 l 799 169 l 674 169 l 474 443 l 422 443 l 422 233 q 503 192 431 192 l 503 169 l 254 169 l 254 192 q 321 226 310 192 q 324 285 324 235 l 324 639 q 322 699 324 692 q 261 731 313 731 l 261 756 m 422 472 l 443 472 q 615 596 615 472 q 576 689 615 653 q 479 725 538 725 q 422 715 454 725 l 422 472 z "},"":{"ha":463,"x_min":25,"x_max":438,"o":"m 438 844 l 25 844 l 25 936 l 438 936 l 438 844 z "},"":{"ha":556,"x_min":40,"x_max":510,"o":"m 275 939 q 442 871 374 939 q 510 704 510 803 q 441 538 510 607 q 275 469 372 469 q 108 538 176 469 q 40 704 40 607 q 108 871 40 803 q 275 939 176 939 m 275 850 q 172 808 214 850 q 129 704 129 765 q 172 601 129 644 q 275 558 214 558 q 378 601 336 558 q 421 704 421 644 q 378 808 421 765 q 275 850 336 850 z "},"":{"ha":926,"x_min":88,"x_max":838,"o":"m 88 636 l 400 636 l 400 949 l 525 949 l 525 636 l 838 636 l 838 511 l 525 511 l 525 200 l 400 200 l 400 511 l 88 511 l 88 636 m 88 89 l 838 89 l 838 -36 l 88 -36 l 88 89 z "},"":{"ha":463,"x_min":28,"x_max":428,"o":"m 64 431 l 28 443 q 183 626 43 529 q 269 704 249 671 q 303 808 303 754 q 274 869 303 840 l 107 765 l 28 838 l 185 939 l 422 842 q 428 797 428 814 q 376 675 428 722 q 265 611 344 644 q 154 555 179 574 q 107 504 129 536 q 297 549 206 549 q 428 525 367 549 l 350 431 q 199 458 258 458 q 64 431 128 458 z "},"":{"ha":463,"x_min":-6,"x_max":417,"o":"m 115 432 l -6 529 l 79 608 l 249 478 q 285 567 285 514 q 240 665 285 633 q 144 686 213 686 l 119 686 l 119 721 q 267 831 267 721 q 233 881 267 881 q 199 865 219 881 l 100 796 l 28 874 l 119 936 l 401 860 q 289 707 378 735 q 417 592 417 675 q 115 432 417 447 z "},"":{"ha":481,"x_min":154,"x_max":374,"o":"m 192 725 l 154 725 l 215 978 l 374 978 l 192 725 z "},"":{"ha":622,"x_min":-10,"x_max":632,"o":"m 542 882 l 542 -300 l 492 -300 l 492 882 l 365 882 l 365 -300 l 317 -300 l 317 407 q 151 431 210 413 q 25 531 65 460 q -10 665 -10 590 q 125 886 -10 817 q 296 919 190 919 l 632 919 l 632 882 l 542 882 z "},"":{"ha":389,"x_min":69,"x_max":275,"o":"m 189 536 q 247 506 226 529 q 274 444 272 476 q 275 440 274 443 l 275 426 q 274 421 274 425 l 274 413 q 267 390 272 406 q 256 374 265 383 q 194 342 228 346 q 183 339 186 339 l 163 339 q 99 364 128 339 q 69 428 69 389 l 69 431 q 71 433 69 432 l 71 439 q 72 442 71 440 l 72 447 q 105 508 72 482 q 172 533 138 533 l 189 536 z "},"":{"ha":510,"x_min":72,"x_max":385,"o":"m 232 14 l 258 14 l 221 -54 l 224 -54 q 226 -53 224 -53 l 233 -53 q 239 -51 235 -51 l 244 -51 q 269 -53 260 -51 q 293 -58 278 -56 q 324 -69 303 -62 q 340 -76 335 -72 q 356 -83 346 -79 q 374 -107 363 -92 q 383 -132 378 -117 l 383 -140 q 385 -144 383 -142 l 385 -154 q 383 -160 383 -156 l 383 -167 q 382 -174 382 -168 q 310 -253 363 -232 q 268 -261 310 -253 q 258 -262 260 -261 l 249 -262 q 240 -264 247 -262 l 232 -264 q 118 -240 189 -264 q 81 -226 93 -232 l 72 -218 l 72 -207 l 124 -172 q 158 -208 135 -190 q 201 -232 181 -226 q 207 -233 204 -232 l 213 -233 q 218 -235 215 -233 l 232 -235 q 236 -233 233 -233 q 266 -223 249 -232 q 290 -204 283 -214 q 292 -200 290 -203 l 292 -194 q 292 -191 292 -193 q 294 -187 293 -189 q 294 -185 294 -186 l 294 -171 q 296 -165 294 -169 l 296 -151 q 296 -147 296 -150 q 294 -143 294 -144 q 292 -133 292 -135 q 288 -118 289 -122 q 248 -90 268 -99 q 201 -81 228 -81 l 199 -81 q 197 -82 199 -81 l 194 -82 q 193 -83 194 -82 l 183 -83 l 232 14 z "},"":{"ha":463,"x_min":101,"x_max":368,"o":"m 368 515 l 254 435 l 149 494 l 174 521 l 174 788 q 156 861 174 861 q 118 839 147 861 l 101 865 l 213 939 q 278 890 260 925 q 292 793 292 864 l 292 540 q 306 522 294 533 q 314 515 308 521 l 350 540 l 368 515 z "},"":{"ha":390,"x_min":25,"x_max":338,"o":"m 338 967 l 338 658 q 200 596 272 640 q 49 640 100 640 l 35 640 l 25 658 q 51 756 51 690 l 51 953 q 189 1014 126 968 q 338 967 257 974 m 247 672 l 247 899 q 143 931 203 922 l 143 710 l 247 672 z "},"":{"ha":751,"x_min":86,"x_max":622,"o":"m 336 557 l 442 557 l 622 331 l 444 115 l 336 115 l 511 331 l 336 557 m 86 560 l 194 560 l 371 336 l 194 118 l 86 118 l 258 336 l 86 560 z "},"":{"ha":1403,"x_min":228,"x_max":1243,"o":"m 433 -46 l 344 -46 l 961 943 l 1050 943 l 433 -46 m 493 515 l 379 435 l 275 494 l 300 521 l 300 788 q 282 861 300 861 q 244 839 274 861 l 228 865 l 339 939 q 404 890 386 925 q 417 793 417 864 l 418 540 q 432 522 421 533 q 439 515 433 521 l 476 540 l 493 515 m 1118 0 l 1018 58 l 1038 86 l 1038 135 l 846 135 l 822 228 l 1057 506 q 1135 463 1115 493 q 1154 372 1154 433 l 1154 218 l 1221 218 l 1243 135 l 1154 135 l 1154 113 l 1176 81 l 1210 97 l 1228 71 l 1118 0 m 1038 218 l 1038 356 q 1039 396 1038 372 q 1034 411 1038 406 q 1026 417 1031 417 q 999 394 1018 417 l 856 224 l 1038 218 z "},"":{"ha":1403,"x_min":228,"x_max":1244,"o":"m 433 -46 l 344 -46 l 961 943 l 1050 943 l 433 -46 m 493 515 l 379 435 l 275 494 l 300 521 l 300 788 q 282 861 300 861 q 244 839 274 861 l 228 865 l 339 939 q 404 890 386 925 q 417 793 417 864 l 418 540 q 432 522 421 533 q 439 515 433 521 l 476 540 l 493 515 m 879 0 l 842 13 q 999 196 858 99 q 1085 274 1063 239 q 1118 376 1118 325 q 1090 439 1118 410 l 922 336 l 842 406 l 1000 508 l 1238 411 q 1243 367 1243 383 q 1193 244 1243 292 q 1081 179 1160 214 q 969 124 994 143 q 922 74 944 106 q 1113 117 1022 117 q 1244 94 1182 117 l 1165 0 q 1013 28 1074 28 q 879 0 943 28 z "},"":{"ha":1403,"x_min":119,"x_max":1243,"o":"m 433 -46 l 344 -46 l 961 943 l 1050 943 l 433 -46 m 240 432 l 119 529 l 204 608 l 374 478 q 410 567 410 514 q 365 665 410 633 q 269 686 339 686 l 246 686 l 246 721 q 393 831 393 721 q 360 881 393 881 q 324 865 346 881 l 225 796 l 153 874 l 246 936 l 526 860 q 414 707 503 735 q 543 592 543 675 q 240 432 543 447 m 1118 0 l 1018 58 l 1038 86 l 1038 135 l 846 135 l 822 228 l 1057 506 q 1136 461 1115 493 q 1153 372 1153 435 l 1153 218 l 1221 218 l 1243 135 l 1153 135 l 1153 113 l 1176 81 l 1208 97 l 1228 71 l 1118 0 m 1038 218 l 1038 356 q 1039 396 1038 372 q 1034 411 1038 406 q 1026 417 1031 417 q 999 394 1018 417 l 856 224 l 1038 218 z "},"":{"ha":463,"x_min":57,"x_max":440,"o":"m 274 733 l 376 631 l 274 526 l 171 631 l 274 733 m 440 -10 l 339 -192 l 315 -193 q 125 -132 197 -196 q 57 10 57 -72 q 157 213 57 93 q 237 335 217 283 q 257 478 257 388 l 288 478 q 289 435 289 450 q 232 181 289 342 q 204 58 204 107 q 260 -37 204 -7 q 315 -53 286 -53 q 421 1 369 -53 l 440 -10 z "},"":{"ha":929,"x_min":3,"x_max":853,"o":"m 818 961 l 840 961 q 778 890 818 939 q 740 810 751 856 l 740 183 q 781 113 750 143 l 826 149 l 853 121 l 693 -17 q 690 -15 692 -15 l 686 -15 q 666 -8 672 -12 q 649 0 660 -4 q 576 143 592 65 l 361 -17 l 118 115 l 106 115 l 103 113 q 99 111 101 111 l 93 111 q 76 106 82 108 q 67 92 69 103 l 67 90 q 65 88 65 89 l 65 83 q 63 78 63 81 l 63 67 q 64 64 63 65 l 64 60 q 67 51 64 60 q 68 49 67 50 q 72 28 69 40 q 75 11 75 17 l 75 8 q 73 5 74 7 q 69 0 72 3 l 69 -3 q 68 -4 68 -3 l 68 -7 q 65 -8 67 -7 q 62 -10 64 -8 q 58 -12 60 -11 q 50 -15 53 -14 l 46 -15 q 43 -17 44 -15 l 40 -17 q 14 -1 25 -17 q 3 32 3 10 q 22 81 8 50 q 43 129 31 97 l 181 333 q 69 461 111 386 q 24 622 24 540 q 28 657 24 636 q 33 690 32 683 q 36 703 33 692 q 43 726 36 699 q 46 738 43 731 q 175 890 86 839 q 364 946 264 940 q 371 947 365 946 l 407 947 q 421 946 411 946 l 436 946 q 451 943 440 944 q 469 941 463 942 q 490 938 476 940 q 528 929 511 936 l 665 861 q 669 863 667 860 l 675 868 q 739 924 711 904 q 818 958 776 950 l 818 961 m 207 290 l 164 221 l 450 86 l 463 86 l 576 181 l 574 290 l 207 290 m 331 832 q 149 752 226 821 q 72 579 72 683 l 72 569 q 75 561 72 569 q 76 557 75 560 l 76 551 q 78 547 76 550 l 78 543 q 201 361 93 438 l 396 643 q 386 647 390 643 q 377 651 388 647 q 365 655 367 654 q 353 658 363 656 q 340 661 343 661 q 329 663 336 661 l 321 663 q 218 600 251 663 q 215 608 217 604 q 214 619 214 613 q 213 624 213 621 l 213 629 q 321 743 213 703 q 349 751 331 747 q 376 754 368 754 q 429 747 381 754 l 433 747 q 436 746 433 746 l 440 746 q 443 744 440 744 q 454 742 451 742 l 460 742 q 465 740 461 740 l 503 789 q 426 818 469 807 q 344 829 382 829 l 331 832 m 533 761 l 288 404 l 574 404 l 563 711 l 542 761 l 533 761 m 633 1071 l 453 1324 l 610 1324 l 671 1071 l 633 1071 z "},"":{"ha":929,"x_min":3,"x_max":853,"o":"m 818 961 l 840 961 q 778 890 818 939 q 740 810 751 856 l 740 183 q 781 113 750 143 l 826 149 l 853 121 l 693 -17 q 690 -15 692 -15 l 686 -15 q 666 -8 672 -12 q 649 0 660 -4 q 576 143 592 65 l 361 -17 l 118 115 l 106 115 l 103 113 q 99 111 101 111 l 93 111 q 76 106 82 108 q 67 92 69 103 l 67 90 q 65 88 65 89 l 65 83 q 63 78 63 81 l 63 67 q 64 64 63 65 l 64 60 q 67 51 64 60 q 68 49 67 50 q 72 28 69 40 q 75 11 75 17 l 75 8 q 73 5 74 7 q 69 0 72 3 l 69 -3 q 68 -4 68 -3 l 68 -7 q 65 -8 67 -7 q 62 -10 64 -8 q 58 -12 60 -11 q 50 -15 53 -14 l 46 -15 q 43 -17 44 -15 l 40 -17 q 14 -1 25 -17 q 3 32 3 10 q 22 81 8 50 q 43 129 31 97 l 181 333 q 69 461 111 386 q 24 622 24 540 q 28 657 24 636 q 33 690 32 683 q 36 703 33 692 q 43 726 36 699 q 46 738 43 731 q 175 890 86 839 q 364 946 264 940 q 371 947 365 946 l 407 947 q 421 946 411 946 l 436 946 q 451 943 440 944 q 469 941 463 942 q 490 938 476 940 q 528 929 511 936 l 665 861 q 669 863 667 860 l 675 868 q 739 924 711 904 q 818 958 776 950 l 818 961 m 207 290 l 164 221 l 450 86 l 463 86 l 576 181 l 574 290 l 207 290 m 331 832 q 149 752 226 821 q 72 579 72 683 l 72 569 q 75 561 72 569 q 76 557 75 560 l 76 551 q 78 547 76 550 l 78 543 q 201 361 93 438 l 396 643 q 386 647 390 643 q 377 651 388 647 q 365 655 367 654 q 353 658 363 656 q 340 661 343 661 q 329 663 336 661 l 321 663 q 218 600 251 663 q 215 608 217 604 q 214 619 214 613 q 213 624 213 621 l 213 629 q 321 743 213 703 q 349 751 331 747 q 376 754 368 754 q 429 747 381 754 l 433 747 q 436 746 433 746 l 440 746 q 443 744 440 744 q 454 742 451 742 l 460 742 q 465 740 461 740 l 503 789 q 426 818 469 807 q 344 829 382 829 l 331 832 m 533 761 l 288 404 l 574 404 l 563 711 l 542 761 l 533 761 m 524 1031 l 486 1031 l 547 1283 l 706 1283 l 524 1031 z "},"":{"ha":929,"x_min":3,"x_max":853,"o":"m 818 961 l 840 961 q 778 890 818 939 q 740 810 751 856 l 740 183 q 781 113 750 143 l 826 149 l 853 121 l 693 -17 q 690 -15 692 -15 l 686 -15 q 666 -8 672 -12 q 649 0 660 -4 q 576 143 592 65 l 361 -17 l 118 115 l 106 115 l 103 113 q 99 111 101 111 l 93 111 q 76 106 82 108 q 67 92 69 103 l 67 90 q 65 88 65 89 l 65 83 q 63 78 63 81 l 63 67 q 64 64 63 65 l 64 60 q 67 51 64 60 q 68 49 67 50 q 72 28 69 40 q 75 11 75 17 l 75 8 q 73 5 74 7 q 69 0 72 3 l 69 -3 q 68 -4 68 -3 l 68 -7 q 65 -8 67 -7 q 62 -10 64 -8 q 58 -12 60 -11 q 50 -15 53 -14 l 46 -15 q 43 -17 44 -15 l 40 -17 q 14 -1 25 -17 q 3 32 3 10 q 22 81 8 50 q 43 129 31 97 l 181 333 q 69 461 111 386 q 24 622 24 540 q 28 657 24 636 q 33 690 32 683 q 36 703 33 692 q 43 726 36 699 q 46 738 43 731 q 175 890 86 839 q 364 946 264 940 q 371 947 365 946 l 407 947 q 421 946 411 946 l 436 946 q 451 943 440 944 q 469 941 463 942 q 490 938 476 940 q 528 929 511 936 l 665 861 q 669 863 667 860 l 675 868 q 739 924 711 904 q 818 958 776 950 l 818 961 m 207 290 l 164 221 l 450 86 l 463 86 l 576 181 l 574 290 l 207 290 m 331 832 q 149 752 226 821 q 72 579 72 683 l 72 569 q 75 561 72 569 q 76 557 75 560 l 76 551 q 78 547 76 550 l 78 543 q 201 361 93 438 l 396 643 q 386 647 390 643 q 377 651 388 647 q 365 655 367 654 q 353 658 363 656 q 340 661 343 661 q 329 663 336 661 l 321 663 q 218 600 251 663 q 215 608 217 604 q 214 619 214 613 q 213 624 213 621 l 213 629 q 321 743 213 703 q 349 751 331 747 q 376 754 368 754 q 429 747 381 754 l 433 747 q 436 746 433 746 l 440 746 q 443 744 440 744 q 454 742 451 742 l 460 742 q 465 740 461 740 l 503 789 q 426 818 469 807 q 344 829 382 829 l 331 832 m 533 761 l 288 404 l 574 404 l 563 711 l 542 761 l 533 761 m 429 1031 l 389 1031 l 517 1285 l 664 1285 l 789 1031 l 749 1031 l 590 1176 l 429 1031 z "},"":{"ha":929,"x_min":3,"x_max":853,"o":"m 818 961 l 840 961 q 778 890 818 939 q 740 810 751 856 l 740 183 q 781 113 750 143 l 826 149 l 853 121 l 693 -17 q 690 -15 692 -15 l 686 -15 q 666 -8 672 -12 q 649 0 660 -4 q 576 143 592 65 l 361 -17 l 118 115 l 106 115 l 103 113 q 99 111 101 111 l 93 111 q 76 106 82 108 q 67 92 69 103 l 67 90 q 65 88 65 89 l 65 83 q 63 78 63 81 l 63 67 q 64 64 63 65 l 64 60 q 67 51 64 60 q 68 49 67 50 q 72 28 69 40 q 75 11 75 17 l 75 8 q 73 5 74 7 q 69 0 72 3 l 69 -3 q 68 -4 68 -3 l 68 -7 q 65 -8 67 -7 q 62 -10 64 -8 q 58 -12 60 -11 q 50 -15 53 -14 l 46 -15 q 43 -17 44 -15 l 40 -17 q 14 -1 25 -17 q 3 32 3 10 q 22 81 8 50 q 43 129 31 97 l 181 333 q 69 461 111 386 q 24 622 24 540 q 28 657 24 636 q 33 690 32 683 q 36 703 33 692 q 43 726 36 699 q 46 738 43 731 q 175 890 86 839 q 364 946 264 940 q 371 947 365 946 l 407 947 q 421 946 411 946 l 436 946 q 451 943 440 944 q 469 941 463 942 q 490 938 476 940 q 528 929 511 936 l 665 861 q 669 863 667 860 l 675 868 q 739 924 711 904 q 818 958 776 950 l 818 961 m 207 290 l 164 221 l 450 86 l 463 86 l 576 181 l 574 290 l 207 290 m 331 832 q 149 752 226 821 q 72 579 72 683 l 72 569 q 75 561 72 569 q 76 557 75 560 l 76 551 q 78 547 76 550 l 78 543 q 201 361 93 438 l 396 643 q 386 647 390 643 q 377 651 388 647 q 365 655 367 654 q 353 658 363 656 q 340 661 343 661 q 329 663 336 661 l 321 663 q 218 600 251 663 q 215 608 217 604 q 214 619 214 613 q 213 624 213 621 l 213 629 q 321 743 213 703 q 349 751 331 747 q 376 754 368 754 q 429 747 381 754 l 433 747 q 436 746 433 746 l 440 746 q 443 744 440 744 q 454 742 451 742 l 460 742 q 465 740 461 740 l 503 789 q 426 818 469 807 q 344 829 382 829 l 331 832 m 533 761 l 288 404 l 574 404 l 563 711 l 542 761 l 533 761 m 393 1051 l 365 1051 q 401 1160 375 1124 q 501 1217 442 1217 q 543 1210 518 1217 q 600 1188 560 1206 q 707 1154 674 1154 q 776 1215 754 1154 l 801 1215 q 660 1051 786 1051 q 554 1081 622 1051 q 458 1111 486 1111 q 393 1051 414 1111 z "},"":{"ha":929,"x_min":3,"x_max":853,"o":"m 818 961 l 840 961 q 778 890 818 939 q 740 810 751 856 l 740 183 q 781 113 750 143 l 826 149 l 853 121 l 693 -17 q 690 -15 692 -15 l 686 -15 q 666 -8 672 -12 q 649 0 660 -4 q 576 143 592 65 l 361 -17 l 118 115 l 106 115 l 103 113 q 99 111 101 111 l 93 111 q 76 106 82 108 q 67 92 69 103 l 67 90 q 65 88 65 89 l 65 83 q 63 78 63 81 l 63 67 q 64 64 63 65 l 64 60 q 67 51 64 60 q 68 49 67 50 q 72 28 69 40 q 75 11 75 17 l 75 8 q 73 5 74 7 q 69 0 72 3 l 69 -3 q 68 -4 68 -3 l 68 -7 q 65 -8 67 -7 q 62 -10 64 -8 q 58 -12 60 -11 q 50 -15 53 -14 l 46 -15 q 43 -17 44 -15 l 40 -17 q 14 -1 25 -17 q 3 32 3 10 q 22 81 8 50 q 43 129 31 97 l 181 333 q 69 461 111 386 q 24 622 24 540 q 28 657 24 636 q 33 690 32 683 q 36 703 33 692 q 43 726 36 699 q 46 738 43 731 q 175 890 86 839 q 364 946 264 940 q 371 947 365 946 l 407 947 q 421 946 411 946 l 436 946 q 451 943 440 944 q 469 941 463 942 q 490 938 476 940 q 528 929 511 936 l 665 861 q 669 863 667 860 l 675 868 q 739 924 711 904 q 818 958 776 950 l 818 961 m 207 290 l 164 221 l 450 86 l 463 86 l 576 181 l 574 290 l 207 290 m 331 832 q 149 752 226 821 q 72 579 72 683 l 72 569 q 75 561 72 569 q 76 557 75 560 l 76 551 q 78 547 76 550 l 78 543 q 201 361 93 438 l 396 643 q 386 647 390 643 q 377 651 388 647 q 365 655 367 654 q 353 658 363 656 q 340 661 343 661 q 329 663 336 661 l 321 663 q 218 600 251 663 q 215 608 217 604 q 214 619 214 613 q 213 624 213 621 l 213 629 q 321 743 213 703 q 349 751 331 747 q 376 754 368 754 q 429 747 381 754 l 433 747 q 436 746 433 746 l 440 746 q 443 744 440 744 q 454 742 451 742 l 460 742 q 465 740 461 740 l 503 789 q 426 818 469 807 q 344 829 382 829 l 331 832 m 533 761 l 288 404 l 574 404 l 563 711 l 542 761 l 533 761 m 758 1088 l 685 1161 l 758 1236 l 833 1161 l 758 1088 m 488 1088 l 413 1161 l 488 1236 l 561 1161 l 488 1088 z "},"":{"ha":929,"x_min":3,"x_max":853,"o":"m 818 961 l 840 961 q 778 890 818 939 q 740 810 751 856 l 740 183 q 781 113 750 143 l 826 149 l 853 121 l 693 -17 q 690 -15 692 -15 l 686 -15 q 666 -8 672 -12 q 649 0 660 -4 q 576 143 592 65 l 361 -17 l 118 115 l 106 115 l 103 113 q 99 111 101 111 l 93 111 q 76 106 82 108 q 67 92 69 103 l 67 90 q 65 88 65 89 l 65 83 q 63 78 63 81 l 63 67 q 64 64 63 65 l 64 60 q 67 51 64 60 q 68 49 67 50 q 72 28 69 40 q 75 11 75 17 l 75 8 q 73 5 74 7 q 69 0 72 3 l 69 -3 q 68 -4 68 -3 l 68 -7 q 65 -8 67 -7 q 62 -10 64 -8 q 58 -12 60 -11 q 50 -15 53 -14 l 46 -15 q 43 -17 44 -15 l 40 -17 q 14 -1 25 -17 q 3 32 3 10 q 22 81 8 50 q 43 129 31 97 l 181 333 q 69 461 111 386 q 24 622 24 540 q 28 657 24 636 q 33 690 32 683 q 36 703 33 692 q 43 726 36 699 q 46 738 43 731 q 175 890 86 839 q 364 946 264 940 q 371 947 365 946 l 407 947 q 421 946 411 946 l 436 946 q 451 943 440 944 q 469 941 463 942 q 490 938 476 940 q 528 929 511 936 l 665 861 q 669 863 667 860 l 675 868 q 739 924 711 904 q 818 958 776 950 l 818 961 m 207 290 l 164 221 l 450 86 l 463 86 l 576 181 l 574 290 l 207 290 m 331 832 q 149 752 226 821 q 72 579 72 683 l 72 569 q 75 561 72 569 q 76 557 75 560 l 76 551 q 78 547 76 550 l 78 543 q 201 361 93 438 l 396 643 q 386 647 390 643 q 377 651 388 647 q 365 655 367 654 q 353 658 363 656 q 340 661 343 661 q 329 663 336 661 l 321 663 q 218 600 251 663 q 215 608 217 604 q 214 619 214 613 q 213 624 213 621 l 213 629 q 321 743 213 703 q 349 751 331 747 q 376 754 368 754 q 429 747 381 754 l 433 747 q 436 746 433 746 l 440 746 q 443 744 440 744 q 454 742 451 742 l 460 742 q 465 740 461 740 l 503 789 q 426 818 469 807 q 344 829 382 829 l 331 832 m 533 761 l 288 404 l 574 404 l 563 711 l 542 761 l 533 761 m 657 1278 q 737 1245 704 1278 q 769 1165 769 1213 q 737 1085 769 1118 q 657 1051 704 1051 q 576 1085 610 1051 q 543 1165 543 1118 q 576 1245 543 1213 q 657 1278 610 1278 m 657 1239 q 603 1217 625 1239 q 582 1165 582 1196 q 604 1113 582 1135 q 657 1090 626 1090 q 709 1113 688 1090 q 731 1165 731 1135 q 709 1217 731 1196 q 657 1239 688 1239 z "},"":{"ha":1376,"x_min":8,"x_max":1297,"o":"m 390 950 q 514 912 458 939 q 628 847 569 885 q 717 915 665 885 q 824 944 768 944 l 843 947 q 748 872 786 915 q 692 769 710 828 l 681 619 l 689 410 q 699 354 690 383 q 715 306 703 338 q 719 296 718 303 q 725 281 721 289 q 731 270 729 274 q 736 258 733 267 q 737 253 736 257 q 740 247 738 250 q 756 271 744 253 q 767 296 761 281 q 768 306 767 301 q 772 313 769 310 l 772 700 l 1004 947 l 1018 947 l 1160 883 q 1176 878 1167 878 q 1207 874 1193 874 q 1233 869 1219 869 l 1257 869 q 1272 872 1261 869 q 1279 874 1274 872 l 1285 874 q 1292 875 1286 874 l 1297 875 l 1131 654 l 1260 654 l 1190 517 l 996 517 l 996 106 l 1090 113 q 1201 158 1147 122 q 1294 235 1251 192 l 1294 213 q 1022 -14 1192 13 q 1014 -15 1021 -14 l 1006 -15 q 999 -17 1003 -15 l 958 -17 q 603 178 714 -17 l 364 -14 l 342 -11 l 100 126 q 94 118 99 122 l 92 115 q 88 113 89 113 q 85 109 88 113 q 81 104 82 106 q 74 97 75 99 q 72 91 74 94 q 69 86 69 88 q 67 82 68 85 q 65 77 65 79 q 63 73 64 75 q 60 67 61 71 q 60 57 60 63 l 63 57 l 63 50 q 64 46 63 47 q 68 36 65 44 q 71 25 68 33 l 71 17 q 72 13 71 15 l 72 8 q 67 -7 72 -1 q 49 -19 64 -17 q 16 -8 24 -19 q 8 17 8 4 l 8 26 q 11 38 8 29 q 13 47 11 42 q 15 53 14 51 q 19 60 17 56 q 21 65 21 64 l 21 68 q 24 72 21 69 l 178 321 l 132 374 q 129 375 129 371 l 125 379 q 122 384 122 382 q 121 388 122 386 q 118 390 119 390 q 29 611 29 518 l 29 614 q 31 617 29 615 l 31 622 l 32 624 l 32 625 q 133 851 32 756 q 364 947 235 947 l 390 950 m 213 285 l 158 201 l 436 72 l 585 192 l 557 285 l 213 285 m 958 807 l 913 767 l 913 453 q 875 346 913 400 q 804 257 844 301 q 757 204 788 240 q 958 97 835 110 l 958 807 m 331 832 q 158 745 232 824 q 83 574 83 667 l 83 564 q 86 556 83 564 l 86 551 q 88 550 86 551 l 88 542 q 89 539 88 540 l 89 536 q 125 437 99 485 q 189 356 151 389 l 194 353 l 385 635 q 358 653 378 642 q 331 661 343 660 q 326 663 329 661 l 311 663 q 304 661 307 661 q 244 635 281 661 q 207 600 221 617 l 207 603 q 206 604 206 603 l 206 611 q 204 613 204 611 l 204 617 q 244 699 204 664 q 333 746 290 738 l 354 750 q 365 751 361 750 l 376 751 l 401 754 q 415 749 407 749 l 422 749 q 431 746 424 747 q 444 743 438 744 q 457 740 451 742 l 476 778 q 419 810 443 803 q 357 828 388 828 l 343 828 q 338 829 342 828 l 331 829 l 331 832 m 508 738 l 278 393 l 536 393 l 551 686 l 508 738 m 996 781 l 996 549 l 1142 729 l 996 781 z "},"":{"ha":900,"x_min":0,"x_max":826,"o":"m 436 813 l 382 767 l 382 463 q 353 365 382 410 q 288 283 333 336 q 275 268 283 278 l 261 254 q 238 229 253 247 q 343 143 275 192 q 439 115 392 115 l 436 813 m 418 -14 l 394 -56 l 397 -56 q 400 -54 397 -54 l 407 -54 q 413 -53 408 -53 l 418 -53 q 442 -55 433 -53 q 467 -60 451 -57 q 497 -71 476 -64 q 514 -77 508 -74 q 529 -85 519 -81 q 547 -108 536 -93 q 557 -133 551 -118 l 557 -142 q 558 -146 557 -143 l 558 -156 q 557 -161 557 -157 l 557 -168 q 556 -175 556 -169 q 483 -254 536 -233 q 442 -262 483 -254 q 432 -264 433 -262 l 422 -264 q 414 -265 421 -264 l 406 -265 q 292 -242 363 -265 q 254 -228 267 -233 l 246 -219 l 246 -208 l 297 -174 q 331 -210 308 -192 q 375 -233 354 -228 q 381 -235 378 -233 l 386 -235 q 392 -236 389 -235 l 406 -236 q 410 -235 407 -235 q 440 -224 422 -233 q 464 -206 457 -215 q 465 -201 464 -204 l 465 -196 q 466 -192 465 -194 q 468 -189 467 -190 q 468 -186 468 -187 l 468 -172 q 469 -167 468 -171 l 469 -153 q 469 -149 469 -151 q 468 -144 468 -146 q 465 -135 465 -136 q 461 -119 463 -124 q 422 -91 442 -100 q 375 -82 401 -82 l 372 -82 q 371 -83 372 -82 l 368 -83 q 367 -85 368 -83 l 357 -85 l 393 -12 l 336 -11 q 89 142 182 15 q 0 422 0 261 l 0 428 q 1 432 0 429 l 1 443 q 3 447 1 444 l 3 450 l 43 603 q 288 850 133 779 l 307 853 q 300 843 306 849 q 290 836 294 838 q 200 740 247 797 q 140 625 157 689 q 138 611 138 614 l 138 604 q 136 597 136 600 q 133 585 133 586 l 133 579 q 132 572 132 575 q 129 557 129 564 q 126 511 126 542 q 147 379 126 444 q 213 261 167 321 q 216 265 214 263 q 218 268 218 268 q 226 288 218 263 q 229 299 226 290 l 229 700 l 511 944 q 786 858 639 858 l 789 858 q 792 860 790 858 l 797 860 l 799 861 l 800 861 l 671 729 l 476 794 l 476 115 q 489 110 482 110 l 496 110 q 504 108 500 108 l 511 108 q 518 107 513 107 l 531 107 q 826 239 674 107 l 815 194 q 503 -17 696 3 l 418 -14 z "},"":{"ha":929,"x_min":3,"x_max":826,"o":"m 514 950 q 772 867 636 867 l 785 867 q 800 869 789 867 q 807 871 801 869 l 814 871 q 821 872 815 871 l 826 872 l 628 660 l 778 660 l 708 517 l 476 517 l 476 115 q 480 112 479 113 q 483 111 481 111 l 492 111 q 513 107 513 107 l 533 107 q 690 144 613 107 q 826 235 768 181 q 760 107 818 163 q 635 21 707 56 q 607 8 625 15 q 583 2 597 7 q 540 -7 569 -3 l 519 -11 q 501 -12 513 -11 q 485 -15 489 -14 l 469 -15 q 456 -17 460 -15 l 429 -17 q 188 56 299 -17 q 32 247 78 128 q 3 407 3 324 q 29 574 3 463 q 38 593 35 582 q 47 614 40 600 q 301 864 147 814 l 328 867 q 126 525 126 693 l 126 522 q 128 521 126 522 l 128 517 q 129 515 128 517 l 129 514 q 207 275 129 378 l 207 272 l 208 272 q 209 271 208 271 q 211 269 210 271 l 211 268 l 213 268 l 213 267 l 226 301 q 240 458 232 353 q 242 485 240 467 l 242 533 q 240 556 242 533 q 238 603 238 600 q 235 633 235 622 q 232 664 232 653 l 232 672 q 231 679 231 674 l 231 688 q 229 694 229 689 l 514 950 m 439 813 l 385 764 l 385 447 l 374 399 q 258 254 310 306 l 247 243 q 243 238 243 239 l 238 232 q 439 113 325 140 l 439 813 m 476 792 l 476 546 l 649 726 l 476 792 m 613 1010 l 431 1263 l 589 1263 l 650 1010 l 613 1010 z "},"":{"ha":929,"x_min":3,"x_max":826,"o":"m 514 950 q 772 867 636 867 l 785 867 q 800 869 789 867 q 807 871 801 869 l 814 871 q 821 872 815 871 l 826 872 l 628 660 l 778 660 l 708 517 l 476 517 l 476 115 q 480 112 479 113 q 483 111 481 111 l 492 111 q 513 107 513 107 l 533 107 q 690 144 613 107 q 826 235 768 181 q 760 107 818 163 q 635 21 707 56 q 607 8 625 15 q 583 2 597 7 q 540 -7 569 -3 l 519 -11 q 501 -12 513 -11 q 485 -15 489 -14 l 469 -15 q 456 -17 460 -15 l 429 -17 q 188 56 299 -17 q 32 247 78 128 q 3 407 3 324 q 29 574 3 463 q 38 593 35 582 q 47 614 40 600 q 301 864 147 814 l 328 867 q 126 525 126 693 l 126 522 q 128 521 126 522 l 128 517 q 129 515 128 517 l 129 514 q 207 275 129 378 l 207 272 l 208 272 q 209 271 208 271 q 211 269 210 271 l 211 268 l 213 268 l 213 267 l 226 301 q 240 458 232 353 q 242 485 240 467 l 242 533 q 240 556 242 533 q 238 603 238 600 q 235 633 235 622 q 232 664 232 653 l 232 672 q 231 679 231 674 l 231 688 q 229 694 229 689 l 514 950 m 439 813 l 385 764 l 385 447 l 374 399 q 258 254 310 306 l 247 243 q 243 238 243 239 l 238 232 q 439 113 325 140 l 439 813 m 476 792 l 476 546 l 649 726 l 476 792 m 429 1010 l 393 1010 l 453 1263 l 611 1263 l 429 1010 z "},"":{"ha":929,"x_min":3,"x_max":826,"o":"m 514 950 q 772 867 636 867 l 785 867 q 800 869 789 867 q 807 871 801 869 l 814 871 q 821 872 815 871 l 826 872 l 628 660 l 778 660 l 708 517 l 476 517 l 476 115 q 480 112 479 113 q 483 111 481 111 l 492 111 q 513 107 513 107 l 533 107 q 690 144 613 107 q 826 235 768 181 q 760 107 818 163 q 635 21 707 56 q 607 8 625 15 q 583 2 597 7 q 540 -7 569 -3 l 519 -11 q 501 -12 513 -11 q 485 -15 489 -14 l 469 -15 q 456 -17 460 -15 l 429 -17 q 188 56 299 -17 q 32 247 78 128 q 3 407 3 324 q 29 574 3 463 q 38 593 35 582 q 47 614 40 600 q 301 864 147 814 l 328 867 q 126 525 126 693 l 126 522 q 128 521 126 522 l 128 517 q 129 515 128 517 l 129 514 q 207 275 129 378 l 207 272 l 208 272 q 209 271 208 271 q 211 269 210 271 l 211 268 l 213 268 l 213 267 l 226 301 q 240 458 232 353 q 242 485 240 467 l 242 533 q 240 556 242 533 q 238 603 238 600 q 235 633 235 622 q 232 664 232 653 l 232 672 q 231 679 231 674 l 231 688 q 229 694 229 689 l 514 950 m 439 813 l 385 764 l 385 447 l 374 399 q 258 254 310 306 l 247 243 q 243 238 243 239 l 238 232 q 439 113 325 140 l 439 813 m 476 792 l 476 546 l 649 726 l 476 792 m 356 1011 l 315 1011 l 443 1264 l 589 1264 l 715 1011 l 674 1011 l 517 1157 l 356 1011 z "},"":{"ha":929,"x_min":3,"x_max":826,"o":"m 514 950 q 772 867 636 867 l 785 867 q 800 869 789 867 q 807 871 801 869 l 814 871 q 821 872 815 871 l 826 872 l 628 660 l 778 660 l 708 517 l 476 517 l 476 115 q 480 112 479 113 q 483 111 481 111 l 492 111 q 513 107 513 107 l 533 107 q 690 144 613 107 q 826 235 768 181 q 760 107 818 163 q 635 21 707 56 q 607 8 625 15 q 583 2 597 7 q 540 -7 569 -3 l 519 -11 q 501 -12 513 -11 q 485 -15 489 -14 l 469 -15 q 456 -17 460 -15 l 429 -17 q 188 56 299 -17 q 32 247 78 128 q 3 407 3 324 q 29 574 3 463 q 38 593 35 582 q 47 614 40 600 q 301 864 147 814 l 328 867 q 126 525 126 693 l 126 522 q 128 521 126 522 l 128 517 q 129 515 128 517 l 129 514 q 207 275 129 378 l 207 272 l 208 272 q 209 271 208 271 q 211 269 210 271 l 211 268 l 213 268 l 213 267 l 226 301 q 240 458 232 353 q 242 485 240 467 l 242 533 q 240 556 242 533 q 238 603 238 600 q 235 633 235 622 q 232 664 232 653 l 232 672 q 231 679 231 674 l 231 688 q 229 694 229 689 l 514 950 m 439 813 l 385 764 l 385 447 l 374 399 q 258 254 310 306 l 247 243 q 243 238 243 239 l 238 232 q 439 113 325 140 l 439 813 m 476 792 l 476 546 l 649 726 l 476 792 m 650 1054 l 576 1128 l 650 1203 l 725 1128 l 650 1054 m 379 1054 l 306 1128 l 379 1203 l 454 1128 l 379 1054 z "},"":{"ha":779,"x_min":17,"x_max":714,"o":"m 207 944 l 238 944 q 282 939 246 942 l 326 935 q 349 932 335 935 q 369 928 363 929 q 414 926 385 926 l 428 929 q 464 929 436 926 q 500 935 476 932 l 501 935 l 503 936 q 519 939 508 936 q 536 942 525 939 q 428 740 442 838 l 428 718 q 426 710 426 714 l 426 704 q 425 699 425 703 l 425 688 q 422 661 422 668 l 422 606 q 429 506 422 569 q 453 331 435 447 l 460 307 l 460 281 q 458 274 458 279 l 458 268 q 457 261 457 264 q 440 210 456 235 q 410 169 432 189 q 368 153 392 161 q 347 147 361 151 q 325 140 332 142 q 321 140 324 140 q 315 138 318 139 q 307 138 313 138 l 290 138 l 297 131 q 306 122 301 129 l 322 106 q 368 69 358 76 q 422 43 394 51 q 439 39 436 39 q 444 39 442 39 q 449 38 447 38 l 468 38 q 481 40 469 38 q 490 43 482 40 q 495 46 492 44 q 500 48 499 47 q 504 51 501 49 q 508 53 507 53 q 513 57 510 54 q 517 61 517 60 q 520 65 518 63 q 522 69 522 68 q 526 82 522 69 l 531 94 q 533 107 531 99 q 535 114 533 110 l 535 122 q 536 131 535 126 l 536 156 l 482 608 l 490 761 q 563 885 510 829 q 692 942 617 942 l 711 944 l 714 936 q 708 933 711 935 q 703 929 706 931 q 699 926 701 928 q 692 924 696 924 q 686 922 689 924 q 681 919 683 921 q 647 898 660 908 q 625 864 633 888 q 624 860 625 863 q 622 854 622 858 l 622 850 q 621 842 622 847 q 617 831 619 838 l 617 825 q 613 804 615 818 q 611 786 611 797 l 611 774 q 614 761 611 769 q 615 758 614 760 l 615 756 q 616 752 615 754 q 618 743 617 750 q 619 739 618 742 l 619 735 l 668 367 q 669 357 668 358 l 669 336 q 671 332 669 335 l 671 292 q 669 276 669 286 l 669 261 q 668 246 668 256 q 624 94 660 169 q 499 -4 589 18 q 483 -7 494 -4 l 467 -11 q 452 -12 461 -11 q 439 -15 443 -14 l 428 -15 q 418 -17 419 -15 l 403 -17 q 397 -15 401 -15 l 385 -15 q 375 -14 381 -14 l 367 -14 l 167 49 l 164 46 l 160 46 q 156 47 158 46 l 144 47 q 140 49 143 47 l 138 49 q 63 19 97 49 q 26 -24 38 0 l 26 -21 q 24 -17 25 -19 q 22 -11 22 -14 l 22 -10 q 19 -1 21 -4 q 17 11 17 3 q 57 96 17 57 q 142 151 97 135 q 156 157 146 154 q 167 160 158 157 q 183 165 176 164 q 194 167 190 167 l 275 169 q 278 167 275 167 q 281 168 279 167 q 290 172 282 169 q 294 175 292 174 q 299 178 297 176 q 309 188 301 181 q 319 199 317 196 q 324 213 321 203 l 324 226 q 326 242 324 231 l 326 261 q 328 267 326 264 l 328 285 q 326 299 326 289 l 326 313 q 325 326 325 317 q 210 468 303 468 l 199 471 q 149 460 182 467 q 124 453 140 457 q 111 449 119 451 q 97 444 103 447 q 167 540 111 507 q 285 571 217 571 q 414 867 285 738 q 404 862 411 865 q 392 856 397 858 q 374 849 386 853 q 332 838 361 846 q 293 835 307 835 q 249 838 279 835 q 226 842 242 839 q 203 844 211 844 q 181 847 194 844 q 161 850 172 847 q 109 825 129 842 q 72 778 89 808 q 113 883 75 835 q 207 942 151 932 l 207 944 m 594 1043 l 371 1296 l 528 1296 l 632 1043 l 594 1043 z "},"":{"ha":779,"x_min":17,"x_max":714,"o":"m 207 944 l 238 944 q 282 939 246 942 l 326 935 q 349 932 335 935 q 369 928 363 929 q 414 926 385 926 l 428 929 q 464 929 436 926 q 500 935 476 932 l 501 935 l 503 936 q 519 939 508 936 q 536 942 525 939 q 428 740 442 838 l 428 718 q 426 710 426 714 l 426 704 q 425 699 425 703 l 425 688 q 422 661 422 668 l 422 606 q 429 506 422 569 q 453 331 435 447 l 460 307 l 460 281 q 458 274 458 279 l 458 268 q 457 261 457 264 q 440 210 456 235 q 410 169 432 189 q 368 153 392 161 q 347 147 361 151 q 325 140 332 142 q 321 140 324 140 q 315 138 318 139 q 307 138 313 138 l 290 138 l 297 131 q 306 122 301 129 l 322 106 q 368 69 358 76 q 422 43 394 51 q 439 39 436 39 q 444 39 442 39 q 449 38 447 38 l 468 38 q 481 40 469 38 q 490 43 482 40 q 495 46 492 44 q 500 48 499 47 q 504 51 501 49 q 508 53 507 53 q 513 57 510 54 q 517 61 517 60 q 520 65 518 63 q 522 69 522 68 q 526 82 522 69 l 531 94 q 533 107 531 99 q 535 114 533 110 l 535 122 q 536 131 535 126 l 536 156 l 482 608 l 490 761 q 563 885 510 829 q 692 942 617 942 l 711 944 l 714 936 q 708 933 711 935 q 703 929 706 931 q 699 926 701 928 q 692 924 696 924 q 686 922 689 924 q 681 919 683 921 q 647 898 660 908 q 625 864 633 888 q 624 860 625 863 q 622 854 622 858 l 622 850 q 621 842 622 847 q 617 831 619 838 l 617 825 q 613 804 615 818 q 611 786 611 797 l 611 774 q 614 761 611 769 q 615 758 614 760 l 615 756 q 616 752 615 754 q 618 743 617 750 q 619 739 618 742 l 619 735 l 668 367 q 669 357 668 358 l 669 336 q 671 332 669 335 l 671 292 q 669 276 669 286 l 669 261 q 668 246 668 256 q 624 94 660 169 q 499 -4 589 18 q 483 -7 494 -4 l 467 -11 q 452 -12 461 -11 q 439 -15 443 -14 l 428 -15 q 418 -17 419 -15 l 403 -17 q 397 -15 401 -15 l 385 -15 q 375 -14 381 -14 l 367 -14 l 167 49 l 164 46 l 160 46 q 156 47 158 46 l 144 47 q 140 49 143 47 l 138 49 q 63 19 97 49 q 26 -24 38 0 l 26 -21 q 24 -17 25 -19 q 22 -11 22 -14 l 22 -10 q 19 -1 21 -4 q 17 11 17 3 q 57 96 17 57 q 142 151 97 135 q 156 157 146 154 q 167 160 158 157 q 183 165 176 164 q 194 167 190 167 l 275 169 q 278 167 275 167 q 281 168 279 167 q 290 172 282 169 q 294 175 292 174 q 299 178 297 176 q 309 188 301 181 q 319 199 317 196 q 324 213 321 203 l 324 226 q 326 242 324 231 l 326 261 q 328 267 326 264 l 328 285 q 326 299 326 289 l 326 313 q 325 326 325 317 q 210 468 303 468 l 199 471 q 149 460 182 467 q 124 453 140 457 q 111 449 119 451 q 97 444 103 447 q 167 540 111 507 q 285 571 217 571 q 414 867 285 738 q 404 862 411 865 q 392 856 397 858 q 374 849 386 853 q 332 838 361 846 q 293 835 307 835 q 249 838 279 835 q 226 842 242 839 q 203 844 211 844 q 181 847 194 844 q 161 850 172 847 q 109 825 129 842 q 72 778 89 808 q 113 883 75 835 q 207 942 151 932 l 207 944 m 497 1043 l 460 1043 l 521 1296 l 679 1296 l 497 1043 z "},"":{"ha":779,"x_min":17,"x_max":714,"o":"m 207 944 l 238 944 q 282 939 246 942 l 326 935 q 349 932 335 935 q 369 928 363 929 q 414 926 385 926 l 428 929 q 464 929 436 926 q 500 935 476 932 l 501 935 l 503 936 q 519 939 508 936 q 536 942 525 939 q 428 740 442 838 l 428 718 q 426 710 426 714 l 426 704 q 425 699 425 703 l 425 688 q 422 661 422 668 l 422 606 q 429 506 422 569 q 453 331 435 447 l 460 307 l 460 281 q 458 274 458 279 l 458 268 q 457 261 457 264 q 440 210 456 235 q 410 169 432 189 q 368 153 392 161 q 347 147 361 151 q 325 140 332 142 q 321 140 324 140 q 315 138 318 139 q 307 138 313 138 l 290 138 l 297 131 q 306 122 301 129 l 322 106 q 368 69 358 76 q 422 43 394 51 q 439 39 436 39 q 444 39 442 39 q 449 38 447 38 l 468 38 q 481 40 469 38 q 490 43 482 40 q 495 46 492 44 q 500 48 499 47 q 504 51 501 49 q 508 53 507 53 q 513 57 510 54 q 517 61 517 60 q 520 65 518 63 q 522 69 522 68 q 526 82 522 69 l 531 94 q 533 107 531 99 q 535 114 533 110 l 535 122 q 536 131 535 126 l 536 156 l 482 608 l 490 761 q 563 885 510 829 q 692 942 617 942 l 711 944 l 714 936 q 708 933 711 935 q 703 929 706 931 q 699 926 701 928 q 692 924 696 924 q 686 922 689 924 q 681 919 683 921 q 647 898 660 908 q 625 864 633 888 q 624 860 625 863 q 622 854 622 858 l 622 850 q 621 842 622 847 q 617 831 619 838 l 617 825 q 613 804 615 818 q 611 786 611 797 l 611 774 q 614 761 611 769 q 615 758 614 760 l 615 756 q 616 752 615 754 q 618 743 617 750 q 619 739 618 742 l 619 735 l 668 367 q 669 357 668 358 l 669 336 q 671 332 669 335 l 671 292 q 669 276 669 286 l 669 261 q 668 246 668 256 q 624 94 660 169 q 499 -4 589 18 q 483 -7 494 -4 l 467 -11 q 452 -12 461 -11 q 439 -15 443 -14 l 428 -15 q 418 -17 419 -15 l 403 -17 q 397 -15 401 -15 l 385 -15 q 375 -14 381 -14 l 367 -14 l 167 49 l 164 46 l 160 46 q 156 47 158 46 l 144 47 q 140 49 143 47 l 138 49 q 63 19 97 49 q 26 -24 38 0 l 26 -21 q 24 -17 25 -19 q 22 -11 22 -14 l 22 -10 q 19 -1 21 -4 q 17 11 17 3 q 57 96 17 57 q 142 151 97 135 q 156 157 146 154 q 167 160 158 157 q 183 165 176 164 q 194 167 190 167 l 275 169 q 278 167 275 167 q 281 168 279 167 q 290 172 282 169 q 294 175 292 174 q 299 178 297 176 q 309 188 301 181 q 319 199 317 196 q 324 213 321 203 l 324 226 q 326 242 324 231 l 326 261 q 328 267 326 264 l 328 285 q 326 299 326 289 l 326 313 q 325 326 325 317 q 210 468 303 468 l 199 471 q 149 460 182 467 q 124 453 140 457 q 111 449 119 451 q 97 444 103 447 q 167 540 111 507 q 285 571 217 571 q 414 867 285 738 q 404 862 411 865 q 392 856 397 858 q 374 849 386 853 q 332 838 361 846 q 293 835 307 835 q 249 838 279 835 q 226 842 242 839 q 203 844 211 844 q 181 847 194 844 q 161 850 172 847 q 109 825 129 842 q 72 778 89 808 q 113 883 75 835 q 207 942 151 932 l 207 944 m 328 1011 l 288 1011 l 415 1264 l 561 1264 l 688 1011 l 646 1011 l 489 1157 l 328 1011 z "},"":{"ha":779,"x_min":17,"x_max":714,"o":"m 207 944 l 238 944 q 282 939 246 942 l 326 935 q 349 932 335 935 q 369 928 363 929 q 414 926 385 926 l 428 929 q 464 929 436 926 q 500 935 476 932 l 501 935 l 503 936 q 519 939 508 936 q 536 942 525 939 q 428 740 442 838 l 428 718 q 426 710 426 714 l 426 704 q 425 699 425 703 l 425 688 q 422 661 422 668 l 422 606 q 429 506 422 569 q 453 331 435 447 l 460 307 l 460 281 q 458 274 458 279 l 458 268 q 457 261 457 264 q 440 210 456 235 q 410 169 432 189 q 368 153 392 161 q 347 147 361 151 q 325 140 332 142 q 321 140 324 140 q 315 138 318 139 q 307 138 313 138 l 290 138 l 297 131 q 306 122 301 129 l 322 106 q 368 69 358 76 q 422 43 394 51 q 439 39 436 39 q 444 39 442 39 q 449 38 447 38 l 468 38 q 481 40 469 38 q 490 43 482 40 q 495 46 492 44 q 500 48 499 47 q 504 51 501 49 q 508 53 507 53 q 513 57 510 54 q 517 61 517 60 q 520 65 518 63 q 522 69 522 68 q 526 82 522 69 l 531 94 q 533 107 531 99 q 535 114 533 110 l 535 122 q 536 131 535 126 l 536 156 l 482 608 l 490 761 q 563 885 510 829 q 692 942 617 942 l 711 944 l 714 936 q 708 933 711 935 q 703 929 706 931 q 699 926 701 928 q 692 924 696 924 q 686 922 689 924 q 681 919 683 921 q 647 898 660 908 q 625 864 633 888 q 624 860 625 863 q 622 854 622 858 l 622 850 q 621 842 622 847 q 617 831 619 838 l 617 825 q 613 804 615 818 q 611 786 611 797 l 611 774 q 614 761 611 769 q 615 758 614 760 l 615 756 q 616 752 615 754 q 618 743 617 750 q 619 739 618 742 l 619 735 l 668 367 q 669 357 668 358 l 669 336 q 671 332 669 335 l 671 292 q 669 276 669 286 l 669 261 q 668 246 668 256 q 624 94 660 169 q 499 -4 589 18 q 483 -7 494 -4 l 467 -11 q 452 -12 461 -11 q 439 -15 443 -14 l 428 -15 q 418 -17 419 -15 l 403 -17 q 397 -15 401 -15 l 385 -15 q 375 -14 381 -14 l 367 -14 l 167 49 l 164 46 l 160 46 q 156 47 158 46 l 144 47 q 140 49 143 47 l 138 49 q 63 19 97 49 q 26 -24 38 0 l 26 -21 q 24 -17 25 -19 q 22 -11 22 -14 l 22 -10 q 19 -1 21 -4 q 17 11 17 3 q 57 96 17 57 q 142 151 97 135 q 156 157 146 154 q 167 160 158 157 q 183 165 176 164 q 194 167 190 167 l 275 169 q 278 167 275 167 q 281 168 279 167 q 290 172 282 169 q 294 175 292 174 q 299 178 297 176 q 309 188 301 181 q 319 199 317 196 q 324 213 321 203 l 324 226 q 326 242 324 231 l 326 261 q 328 267 326 264 l 328 285 q 326 299 326 289 l 326 313 q 325 326 325 317 q 210 468 303 468 l 199 471 q 149 460 182 467 q 124 453 140 457 q 111 449 119 451 q 97 444 103 447 q 167 540 111 507 q 285 571 217 571 q 414 867 285 738 q 404 862 411 865 q 392 856 397 858 q 374 849 386 853 q 332 838 361 846 q 293 835 307 835 q 249 838 279 835 q 226 842 242 839 q 203 844 211 844 q 181 847 194 844 q 161 850 172 847 q 109 825 129 842 q 72 778 89 808 q 113 883 75 835 q 207 942 151 932 l 207 944 m 622 1054 l 549 1128 l 622 1203 l 697 1128 l 622 1054 m 351 1054 l 278 1128 l 351 1203 l 426 1128 l 351 1054 z "},"":{"ha":1169,"x_min":19,"x_max":1044,"o":"m 738 313 q 717 307 735 311 q 650 285 693 303 q 611 258 635 279 l 611 178 q 817 139 732 160 q 883 121 839 133 q 885 128 883 122 l 885 133 q 886 140 885 136 l 886 185 q 885 196 885 189 l 885 218 q 882 240 882 232 l 878 261 q 828 290 863 272 q 774 307 803 306 q 767 308 771 307 l 760 308 q 753 310 757 308 l 746 310 l 738 313 m 872 479 q 864 472 869 476 q 857 467 858 468 q 840 460 849 465 q 825 450 831 456 q 775 436 808 444 q 743 433 753 433 q 614 474 681 433 l 614 304 q 681 328 657 322 q 714 335 693 332 q 729 336 718 335 q 746 336 740 336 q 779 333 757 336 q 814 328 790 333 q 864 310 831 321 q 872 306 867 308 q 881 301 878 304 l 872 479 m 611 749 l 611 533 q 642 488 618 500 q 697 467 661 475 q 718 463 717 463 l 743 463 q 749 464 746 463 l 757 464 q 761 465 758 464 l 764 465 q 814 481 797 472 q 861 511 831 490 q 864 522 861 514 q 865 529 864 524 l 865 536 q 867 539 865 538 l 867 556 q 865 561 865 557 l 865 568 q 864 574 864 569 q 817 665 854 621 q 740 728 779 708 q 734 731 738 729 q 722 735 731 732 q 706 740 719 738 q 697 742 703 740 l 688 742 q 671 744 682 742 l 651 744 q 643 746 650 744 l 635 746 l 611 749 m 504 533 l 561 533 l 561 499 l 501 499 q 500 454 500 469 l 500 433 q 501 392 500 401 q 504 370 503 382 q 507 346 506 358 q 508 336 507 342 l 508 325 q 453 186 497 260 l 485 189 q 506 185 490 185 l 529 185 q 554 182 549 182 l 567 182 q 579 181 571 181 l 579 754 l 542 751 q 532 731 539 744 q 529 721 532 728 q 525 710 526 714 q 514 668 522 697 q 514 663 514 667 q 512 654 513 658 q 511 642 511 650 l 511 629 q 510 615 510 624 q 506 575 506 586 l 506 561 q 504 533 506 551 m 393 533 l 467 533 q 475 621 469 563 q 485 665 475 621 q 508 751 496 715 l 500 754 q 496 751 499 751 l 494 751 l 493 750 l 489 750 q 485 747 488 749 q 479 746 482 746 q 399 638 414 701 l 399 624 q 397 610 399 622 q 396 581 396 593 q 394 572 394 579 l 394 564 q 393 540 394 565 l 393 533 m 71 533 l 244 533 q 436 746 290 668 l 181 749 q 88 800 133 749 q 46 899 51 849 l 46 924 q 49 939 46 928 l 50 940 l 50 943 q 51 949 50 944 q 52 956 51 954 q 54 960 53 957 l 54 967 q 149 890 85 903 l 617 910 q 765 896 668 906 q 890 835 833 886 q 972 719 943 788 q 1015 590 999 658 q 1021 568 1018 583 q 1025 547 1021 563 q 1033 503 1029 532 q 1039 433 1036 492 q 1043 361 1043 363 l 1043 314 q 1044 290 1043 297 l 1044 197 q 1043 163 1044 186 q 1042 129 1042 140 q 813 -17 932 88 q 699 13 794 -11 q 640 25 699 13 q 551 38 582 38 q 463 43 507 43 l 428 43 q 417 42 425 42 q 347 35 393 40 q 281 21 324 32 q 86 -60 179 -6 l 82 -60 q 79 -61 81 -60 l 71 -61 q 69 -62 71 -61 l 60 -62 q 63 -51 60 -60 q 65 -47 64 -47 q 68 -45 67 -47 q 69 -42 69 -43 q 71 -39 69 -40 l 72 -39 l 72 -37 l 358 149 q 438 232 403 178 q 474 342 468 279 l 474 353 q 472 366 474 354 q 471 389 471 378 q 467 436 467 435 q 467 449 467 442 q 465 461 465 457 l 465 499 l 390 499 q 390 468 390 482 l 390 447 q 392 428 390 433 q 396 347 392 385 q 322 184 385 253 q 178 61 258 115 l 126 26 q 78 -3 93 4 l 60 -3 q 82 19 60 -3 q 106 44 90 28 q 168 121 157 103 q 199 213 199 167 l 199 218 q 196 226 197 219 q 194 239 194 233 l 194 244 q 192 250 192 247 l 192 256 q 188 265 189 258 q 186 268 186 265 q 152 317 174 297 q 103 336 131 336 l 86 339 q 54 319 75 332 q 26 300 46 313 q 22 296 25 299 l 19 293 q 69 393 19 356 q 181 425 115 425 l 189 425 l 226 428 q 235 499 228 464 l 71 499 l 71 533 z "},"":{"ha":1107,"x_min":-57,"x_max":1039,"o":"m 649 932 l 714 918 q 899 796 839 857 q 979 597 979 711 q 976 576 976 583 q 958 496 967 525 q 950 467 956 486 q 942 436 944 447 l 838 238 l 757 132 q 783 135 761 132 q 839 142 832 142 q 851 143 846 142 l 874 143 q 883 142 875 142 l 904 142 q 925 139 918 139 l 946 135 q 985 126 965 133 l 1010 158 l 1039 143 l 944 -17 q 911 -8 928 -15 q 894 -6 906 -8 q 878 -1 883 -3 q 869 -1 875 -1 q 860 0 863 0 l 843 0 q 810 3 821 3 q 707 -18 750 3 q 632 -97 660 -42 l 614 -92 l 635 -6 q 719 161 678 64 q 786 342 764 265 q 679 389 754 374 q 668 390 672 389 l 651 390 q 646 389 650 389 l 633 389 q 578 372 608 389 q 528 339 551 363 l 528 161 q 435 -25 518 56 q 242 -106 351 -106 l 210 -106 l 40 -56 q 38 -54 39 -54 l 35 -54 q -8 -62 8 -54 q -50 -79 -32 -71 l -51 -81 l -53 -81 q -57 -83 -54 -81 q 10 2 -39 -33 q 113 38 58 38 l 126 40 q 149 33 132 36 q 176 29 157 32 q 193 26 188 26 q 199 26 196 26 q 203 24 201 25 q 211 24 204 24 q 232 21 225 21 l 253 21 q 309 34 281 21 q 347 72 338 47 l 347 78 q 349 82 347 79 l 349 90 q 350 94 349 92 l 350 106 q 304 193 350 149 q 215 239 264 232 l 204 239 l 199 242 q 183 236 193 238 q 172 235 174 235 q 167 233 169 235 q 162 231 165 232 q 153 229 158 229 l 150 229 q 147 228 149 228 l 146 228 q 143 226 144 226 l 140 235 q 142 238 140 236 l 142 239 q 143 242 142 240 l 143 243 l 146 246 q 147 250 146 247 l 149 251 l 149 253 q 250 293 189 293 l 256 293 q 261 292 257 292 l 276 292 q 289 289 285 289 l 301 285 l 301 299 q 300 304 300 300 q 294 315 300 308 q 290 324 290 328 q 288 328 290 325 q 285 332 286 331 q 283 335 285 333 q 280 338 281 338 q 272 346 279 339 l 267 351 q 262 358 264 353 q 253 364 260 363 q 248 368 251 365 q 243 372 244 371 q 240 374 242 372 q 236 375 238 375 q 226 381 229 378 q 220 385 222 383 q 215 386 218 386 q 192 399 204 392 q 182 401 190 399 q 164 404 168 404 l 163 404 q 160 403 161 403 l 153 403 q 150 401 151 401 l 146 401 l 129 397 q 113 396 124 396 q 111 397 113 396 l 110 397 q 106 399 107 397 q 104 401 106 400 l 103 401 q 100 404 100 401 q 136 442 115 429 q 179 457 157 456 l 189 457 q 236 450 201 457 q 257 444 240 449 q 269 441 268 442 q 288 433 269 440 q 299 431 296 431 q 303 443 303 435 q 304 450 303 444 l 304 457 q 226 547 276 511 q 115 582 175 582 l 103 585 q 111 595 108 590 q 121 606 114 600 q 138 611 124 608 l 154 615 q 160 617 156 615 q 167 617 164 617 q 189 619 174 617 l 199 619 q 304 600 240 619 l 304 721 l 649 932 m 496 786 l 447 757 l 447 189 q 411 71 447 125 q 342 6 383 29 l 344 6 q 346 4 344 4 l 354 4 q 357 3 354 3 l 361 3 q 432 32 396 3 q 478 96 460 60 q 479 99 478 97 l 479 101 q 482 107 479 104 q 486 132 485 122 q 489 158 486 122 l 493 213 q 494 233 493 219 l 494 253 q 496 274 494 267 l 496 786 m 821 571 q 771 538 808 560 q 671 511 707 511 q 622 518 643 511 q 610 524 619 521 q 597 528 601 526 q 585 534 593 531 q 571 540 576 538 q 551 553 565 543 l 531 565 l 531 385 q 590 404 550 393 q 649 411 629 411 q 692 407 675 411 q 715 402 708 403 q 740 397 722 401 q 753 393 757 393 q 768 388 758 392 q 783 383 774 386 q 797 376 793 379 q 824 511 824 433 l 824 518 q 822 525 822 519 l 822 547 q 821 554 821 549 l 821 571 m 528 786 l 528 625 q 578 561 543 585 q 650 536 610 543 l 678 536 q 761 563 710 536 q 813 606 792 579 q 736 712 796 665 q 610 775 676 758 q 576 781 604 778 q 546 783 554 783 l 528 786 m 456 1051 l 428 1051 q 464 1160 439 1124 q 564 1217 504 1217 q 607 1210 581 1217 q 663 1188 622 1206 q 771 1154 736 1154 q 840 1215 818 1154 l 865 1215 q 724 1051 849 1051 q 617 1081 685 1051 q 522 1111 549 1111 q 456 1051 476 1111 z "},"":{"ha":1050,"x_min":-6,"x_max":956,"o":"m 490 944 q 513 940 497 940 q 524 939 517 940 q 535 936 532 938 q 579 928 550 935 q 838 796 724 893 q 956 539 956 694 q 914 379 956 450 q 821 239 876 315 l 668 106 l 571 40 l 431 -14 q 424 -15 429 -14 l 417 -15 q 408 -17 415 -15 l 371 -17 q 149 54 246 -17 q 14 247 47 128 l -6 399 l 6 503 l 49 651 l 490 944 m 608 401 q 606 399 607 397 l 604 399 q 601 397 603 397 q 524 368 564 392 q 471 307 485 340 l 471 83 q 654 154 563 93 q 778 307 742 213 q 742 356 768 340 q 644 396 703 389 q 614 399 622 399 l 608 401 m 376 794 l 376 431 q 367 376 376 401 q 346 332 360 363 q 343 328 343 329 l 343 326 l 342 325 l 232 204 q 324 131 274 157 q 436 97 374 106 l 436 794 l 376 794 m 250 718 l 244 718 q 242 715 243 714 l 240 714 l 239 714 q 236 713 238 713 l 233 713 q 229 709 231 710 q 226 708 228 708 q 164 604 181 644 q 125 467 128 519 q 124 439 124 457 q 128 389 124 439 q 142 336 136 353 l 146 324 q 152 311 149 319 q 165 285 156 303 q 183 250 174 267 q 210 218 192 239 q 239 260 228 238 q 250 307 250 283 l 250 718 m 778 592 q 731 557 761 575 q 664 531 708 547 q 654 529 660 531 q 646 528 649 528 q 611 525 628 525 l 600 525 q 593 526 597 525 q 588 526 589 526 q 565 531 583 526 q 474 574 517 542 l 474 371 q 521 399 489 382 q 571 418 532 406 q 594 424 574 419 q 607 425 603 424 l 629 425 q 639 424 631 424 q 660 420 653 421 q 694 411 668 419 q 728 396 706 406 q 789 353 760 381 q 800 376 799 368 l 804 389 q 806 400 804 393 q 808 411 807 407 l 808 421 q 810 431 808 426 l 810 439 q 807 469 810 447 q 804 486 807 475 q 801 501 804 492 q 798 516 799 511 q 794 532 797 521 q 781 575 794 535 q 778 589 778 583 l 778 592 m 471 786 l 471 643 q 568 563 481 585 q 581 559 579 560 q 593 558 583 558 q 614 557 603 557 l 619 557 q 624 558 621 557 l 635 558 q 638 560 636 558 l 640 560 q 754 625 718 574 q 653 720 718 676 q 528 778 589 764 q 503 782 521 779 q 492 783 496 782 l 479 783 l 471 786 m 535 1043 l 354 1296 l 511 1296 l 572 1043 l 535 1043 z "},"":{"ha":1050,"x_min":-6,"x_max":956,"o":"m 490 944 q 513 940 497 940 q 524 939 517 940 q 535 936 532 938 q 579 928 550 935 q 838 796 724 893 q 956 539 956 694 q 914 379 956 450 q 821 239 876 315 l 668 106 l 571 40 l 431 -14 q 424 -15 429 -14 l 417 -15 q 408 -17 415 -15 l 371 -17 q 149 54 246 -17 q 14 247 47 128 l -6 399 l 6 503 l 49 651 l 490 944 m 608 401 q 606 399 607 397 l 604 399 q 601 397 603 397 q 524 368 564 392 q 471 307 485 340 l 471 83 q 654 154 563 93 q 778 307 742 213 q 742 356 768 340 q 644 396 703 389 q 614 399 622 399 l 608 401 m 376 794 l 376 431 q 367 376 376 401 q 346 332 360 363 q 343 328 343 329 l 343 326 l 342 325 l 232 204 q 324 131 274 157 q 436 97 374 106 l 436 794 l 376 794 m 250 718 l 244 718 q 242 715 243 714 l 240 714 l 239 714 q 236 713 238 713 l 233 713 q 229 709 231 710 q 226 708 228 708 q 164 604 181 644 q 125 467 128 519 q 124 439 124 457 q 128 389 124 439 q 142 336 136 353 l 146 324 q 152 311 149 319 q 165 285 156 303 q 183 250 174 267 q 210 218 192 239 q 239 260 228 238 q 250 307 250 283 l 250 718 m 778 592 q 731 557 761 575 q 664 531 708 547 q 654 529 660 531 q 646 528 649 528 q 611 525 628 525 l 600 525 q 593 526 597 525 q 588 526 589 526 q 565 531 583 526 q 474 574 517 542 l 474 371 q 521 399 489 382 q 571 418 532 406 q 594 424 574 419 q 607 425 603 424 l 629 425 q 639 424 631 424 q 660 420 653 421 q 694 411 668 419 q 728 396 706 406 q 789 353 760 381 q 800 376 799 368 l 804 389 q 806 400 804 393 q 808 411 807 407 l 808 421 q 810 431 808 426 l 810 439 q 807 469 810 447 q 804 486 807 475 q 801 501 804 492 q 798 516 799 511 q 794 532 797 521 q 781 575 794 535 q 778 589 778 583 l 778 592 m 471 786 l 471 643 q 568 563 481 585 q 581 559 579 560 q 593 558 583 558 q 614 557 603 557 l 619 557 q 624 558 621 557 l 635 558 q 638 560 636 558 l 640 560 q 754 625 718 574 q 653 720 718 676 q 528 778 589 764 q 503 782 521 779 q 492 783 496 782 l 479 783 l 471 786 m 490 1043 l 453 1043 l 514 1296 l 671 1296 l 490 1043 z "},"":{"ha":1050,"x_min":-6,"x_max":956,"o":"m 490 944 q 513 940 497 940 q 524 939 517 940 q 535 936 532 938 q 579 928 550 935 q 838 796 724 893 q 956 539 956 694 q 914 379 956 450 q 821 239 876 315 l 668 106 l 571 40 l 431 -14 q 424 -15 429 -14 l 417 -15 q 408 -17 415 -15 l 371 -17 q 149 54 246 -17 q 14 247 47 128 l -6 399 l 6 503 l 49 651 l 490 944 m 608 401 q 606 399 607 397 l 604 399 q 601 397 603 397 q 524 368 564 392 q 471 307 485 340 l 471 83 q 654 154 563 93 q 778 307 742 213 q 742 356 768 340 q 644 396 703 389 q 614 399 622 399 l 608 401 m 376 794 l 376 431 q 367 376 376 401 q 346 332 360 363 q 343 328 343 329 l 343 326 l 342 325 l 232 204 q 324 131 274 157 q 436 97 374 106 l 436 794 l 376 794 m 250 718 l 244 718 q 242 715 243 714 l 240 714 l 239 714 q 236 713 238 713 l 233 713 q 229 709 231 710 q 226 708 228 708 q 164 604 181 644 q 125 467 128 519 q 124 439 124 457 q 128 389 124 439 q 142 336 136 353 l 146 324 q 152 311 149 319 q 165 285 156 303 q 183 250 174 267 q 210 218 192 239 q 239 260 228 238 q 250 307 250 283 l 250 718 m 778 592 q 731 557 761 575 q 664 531 708 547 q 654 529 660 531 q 646 528 649 528 q 611 525 628 525 l 600 525 q 593 526 597 525 q 588 526 589 526 q 565 531 583 526 q 474 574 517 542 l 474 371 q 521 399 489 382 q 571 418 532 406 q 594 424 574 419 q 607 425 603 424 l 629 425 q 639 424 631 424 q 660 420 653 421 q 694 411 668 419 q 728 396 706 406 q 789 353 760 381 q 800 376 799 368 l 804 389 q 806 400 804 393 q 808 411 807 407 l 808 421 q 810 431 808 426 l 810 439 q 807 469 810 447 q 804 486 807 475 q 801 501 804 492 q 798 516 799 511 q 794 532 797 521 q 781 575 794 535 q 778 589 778 583 l 778 592 m 471 786 l 471 643 q 568 563 481 585 q 581 559 579 560 q 593 558 583 558 q 614 557 603 557 l 619 557 q 624 558 621 557 l 635 558 q 638 560 636 558 l 640 560 q 754 625 718 574 q 653 720 718 676 q 528 778 589 764 q 503 782 521 779 q 492 783 496 782 l 479 783 l 471 786 m 328 1011 l 288 1011 l 415 1264 l 561 1264 l 688 1011 l 646 1011 l 489 1157 l 328 1011 z "}}}
